%TF.GenerationSoftware,KiCad,Pcbnew,9.0.0*%
%TF.CreationDate,2025-06-02T07:14:14+02:00*%
%TF.ProjectId,footprint measures,666f6f74-7072-4696-9e74-206d65617375,rev?*%
%TF.SameCoordinates,Original*%
%TF.FileFunction,Legend,Top*%
%TF.FilePolarity,Positive*%
%FSLAX46Y46*%
G04 Gerber Fmt 4.6, Leading zero omitted, Abs format (unit mm)*
G04 Created by KiCad (PCBNEW 9.0.0) date 2025-06-02 07:14:14*
%MOMM*%
%LPD*%
G01*
G04 APERTURE LIST*
%ADD10C,0.100000*%
%ADD11C,0.300000*%
%ADD12C,0.150000*%
%ADD13C,0.000000*%
%ADD14C,0.120000*%
G04 APERTURE END LIST*
D10*
X73732455Y-38205752D02*
X73732455Y-38872419D01*
X73494360Y-37824800D02*
X73256265Y-38539085D01*
X73256265Y-38539085D02*
X73875312Y-38539085D01*
X83780074Y-37872419D02*
X83303884Y-37872419D01*
X83303884Y-37872419D02*
X83256265Y-38348609D01*
X83256265Y-38348609D02*
X83303884Y-38300990D01*
X83303884Y-38300990D02*
X83399122Y-38253371D01*
X83399122Y-38253371D02*
X83637217Y-38253371D01*
X83637217Y-38253371D02*
X83732455Y-38300990D01*
X83732455Y-38300990D02*
X83780074Y-38348609D01*
X83780074Y-38348609D02*
X83827693Y-38443847D01*
X83827693Y-38443847D02*
X83827693Y-38681942D01*
X83827693Y-38681942D02*
X83780074Y-38777180D01*
X83780074Y-38777180D02*
X83732455Y-38824800D01*
X83732455Y-38824800D02*
X83637217Y-38872419D01*
X83637217Y-38872419D02*
X83399122Y-38872419D01*
X83399122Y-38872419D02*
X83303884Y-38824800D01*
X83303884Y-38824800D02*
X83256265Y-38777180D01*
X103208646Y-37872419D02*
X103875312Y-37872419D01*
X103875312Y-37872419D02*
X103446741Y-38872419D01*
X106065789Y-73627657D02*
X106065789Y-70627657D01*
X106065789Y-73484800D02*
X105780074Y-73627657D01*
X105780074Y-73627657D02*
X105208646Y-73627657D01*
X105208646Y-73627657D02*
X104922931Y-73484800D01*
X104922931Y-73484800D02*
X104780074Y-73341942D01*
X104780074Y-73341942D02*
X104637217Y-73056228D01*
X104637217Y-73056228D02*
X104637217Y-72199085D01*
X104637217Y-72199085D02*
X104780074Y-71913371D01*
X104780074Y-71913371D02*
X104922931Y-71770514D01*
X104922931Y-71770514D02*
X105208646Y-71627657D01*
X105208646Y-71627657D02*
X105780074Y-71627657D01*
X105780074Y-71627657D02*
X106065789Y-71770514D01*
X107494360Y-73627657D02*
X107494360Y-70627657D01*
X107780075Y-72484800D02*
X108637217Y-73627657D01*
X108637217Y-71627657D02*
X107494360Y-72770514D01*
X109494360Y-71627657D02*
X110637217Y-71627657D01*
X109922931Y-70627657D02*
X109922931Y-73199085D01*
X109922931Y-73199085D02*
X110065788Y-73484800D01*
X110065788Y-73484800D02*
X110351503Y-73627657D01*
X110351503Y-73627657D02*
X110637217Y-73627657D01*
X111637217Y-73627657D02*
X111637217Y-71627657D01*
X111637217Y-71913371D02*
X111780074Y-71770514D01*
X111780074Y-71770514D02*
X112065789Y-71627657D01*
X112065789Y-71627657D02*
X112494360Y-71627657D01*
X112494360Y-71627657D02*
X112780074Y-71770514D01*
X112780074Y-71770514D02*
X112922932Y-72056228D01*
X112922932Y-72056228D02*
X112922932Y-73627657D01*
X112922932Y-72056228D02*
X113065789Y-71770514D01*
X113065789Y-71770514D02*
X113351503Y-71627657D01*
X113351503Y-71627657D02*
X113780074Y-71627657D01*
X113780074Y-71627657D02*
X114065789Y-71770514D01*
X114065789Y-71770514D02*
X114208646Y-72056228D01*
X114208646Y-72056228D02*
X114208646Y-73627657D01*
X115494360Y-73484800D02*
X115780074Y-73627657D01*
X115780074Y-73627657D02*
X116351503Y-73627657D01*
X116351503Y-73627657D02*
X116637217Y-73484800D01*
X116637217Y-73484800D02*
X116780074Y-73199085D01*
X116780074Y-73199085D02*
X116780074Y-73056228D01*
X116780074Y-73056228D02*
X116637217Y-72770514D01*
X116637217Y-72770514D02*
X116351503Y-72627657D01*
X116351503Y-72627657D02*
X115922932Y-72627657D01*
X115922932Y-72627657D02*
X115637217Y-72484800D01*
X115637217Y-72484800D02*
X115494360Y-72199085D01*
X115494360Y-72199085D02*
X115494360Y-72056228D01*
X115494360Y-72056228D02*
X115637217Y-71770514D01*
X115637217Y-71770514D02*
X115922932Y-71627657D01*
X115922932Y-71627657D02*
X116351503Y-71627657D01*
X116351503Y-71627657D02*
X116637217Y-71770514D01*
X118065788Y-73341942D02*
X118208645Y-73484800D01*
X118208645Y-73484800D02*
X118065788Y-73627657D01*
X118065788Y-73627657D02*
X117922931Y-73484800D01*
X117922931Y-73484800D02*
X118065788Y-73341942D01*
X118065788Y-73341942D02*
X118065788Y-73627657D01*
X119922931Y-73627657D02*
X119637216Y-73484800D01*
X119637216Y-73484800D02*
X119494359Y-73341942D01*
X119494359Y-73341942D02*
X119351502Y-73056228D01*
X119351502Y-73056228D02*
X119351502Y-72199085D01*
X119351502Y-72199085D02*
X119494359Y-71913371D01*
X119494359Y-71913371D02*
X119637216Y-71770514D01*
X119637216Y-71770514D02*
X119922931Y-71627657D01*
X119922931Y-71627657D02*
X120351502Y-71627657D01*
X120351502Y-71627657D02*
X120637216Y-71770514D01*
X120637216Y-71770514D02*
X120780074Y-71913371D01*
X120780074Y-71913371D02*
X120922931Y-72199085D01*
X120922931Y-72199085D02*
X120922931Y-73056228D01*
X120922931Y-73056228D02*
X120780074Y-73341942D01*
X120780074Y-73341942D02*
X120637216Y-73484800D01*
X120637216Y-73484800D02*
X120351502Y-73627657D01*
X120351502Y-73627657D02*
X119922931Y-73627657D01*
X122208645Y-73627657D02*
X122208645Y-71627657D01*
X122208645Y-72199085D02*
X122351502Y-71913371D01*
X122351502Y-71913371D02*
X122494360Y-71770514D01*
X122494360Y-71770514D02*
X122780074Y-71627657D01*
X122780074Y-71627657D02*
X123065788Y-71627657D01*
X125351503Y-71627657D02*
X125351503Y-74056228D01*
X125351503Y-74056228D02*
X125208645Y-74341942D01*
X125208645Y-74341942D02*
X125065788Y-74484800D01*
X125065788Y-74484800D02*
X124780074Y-74627657D01*
X124780074Y-74627657D02*
X124351503Y-74627657D01*
X124351503Y-74627657D02*
X124065788Y-74484800D01*
X125351503Y-73484800D02*
X125065788Y-73627657D01*
X125065788Y-73627657D02*
X124494360Y-73627657D01*
X124494360Y-73627657D02*
X124208645Y-73484800D01*
X124208645Y-73484800D02*
X124065788Y-73341942D01*
X124065788Y-73341942D02*
X123922931Y-73056228D01*
X123922931Y-73056228D02*
X123922931Y-72199085D01*
X123922931Y-72199085D02*
X124065788Y-71913371D01*
X124065788Y-71913371D02*
X124208645Y-71770514D01*
X124208645Y-71770514D02*
X124494360Y-71627657D01*
X124494360Y-71627657D02*
X125065788Y-71627657D01*
X125065788Y-71627657D02*
X125351503Y-71770514D01*
D11*
X58840225Y-65300828D02*
X58983082Y-65300828D01*
X58983082Y-65300828D02*
X59125939Y-65372257D01*
X59125939Y-65372257D02*
X59197368Y-65443685D01*
X59197368Y-65443685D02*
X59268796Y-65586542D01*
X59268796Y-65586542D02*
X59340225Y-65872257D01*
X59340225Y-65872257D02*
X59340225Y-66229400D01*
X59340225Y-66229400D02*
X59268796Y-66515114D01*
X59268796Y-66515114D02*
X59197368Y-66657971D01*
X59197368Y-66657971D02*
X59125939Y-66729400D01*
X59125939Y-66729400D02*
X58983082Y-66800828D01*
X58983082Y-66800828D02*
X58840225Y-66800828D01*
X58840225Y-66800828D02*
X58697368Y-66729400D01*
X58697368Y-66729400D02*
X58625939Y-66657971D01*
X58625939Y-66657971D02*
X58554510Y-66515114D01*
X58554510Y-66515114D02*
X58483082Y-66229400D01*
X58483082Y-66229400D02*
X58483082Y-65872257D01*
X58483082Y-65872257D02*
X58554510Y-65586542D01*
X58554510Y-65586542D02*
X58625939Y-65443685D01*
X58625939Y-65443685D02*
X58697368Y-65372257D01*
X58697368Y-65372257D02*
X58840225Y-65300828D01*
X60054510Y-66729400D02*
X60054510Y-66800828D01*
X60054510Y-66800828D02*
X59983081Y-66943685D01*
X59983081Y-66943685D02*
X59911653Y-67015114D01*
X60625939Y-65443685D02*
X60697367Y-65372257D01*
X60697367Y-65372257D02*
X60840225Y-65300828D01*
X60840225Y-65300828D02*
X61197367Y-65300828D01*
X61197367Y-65300828D02*
X61340225Y-65372257D01*
X61340225Y-65372257D02*
X61411653Y-65443685D01*
X61411653Y-65443685D02*
X61483082Y-65586542D01*
X61483082Y-65586542D02*
X61483082Y-65729400D01*
X61483082Y-65729400D02*
X61411653Y-65943685D01*
X61411653Y-65943685D02*
X60554510Y-66800828D01*
X60554510Y-66800828D02*
X61483082Y-66800828D01*
X63268795Y-66800828D02*
X63268795Y-65800828D01*
X63268795Y-65943685D02*
X63340224Y-65872257D01*
X63340224Y-65872257D02*
X63483081Y-65800828D01*
X63483081Y-65800828D02*
X63697367Y-65800828D01*
X63697367Y-65800828D02*
X63840224Y-65872257D01*
X63840224Y-65872257D02*
X63911653Y-66015114D01*
X63911653Y-66015114D02*
X63911653Y-66800828D01*
X63911653Y-66015114D02*
X63983081Y-65872257D01*
X63983081Y-65872257D02*
X64125938Y-65800828D01*
X64125938Y-65800828D02*
X64340224Y-65800828D01*
X64340224Y-65800828D02*
X64483081Y-65872257D01*
X64483081Y-65872257D02*
X64554510Y-66015114D01*
X64554510Y-66015114D02*
X64554510Y-66800828D01*
X65268795Y-66800828D02*
X65268795Y-65800828D01*
X65268795Y-65943685D02*
X65340224Y-65872257D01*
X65340224Y-65872257D02*
X65483081Y-65800828D01*
X65483081Y-65800828D02*
X65697367Y-65800828D01*
X65697367Y-65800828D02*
X65840224Y-65872257D01*
X65840224Y-65872257D02*
X65911653Y-66015114D01*
X65911653Y-66015114D02*
X65911653Y-66800828D01*
X65911653Y-66015114D02*
X65983081Y-65872257D01*
X65983081Y-65872257D02*
X66125938Y-65800828D01*
X66125938Y-65800828D02*
X66340224Y-65800828D01*
X66340224Y-65800828D02*
X66483081Y-65872257D01*
X66483081Y-65872257D02*
X66554510Y-66015114D01*
X66554510Y-66015114D02*
X66554510Y-66800828D01*
D10*
X132827693Y-38872419D02*
X132256265Y-38872419D01*
X132541979Y-38872419D02*
X132541979Y-37872419D01*
X132541979Y-37872419D02*
X132446741Y-38015276D01*
X132446741Y-38015276D02*
X132351503Y-38110514D01*
X132351503Y-38110514D02*
X132256265Y-38158133D01*
X133446741Y-37872419D02*
X133541979Y-37872419D01*
X133541979Y-37872419D02*
X133637217Y-37920038D01*
X133637217Y-37920038D02*
X133684836Y-37967657D01*
X133684836Y-37967657D02*
X133732455Y-38062895D01*
X133732455Y-38062895D02*
X133780074Y-38253371D01*
X133780074Y-38253371D02*
X133780074Y-38491466D01*
X133780074Y-38491466D02*
X133732455Y-38681942D01*
X133732455Y-38681942D02*
X133684836Y-38777180D01*
X133684836Y-38777180D02*
X133637217Y-38824800D01*
X133637217Y-38824800D02*
X133541979Y-38872419D01*
X133541979Y-38872419D02*
X133446741Y-38872419D01*
X133446741Y-38872419D02*
X133351503Y-38824800D01*
X133351503Y-38824800D02*
X133303884Y-38777180D01*
X133303884Y-38777180D02*
X133256265Y-38681942D01*
X133256265Y-38681942D02*
X133208646Y-38491466D01*
X133208646Y-38491466D02*
X133208646Y-38253371D01*
X133208646Y-38253371D02*
X133256265Y-38062895D01*
X133256265Y-38062895D02*
X133303884Y-37967657D01*
X133303884Y-37967657D02*
X133351503Y-37920038D01*
X133351503Y-37920038D02*
X133446741Y-37872419D01*
X53256265Y-37967657D02*
X53303884Y-37920038D01*
X53303884Y-37920038D02*
X53399122Y-37872419D01*
X53399122Y-37872419D02*
X53637217Y-37872419D01*
X53637217Y-37872419D02*
X53732455Y-37920038D01*
X53732455Y-37920038D02*
X53780074Y-37967657D01*
X53780074Y-37967657D02*
X53827693Y-38062895D01*
X53827693Y-38062895D02*
X53827693Y-38158133D01*
X53827693Y-38158133D02*
X53780074Y-38300990D01*
X53780074Y-38300990D02*
X53208646Y-38872419D01*
X53208646Y-38872419D02*
X53827693Y-38872419D01*
X123351503Y-38872419D02*
X123541979Y-38872419D01*
X123541979Y-38872419D02*
X123637217Y-38824800D01*
X123637217Y-38824800D02*
X123684836Y-38777180D01*
X123684836Y-38777180D02*
X123780074Y-38634323D01*
X123780074Y-38634323D02*
X123827693Y-38443847D01*
X123827693Y-38443847D02*
X123827693Y-38062895D01*
X123827693Y-38062895D02*
X123780074Y-37967657D01*
X123780074Y-37967657D02*
X123732455Y-37920038D01*
X123732455Y-37920038D02*
X123637217Y-37872419D01*
X123637217Y-37872419D02*
X123446741Y-37872419D01*
X123446741Y-37872419D02*
X123351503Y-37920038D01*
X123351503Y-37920038D02*
X123303884Y-37967657D01*
X123303884Y-37967657D02*
X123256265Y-38062895D01*
X123256265Y-38062895D02*
X123256265Y-38300990D01*
X123256265Y-38300990D02*
X123303884Y-38396228D01*
X123303884Y-38396228D02*
X123351503Y-38443847D01*
X123351503Y-38443847D02*
X123446741Y-38491466D01*
X123446741Y-38491466D02*
X123637217Y-38491466D01*
X123637217Y-38491466D02*
X123732455Y-38443847D01*
X123732455Y-38443847D02*
X123780074Y-38396228D01*
X123780074Y-38396228D02*
X123827693Y-38300990D01*
D11*
X58840225Y-68300828D02*
X58983082Y-68300828D01*
X58983082Y-68300828D02*
X59125939Y-68372257D01*
X59125939Y-68372257D02*
X59197368Y-68443685D01*
X59197368Y-68443685D02*
X59268796Y-68586542D01*
X59268796Y-68586542D02*
X59340225Y-68872257D01*
X59340225Y-68872257D02*
X59340225Y-69229400D01*
X59340225Y-69229400D02*
X59268796Y-69515114D01*
X59268796Y-69515114D02*
X59197368Y-69657971D01*
X59197368Y-69657971D02*
X59125939Y-69729400D01*
X59125939Y-69729400D02*
X58983082Y-69800828D01*
X58983082Y-69800828D02*
X58840225Y-69800828D01*
X58840225Y-69800828D02*
X58697368Y-69729400D01*
X58697368Y-69729400D02*
X58625939Y-69657971D01*
X58625939Y-69657971D02*
X58554510Y-69515114D01*
X58554510Y-69515114D02*
X58483082Y-69229400D01*
X58483082Y-69229400D02*
X58483082Y-68872257D01*
X58483082Y-68872257D02*
X58554510Y-68586542D01*
X58554510Y-68586542D02*
X58625939Y-68443685D01*
X58625939Y-68443685D02*
X58697368Y-68372257D01*
X58697368Y-68372257D02*
X58840225Y-68300828D01*
X60054510Y-69729400D02*
X60054510Y-69800828D01*
X60054510Y-69800828D02*
X59983081Y-69943685D01*
X59983081Y-69943685D02*
X59911653Y-70015114D01*
X60554510Y-68300828D02*
X61483082Y-68300828D01*
X61483082Y-68300828D02*
X60983082Y-68872257D01*
X60983082Y-68872257D02*
X61197367Y-68872257D01*
X61197367Y-68872257D02*
X61340225Y-68943685D01*
X61340225Y-68943685D02*
X61411653Y-69015114D01*
X61411653Y-69015114D02*
X61483082Y-69157971D01*
X61483082Y-69157971D02*
X61483082Y-69515114D01*
X61483082Y-69515114D02*
X61411653Y-69657971D01*
X61411653Y-69657971D02*
X61340225Y-69729400D01*
X61340225Y-69729400D02*
X61197367Y-69800828D01*
X61197367Y-69800828D02*
X60768796Y-69800828D01*
X60768796Y-69800828D02*
X60625939Y-69729400D01*
X60625939Y-69729400D02*
X60554510Y-69657971D01*
X63268795Y-69800828D02*
X63268795Y-68800828D01*
X63268795Y-68943685D02*
X63340224Y-68872257D01*
X63340224Y-68872257D02*
X63483081Y-68800828D01*
X63483081Y-68800828D02*
X63697367Y-68800828D01*
X63697367Y-68800828D02*
X63840224Y-68872257D01*
X63840224Y-68872257D02*
X63911653Y-69015114D01*
X63911653Y-69015114D02*
X63911653Y-69800828D01*
X63911653Y-69015114D02*
X63983081Y-68872257D01*
X63983081Y-68872257D02*
X64125938Y-68800828D01*
X64125938Y-68800828D02*
X64340224Y-68800828D01*
X64340224Y-68800828D02*
X64483081Y-68872257D01*
X64483081Y-68872257D02*
X64554510Y-69015114D01*
X64554510Y-69015114D02*
X64554510Y-69800828D01*
X65268795Y-69800828D02*
X65268795Y-68800828D01*
X65268795Y-68943685D02*
X65340224Y-68872257D01*
X65340224Y-68872257D02*
X65483081Y-68800828D01*
X65483081Y-68800828D02*
X65697367Y-68800828D01*
X65697367Y-68800828D02*
X65840224Y-68872257D01*
X65840224Y-68872257D02*
X65911653Y-69015114D01*
X65911653Y-69015114D02*
X65911653Y-69800828D01*
X65911653Y-69015114D02*
X65983081Y-68872257D01*
X65983081Y-68872257D02*
X66125938Y-68800828D01*
X66125938Y-68800828D02*
X66340224Y-68800828D01*
X66340224Y-68800828D02*
X66483081Y-68872257D01*
X66483081Y-68872257D02*
X66554510Y-69015114D01*
X66554510Y-69015114D02*
X66554510Y-69800828D01*
D10*
X63208646Y-37872419D02*
X63827693Y-37872419D01*
X63827693Y-37872419D02*
X63494360Y-38253371D01*
X63494360Y-38253371D02*
X63637217Y-38253371D01*
X63637217Y-38253371D02*
X63732455Y-38300990D01*
X63732455Y-38300990D02*
X63780074Y-38348609D01*
X63780074Y-38348609D02*
X63827693Y-38443847D01*
X63827693Y-38443847D02*
X63827693Y-38681942D01*
X63827693Y-38681942D02*
X63780074Y-38777180D01*
X63780074Y-38777180D02*
X63732455Y-38824800D01*
X63732455Y-38824800D02*
X63637217Y-38872419D01*
X63637217Y-38872419D02*
X63351503Y-38872419D01*
X63351503Y-38872419D02*
X63256265Y-38824800D01*
X63256265Y-38824800D02*
X63208646Y-38777180D01*
X113446741Y-38300990D02*
X113351503Y-38253371D01*
X113351503Y-38253371D02*
X113303884Y-38205752D01*
X113303884Y-38205752D02*
X113256265Y-38110514D01*
X113256265Y-38110514D02*
X113256265Y-38062895D01*
X113256265Y-38062895D02*
X113303884Y-37967657D01*
X113303884Y-37967657D02*
X113351503Y-37920038D01*
X113351503Y-37920038D02*
X113446741Y-37872419D01*
X113446741Y-37872419D02*
X113637217Y-37872419D01*
X113637217Y-37872419D02*
X113732455Y-37920038D01*
X113732455Y-37920038D02*
X113780074Y-37967657D01*
X113780074Y-37967657D02*
X113827693Y-38062895D01*
X113827693Y-38062895D02*
X113827693Y-38110514D01*
X113827693Y-38110514D02*
X113780074Y-38205752D01*
X113780074Y-38205752D02*
X113732455Y-38253371D01*
X113732455Y-38253371D02*
X113637217Y-38300990D01*
X113637217Y-38300990D02*
X113446741Y-38300990D01*
X113446741Y-38300990D02*
X113351503Y-38348609D01*
X113351503Y-38348609D02*
X113303884Y-38396228D01*
X113303884Y-38396228D02*
X113256265Y-38491466D01*
X113256265Y-38491466D02*
X113256265Y-38681942D01*
X113256265Y-38681942D02*
X113303884Y-38777180D01*
X113303884Y-38777180D02*
X113351503Y-38824800D01*
X113351503Y-38824800D02*
X113446741Y-38872419D01*
X113446741Y-38872419D02*
X113637217Y-38872419D01*
X113637217Y-38872419D02*
X113732455Y-38824800D01*
X113732455Y-38824800D02*
X113780074Y-38777180D01*
X113780074Y-38777180D02*
X113827693Y-38681942D01*
X113827693Y-38681942D02*
X113827693Y-38491466D01*
X113827693Y-38491466D02*
X113780074Y-38396228D01*
X113780074Y-38396228D02*
X113732455Y-38348609D01*
X113732455Y-38348609D02*
X113637217Y-38300990D01*
D11*
X77418082Y-43634400D02*
X77560939Y-43705828D01*
X77560939Y-43705828D02*
X77846653Y-43705828D01*
X77846653Y-43705828D02*
X77989510Y-43634400D01*
X77989510Y-43634400D02*
X78060939Y-43491542D01*
X78060939Y-43491542D02*
X78060939Y-43420114D01*
X78060939Y-43420114D02*
X77989510Y-43277257D01*
X77989510Y-43277257D02*
X77846653Y-43205828D01*
X77846653Y-43205828D02*
X77632368Y-43205828D01*
X77632368Y-43205828D02*
X77489510Y-43134400D01*
X77489510Y-43134400D02*
X77418082Y-42991542D01*
X77418082Y-42991542D02*
X77418082Y-42920114D01*
X77418082Y-42920114D02*
X77489510Y-42777257D01*
X77489510Y-42777257D02*
X77632368Y-42705828D01*
X77632368Y-42705828D02*
X77846653Y-42705828D01*
X77846653Y-42705828D02*
X77989510Y-42777257D01*
X78918082Y-43705828D02*
X78775225Y-43634400D01*
X78775225Y-43634400D02*
X78703796Y-43562971D01*
X78703796Y-43562971D02*
X78632368Y-43420114D01*
X78632368Y-43420114D02*
X78632368Y-42991542D01*
X78632368Y-42991542D02*
X78703796Y-42848685D01*
X78703796Y-42848685D02*
X78775225Y-42777257D01*
X78775225Y-42777257D02*
X78918082Y-42705828D01*
X78918082Y-42705828D02*
X79132368Y-42705828D01*
X79132368Y-42705828D02*
X79275225Y-42777257D01*
X79275225Y-42777257D02*
X79346654Y-42848685D01*
X79346654Y-42848685D02*
X79418082Y-42991542D01*
X79418082Y-42991542D02*
X79418082Y-43420114D01*
X79418082Y-43420114D02*
X79346654Y-43562971D01*
X79346654Y-43562971D02*
X79275225Y-43634400D01*
X79275225Y-43634400D02*
X79132368Y-43705828D01*
X79132368Y-43705828D02*
X78918082Y-43705828D01*
X80703797Y-43705828D02*
X80703797Y-42205828D01*
X80703797Y-43634400D02*
X80560939Y-43705828D01*
X80560939Y-43705828D02*
X80275225Y-43705828D01*
X80275225Y-43705828D02*
X80132368Y-43634400D01*
X80132368Y-43634400D02*
X80060939Y-43562971D01*
X80060939Y-43562971D02*
X79989511Y-43420114D01*
X79989511Y-43420114D02*
X79989511Y-42991542D01*
X79989511Y-42991542D02*
X80060939Y-42848685D01*
X80060939Y-42848685D02*
X80132368Y-42777257D01*
X80132368Y-42777257D02*
X80275225Y-42705828D01*
X80275225Y-42705828D02*
X80560939Y-42705828D01*
X80560939Y-42705828D02*
X80703797Y-42777257D01*
X81418082Y-43134400D02*
X82560940Y-43134400D01*
X84060940Y-43705828D02*
X83203797Y-43705828D01*
X83632368Y-43705828D02*
X83632368Y-42205828D01*
X83632368Y-42205828D02*
X83489511Y-42420114D01*
X83489511Y-42420114D02*
X83346654Y-42562971D01*
X83346654Y-42562971D02*
X83203797Y-42634400D01*
X84632368Y-42348685D02*
X84703796Y-42277257D01*
X84703796Y-42277257D02*
X84846654Y-42205828D01*
X84846654Y-42205828D02*
X85203796Y-42205828D01*
X85203796Y-42205828D02*
X85346654Y-42277257D01*
X85346654Y-42277257D02*
X85418082Y-42348685D01*
X85418082Y-42348685D02*
X85489511Y-42491542D01*
X85489511Y-42491542D02*
X85489511Y-42634400D01*
X85489511Y-42634400D02*
X85418082Y-42848685D01*
X85418082Y-42848685D02*
X84560939Y-43705828D01*
X84560939Y-43705828D02*
X85489511Y-43705828D01*
X85989510Y-42205828D02*
X86918082Y-42205828D01*
X86918082Y-42205828D02*
X86418082Y-42777257D01*
X86418082Y-42777257D02*
X86632367Y-42777257D01*
X86632367Y-42777257D02*
X86775225Y-42848685D01*
X86775225Y-42848685D02*
X86846653Y-42920114D01*
X86846653Y-42920114D02*
X86918082Y-43062971D01*
X86918082Y-43062971D02*
X86918082Y-43420114D01*
X86918082Y-43420114D02*
X86846653Y-43562971D01*
X86846653Y-43562971D02*
X86775225Y-43634400D01*
X86775225Y-43634400D02*
X86632367Y-43705828D01*
X86632367Y-43705828D02*
X86203796Y-43705828D01*
X86203796Y-43705828D02*
X86060939Y-43634400D01*
X86060939Y-43634400D02*
X85989510Y-43562971D01*
X89346653Y-43705828D02*
X89346653Y-42205828D01*
X89346653Y-43634400D02*
X89203795Y-43705828D01*
X89203795Y-43705828D02*
X88918081Y-43705828D01*
X88918081Y-43705828D02*
X88775224Y-43634400D01*
X88775224Y-43634400D02*
X88703795Y-43562971D01*
X88703795Y-43562971D02*
X88632367Y-43420114D01*
X88632367Y-43420114D02*
X88632367Y-42991542D01*
X88632367Y-42991542D02*
X88703795Y-42848685D01*
X88703795Y-42848685D02*
X88775224Y-42777257D01*
X88775224Y-42777257D02*
X88918081Y-42705828D01*
X88918081Y-42705828D02*
X89203795Y-42705828D01*
X89203795Y-42705828D02*
X89346653Y-42777257D01*
X90060938Y-43705828D02*
X90060938Y-42705828D01*
X90060938Y-42205828D02*
X89989510Y-42277257D01*
X89989510Y-42277257D02*
X90060938Y-42348685D01*
X90060938Y-42348685D02*
X90132367Y-42277257D01*
X90132367Y-42277257D02*
X90060938Y-42205828D01*
X90060938Y-42205828D02*
X90060938Y-42348685D01*
X90989510Y-43705828D02*
X90846653Y-43634400D01*
X90846653Y-43634400D02*
X90775224Y-43562971D01*
X90775224Y-43562971D02*
X90703796Y-43420114D01*
X90703796Y-43420114D02*
X90703796Y-42991542D01*
X90703796Y-42991542D02*
X90775224Y-42848685D01*
X90775224Y-42848685D02*
X90846653Y-42777257D01*
X90846653Y-42777257D02*
X90989510Y-42705828D01*
X90989510Y-42705828D02*
X91203796Y-42705828D01*
X91203796Y-42705828D02*
X91346653Y-42777257D01*
X91346653Y-42777257D02*
X91418082Y-42848685D01*
X91418082Y-42848685D02*
X91489510Y-42991542D01*
X91489510Y-42991542D02*
X91489510Y-43420114D01*
X91489510Y-43420114D02*
X91418082Y-43562971D01*
X91418082Y-43562971D02*
X91346653Y-43634400D01*
X91346653Y-43634400D02*
X91203796Y-43705828D01*
X91203796Y-43705828D02*
X90989510Y-43705828D01*
X92775225Y-43705828D02*
X92775225Y-42205828D01*
X92775225Y-43634400D02*
X92632367Y-43705828D01*
X92632367Y-43705828D02*
X92346653Y-43705828D01*
X92346653Y-43705828D02*
X92203796Y-43634400D01*
X92203796Y-43634400D02*
X92132367Y-43562971D01*
X92132367Y-43562971D02*
X92060939Y-43420114D01*
X92060939Y-43420114D02*
X92060939Y-42991542D01*
X92060939Y-42991542D02*
X92132367Y-42848685D01*
X92132367Y-42848685D02*
X92203796Y-42777257D01*
X92203796Y-42777257D02*
X92346653Y-42705828D01*
X92346653Y-42705828D02*
X92632367Y-42705828D01*
X92632367Y-42705828D02*
X92775225Y-42777257D01*
X94060939Y-43634400D02*
X93918082Y-43705828D01*
X93918082Y-43705828D02*
X93632368Y-43705828D01*
X93632368Y-43705828D02*
X93489510Y-43634400D01*
X93489510Y-43634400D02*
X93418082Y-43491542D01*
X93418082Y-43491542D02*
X93418082Y-42920114D01*
X93418082Y-42920114D02*
X93489510Y-42777257D01*
X93489510Y-42777257D02*
X93632368Y-42705828D01*
X93632368Y-42705828D02*
X93918082Y-42705828D01*
X93918082Y-42705828D02*
X94060939Y-42777257D01*
X94060939Y-42777257D02*
X94132368Y-42920114D01*
X94132368Y-42920114D02*
X94132368Y-43062971D01*
X94132368Y-43062971D02*
X93418082Y-43205828D01*
D10*
X33494360Y-37872419D02*
X33589598Y-37872419D01*
X33589598Y-37872419D02*
X33684836Y-37920038D01*
X33684836Y-37920038D02*
X33732455Y-37967657D01*
X33732455Y-37967657D02*
X33780074Y-38062895D01*
X33780074Y-38062895D02*
X33827693Y-38253371D01*
X33827693Y-38253371D02*
X33827693Y-38491466D01*
X33827693Y-38491466D02*
X33780074Y-38681942D01*
X33780074Y-38681942D02*
X33732455Y-38777180D01*
X33732455Y-38777180D02*
X33684836Y-38824800D01*
X33684836Y-38824800D02*
X33589598Y-38872419D01*
X33589598Y-38872419D02*
X33494360Y-38872419D01*
X33494360Y-38872419D02*
X33399122Y-38824800D01*
X33399122Y-38824800D02*
X33351503Y-38777180D01*
X33351503Y-38777180D02*
X33303884Y-38681942D01*
X33303884Y-38681942D02*
X33256265Y-38491466D01*
X33256265Y-38491466D02*
X33256265Y-38253371D01*
X33256265Y-38253371D02*
X33303884Y-38062895D01*
X33303884Y-38062895D02*
X33351503Y-37967657D01*
X33351503Y-37967657D02*
X33399122Y-37920038D01*
X33399122Y-37920038D02*
X33494360Y-37872419D01*
D11*
X58840225Y-74300828D02*
X58983082Y-74300828D01*
X58983082Y-74300828D02*
X59125939Y-74372257D01*
X59125939Y-74372257D02*
X59197368Y-74443685D01*
X59197368Y-74443685D02*
X59268796Y-74586542D01*
X59268796Y-74586542D02*
X59340225Y-74872257D01*
X59340225Y-74872257D02*
X59340225Y-75229400D01*
X59340225Y-75229400D02*
X59268796Y-75515114D01*
X59268796Y-75515114D02*
X59197368Y-75657971D01*
X59197368Y-75657971D02*
X59125939Y-75729400D01*
X59125939Y-75729400D02*
X58983082Y-75800828D01*
X58983082Y-75800828D02*
X58840225Y-75800828D01*
X58840225Y-75800828D02*
X58697368Y-75729400D01*
X58697368Y-75729400D02*
X58625939Y-75657971D01*
X58625939Y-75657971D02*
X58554510Y-75515114D01*
X58554510Y-75515114D02*
X58483082Y-75229400D01*
X58483082Y-75229400D02*
X58483082Y-74872257D01*
X58483082Y-74872257D02*
X58554510Y-74586542D01*
X58554510Y-74586542D02*
X58625939Y-74443685D01*
X58625939Y-74443685D02*
X58697368Y-74372257D01*
X58697368Y-74372257D02*
X58840225Y-74300828D01*
X60054510Y-75729400D02*
X60054510Y-75800828D01*
X60054510Y-75800828D02*
X59983081Y-75943685D01*
X59983081Y-75943685D02*
X59911653Y-76015114D01*
X61411653Y-74300828D02*
X60697367Y-74300828D01*
X60697367Y-74300828D02*
X60625939Y-75015114D01*
X60625939Y-75015114D02*
X60697367Y-74943685D01*
X60697367Y-74943685D02*
X60840225Y-74872257D01*
X60840225Y-74872257D02*
X61197367Y-74872257D01*
X61197367Y-74872257D02*
X61340225Y-74943685D01*
X61340225Y-74943685D02*
X61411653Y-75015114D01*
X61411653Y-75015114D02*
X61483082Y-75157971D01*
X61483082Y-75157971D02*
X61483082Y-75515114D01*
X61483082Y-75515114D02*
X61411653Y-75657971D01*
X61411653Y-75657971D02*
X61340225Y-75729400D01*
X61340225Y-75729400D02*
X61197367Y-75800828D01*
X61197367Y-75800828D02*
X60840225Y-75800828D01*
X60840225Y-75800828D02*
X60697367Y-75729400D01*
X60697367Y-75729400D02*
X60625939Y-75657971D01*
X63268795Y-75800828D02*
X63268795Y-74800828D01*
X63268795Y-74943685D02*
X63340224Y-74872257D01*
X63340224Y-74872257D02*
X63483081Y-74800828D01*
X63483081Y-74800828D02*
X63697367Y-74800828D01*
X63697367Y-74800828D02*
X63840224Y-74872257D01*
X63840224Y-74872257D02*
X63911653Y-75015114D01*
X63911653Y-75015114D02*
X63911653Y-75800828D01*
X63911653Y-75015114D02*
X63983081Y-74872257D01*
X63983081Y-74872257D02*
X64125938Y-74800828D01*
X64125938Y-74800828D02*
X64340224Y-74800828D01*
X64340224Y-74800828D02*
X64483081Y-74872257D01*
X64483081Y-74872257D02*
X64554510Y-75015114D01*
X64554510Y-75015114D02*
X64554510Y-75800828D01*
X65268795Y-75800828D02*
X65268795Y-74800828D01*
X65268795Y-74943685D02*
X65340224Y-74872257D01*
X65340224Y-74872257D02*
X65483081Y-74800828D01*
X65483081Y-74800828D02*
X65697367Y-74800828D01*
X65697367Y-74800828D02*
X65840224Y-74872257D01*
X65840224Y-74872257D02*
X65911653Y-75015114D01*
X65911653Y-75015114D02*
X65911653Y-75800828D01*
X65911653Y-75015114D02*
X65983081Y-74872257D01*
X65983081Y-74872257D02*
X66125938Y-74800828D01*
X66125938Y-74800828D02*
X66340224Y-74800828D01*
X66340224Y-74800828D02*
X66483081Y-74872257D01*
X66483081Y-74872257D02*
X66554510Y-75015114D01*
X66554510Y-75015114D02*
X66554510Y-75800828D01*
D10*
X43827693Y-38872419D02*
X43256265Y-38872419D01*
X43541979Y-38872419D02*
X43541979Y-37872419D01*
X43541979Y-37872419D02*
X43446741Y-38015276D01*
X43446741Y-38015276D02*
X43351503Y-38110514D01*
X43351503Y-38110514D02*
X43256265Y-38158133D01*
X93732455Y-37872419D02*
X93541979Y-37872419D01*
X93541979Y-37872419D02*
X93446741Y-37920038D01*
X93446741Y-37920038D02*
X93399122Y-37967657D01*
X93399122Y-37967657D02*
X93303884Y-38110514D01*
X93303884Y-38110514D02*
X93256265Y-38300990D01*
X93256265Y-38300990D02*
X93256265Y-38681942D01*
X93256265Y-38681942D02*
X93303884Y-38777180D01*
X93303884Y-38777180D02*
X93351503Y-38824800D01*
X93351503Y-38824800D02*
X93446741Y-38872419D01*
X93446741Y-38872419D02*
X93637217Y-38872419D01*
X93637217Y-38872419D02*
X93732455Y-38824800D01*
X93732455Y-38824800D02*
X93780074Y-38777180D01*
X93780074Y-38777180D02*
X93827693Y-38681942D01*
X93827693Y-38681942D02*
X93827693Y-38443847D01*
X93827693Y-38443847D02*
X93780074Y-38348609D01*
X93780074Y-38348609D02*
X93732455Y-38300990D01*
X93732455Y-38300990D02*
X93637217Y-38253371D01*
X93637217Y-38253371D02*
X93446741Y-38253371D01*
X93446741Y-38253371D02*
X93351503Y-38300990D01*
X93351503Y-38300990D02*
X93303884Y-38348609D01*
X93303884Y-38348609D02*
X93256265Y-38443847D01*
D11*
X58840225Y-71300828D02*
X58983082Y-71300828D01*
X58983082Y-71300828D02*
X59125939Y-71372257D01*
X59125939Y-71372257D02*
X59197368Y-71443685D01*
X59197368Y-71443685D02*
X59268796Y-71586542D01*
X59268796Y-71586542D02*
X59340225Y-71872257D01*
X59340225Y-71872257D02*
X59340225Y-72229400D01*
X59340225Y-72229400D02*
X59268796Y-72515114D01*
X59268796Y-72515114D02*
X59197368Y-72657971D01*
X59197368Y-72657971D02*
X59125939Y-72729400D01*
X59125939Y-72729400D02*
X58983082Y-72800828D01*
X58983082Y-72800828D02*
X58840225Y-72800828D01*
X58840225Y-72800828D02*
X58697368Y-72729400D01*
X58697368Y-72729400D02*
X58625939Y-72657971D01*
X58625939Y-72657971D02*
X58554510Y-72515114D01*
X58554510Y-72515114D02*
X58483082Y-72229400D01*
X58483082Y-72229400D02*
X58483082Y-71872257D01*
X58483082Y-71872257D02*
X58554510Y-71586542D01*
X58554510Y-71586542D02*
X58625939Y-71443685D01*
X58625939Y-71443685D02*
X58697368Y-71372257D01*
X58697368Y-71372257D02*
X58840225Y-71300828D01*
X60054510Y-72729400D02*
X60054510Y-72800828D01*
X60054510Y-72800828D02*
X59983081Y-72943685D01*
X59983081Y-72943685D02*
X59911653Y-73015114D01*
X61340225Y-71800828D02*
X61340225Y-72800828D01*
X60983082Y-71229400D02*
X60625939Y-72300828D01*
X60625939Y-72300828D02*
X61554510Y-72300828D01*
X63268795Y-72800828D02*
X63268795Y-71800828D01*
X63268795Y-71943685D02*
X63340224Y-71872257D01*
X63340224Y-71872257D02*
X63483081Y-71800828D01*
X63483081Y-71800828D02*
X63697367Y-71800828D01*
X63697367Y-71800828D02*
X63840224Y-71872257D01*
X63840224Y-71872257D02*
X63911653Y-72015114D01*
X63911653Y-72015114D02*
X63911653Y-72800828D01*
X63911653Y-72015114D02*
X63983081Y-71872257D01*
X63983081Y-71872257D02*
X64125938Y-71800828D01*
X64125938Y-71800828D02*
X64340224Y-71800828D01*
X64340224Y-71800828D02*
X64483081Y-71872257D01*
X64483081Y-71872257D02*
X64554510Y-72015114D01*
X64554510Y-72015114D02*
X64554510Y-72800828D01*
X65268795Y-72800828D02*
X65268795Y-71800828D01*
X65268795Y-71943685D02*
X65340224Y-71872257D01*
X65340224Y-71872257D02*
X65483081Y-71800828D01*
X65483081Y-71800828D02*
X65697367Y-71800828D01*
X65697367Y-71800828D02*
X65840224Y-71872257D01*
X65840224Y-71872257D02*
X65911653Y-72015114D01*
X65911653Y-72015114D02*
X65911653Y-72800828D01*
X65911653Y-72015114D02*
X65983081Y-71872257D01*
X65983081Y-71872257D02*
X66125938Y-71800828D01*
X66125938Y-71800828D02*
X66340224Y-71800828D01*
X66340224Y-71800828D02*
X66483081Y-71872257D01*
X66483081Y-71872257D02*
X66554510Y-72015114D01*
X66554510Y-72015114D02*
X66554510Y-72800828D01*
D12*
X78389819Y-49643094D02*
X77389819Y-49643094D01*
X77389819Y-49643094D02*
X77389819Y-49404999D01*
X77389819Y-49404999D02*
X77437438Y-49262142D01*
X77437438Y-49262142D02*
X77532676Y-49166904D01*
X77532676Y-49166904D02*
X77627914Y-49119285D01*
X77627914Y-49119285D02*
X77818390Y-49071666D01*
X77818390Y-49071666D02*
X77961247Y-49071666D01*
X77961247Y-49071666D02*
X78151723Y-49119285D01*
X78151723Y-49119285D02*
X78246961Y-49166904D01*
X78246961Y-49166904D02*
X78342200Y-49262142D01*
X78342200Y-49262142D02*
X78389819Y-49404999D01*
X78389819Y-49404999D02*
X78389819Y-49643094D01*
X78389819Y-48119285D02*
X78389819Y-48690713D01*
X78389819Y-48404999D02*
X77389819Y-48404999D01*
X77389819Y-48404999D02*
X77532676Y-48500237D01*
X77532676Y-48500237D02*
X77627914Y-48595475D01*
X77627914Y-48595475D02*
X77675533Y-48690713D01*
X88673095Y-53711819D02*
X89244523Y-53711819D01*
X88958809Y-54711819D02*
X88958809Y-53711819D01*
X89577857Y-54711819D02*
X89577857Y-53711819D01*
X89577857Y-53711819D02*
X89958809Y-53711819D01*
X89958809Y-53711819D02*
X90054047Y-53759438D01*
X90054047Y-53759438D02*
X90101666Y-53807057D01*
X90101666Y-53807057D02*
X90149285Y-53902295D01*
X90149285Y-53902295D02*
X90149285Y-54045152D01*
X90149285Y-54045152D02*
X90101666Y-54140390D01*
X90101666Y-54140390D02*
X90054047Y-54188009D01*
X90054047Y-54188009D02*
X89958809Y-54235628D01*
X89958809Y-54235628D02*
X89577857Y-54235628D01*
X90530238Y-53807057D02*
X90577857Y-53759438D01*
X90577857Y-53759438D02*
X90673095Y-53711819D01*
X90673095Y-53711819D02*
X90911190Y-53711819D01*
X90911190Y-53711819D02*
X91006428Y-53759438D01*
X91006428Y-53759438D02*
X91054047Y-53807057D01*
X91054047Y-53807057D02*
X91101666Y-53902295D01*
X91101666Y-53902295D02*
X91101666Y-53997533D01*
X91101666Y-53997533D02*
X91054047Y-54140390D01*
X91054047Y-54140390D02*
X90482619Y-54711819D01*
X90482619Y-54711819D02*
X91101666Y-54711819D01*
X89498095Y-60454819D02*
X90069523Y-60454819D01*
X89783809Y-61454819D02*
X89783809Y-60454819D01*
X90402857Y-61454819D02*
X90402857Y-60454819D01*
X90402857Y-60454819D02*
X90783809Y-60454819D01*
X90783809Y-60454819D02*
X90879047Y-60502438D01*
X90879047Y-60502438D02*
X90926666Y-60550057D01*
X90926666Y-60550057D02*
X90974285Y-60645295D01*
X90974285Y-60645295D02*
X90974285Y-60788152D01*
X90974285Y-60788152D02*
X90926666Y-60883390D01*
X90926666Y-60883390D02*
X90879047Y-60931009D01*
X90879047Y-60931009D02*
X90783809Y-60978628D01*
X90783809Y-60978628D02*
X90402857Y-60978628D01*
X91307619Y-60454819D02*
X91974285Y-60454819D01*
X91974285Y-60454819D02*
X91545714Y-61454819D01*
X77738095Y-59604819D02*
X78309523Y-59604819D01*
X78023809Y-60604819D02*
X78023809Y-59604819D01*
X78642857Y-60604819D02*
X78642857Y-59604819D01*
X78642857Y-59604819D02*
X79023809Y-59604819D01*
X79023809Y-59604819D02*
X79119047Y-59652438D01*
X79119047Y-59652438D02*
X79166666Y-59700057D01*
X79166666Y-59700057D02*
X79214285Y-59795295D01*
X79214285Y-59795295D02*
X79214285Y-59938152D01*
X79214285Y-59938152D02*
X79166666Y-60033390D01*
X79166666Y-60033390D02*
X79119047Y-60081009D01*
X79119047Y-60081009D02*
X79023809Y-60128628D01*
X79023809Y-60128628D02*
X78642857Y-60128628D01*
X80071428Y-59938152D02*
X80071428Y-60604819D01*
X79833333Y-59557200D02*
X79595238Y-60271485D01*
X79595238Y-60271485D02*
X80214285Y-60271485D01*
X77738095Y-66704819D02*
X78309523Y-66704819D01*
X78023809Y-67704819D02*
X78023809Y-66704819D01*
X78642857Y-67704819D02*
X78642857Y-66704819D01*
X78642857Y-66704819D02*
X79023809Y-66704819D01*
X79023809Y-66704819D02*
X79119047Y-66752438D01*
X79119047Y-66752438D02*
X79166666Y-66800057D01*
X79166666Y-66800057D02*
X79214285Y-66895295D01*
X79214285Y-66895295D02*
X79214285Y-67038152D01*
X79214285Y-67038152D02*
X79166666Y-67133390D01*
X79166666Y-67133390D02*
X79119047Y-67181009D01*
X79119047Y-67181009D02*
X79023809Y-67228628D01*
X79023809Y-67228628D02*
X78642857Y-67228628D01*
X80119047Y-66704819D02*
X79642857Y-66704819D01*
X79642857Y-66704819D02*
X79595238Y-67181009D01*
X79595238Y-67181009D02*
X79642857Y-67133390D01*
X79642857Y-67133390D02*
X79738095Y-67085771D01*
X79738095Y-67085771D02*
X79976190Y-67085771D01*
X79976190Y-67085771D02*
X80071428Y-67133390D01*
X80071428Y-67133390D02*
X80119047Y-67181009D01*
X80119047Y-67181009D02*
X80166666Y-67276247D01*
X80166666Y-67276247D02*
X80166666Y-67514342D01*
X80166666Y-67514342D02*
X80119047Y-67609580D01*
X80119047Y-67609580D02*
X80071428Y-67657200D01*
X80071428Y-67657200D02*
X79976190Y-67704819D01*
X79976190Y-67704819D02*
X79738095Y-67704819D01*
X79738095Y-67704819D02*
X79642857Y-67657200D01*
X79642857Y-67657200D02*
X79595238Y-67609580D01*
D11*
X59935225Y-59705828D02*
X59078082Y-59705828D01*
X59506653Y-59705828D02*
X59506653Y-58205828D01*
X59506653Y-58205828D02*
X59363796Y-58420114D01*
X59363796Y-58420114D02*
X59220939Y-58562971D01*
X59220939Y-58562971D02*
X59078082Y-58634400D01*
X60506653Y-59634400D02*
X60649510Y-59705828D01*
X60649510Y-59705828D02*
X60935224Y-59705828D01*
X60935224Y-59705828D02*
X61078081Y-59634400D01*
X61078081Y-59634400D02*
X61149510Y-59491542D01*
X61149510Y-59491542D02*
X61149510Y-59420114D01*
X61149510Y-59420114D02*
X61078081Y-59277257D01*
X61078081Y-59277257D02*
X60935224Y-59205828D01*
X60935224Y-59205828D02*
X60720939Y-59205828D01*
X60720939Y-59205828D02*
X60578081Y-59134400D01*
X60578081Y-59134400D02*
X60506653Y-58991542D01*
X60506653Y-58991542D02*
X60506653Y-58920114D01*
X60506653Y-58920114D02*
X60578081Y-58777257D01*
X60578081Y-58777257D02*
X60720939Y-58705828D01*
X60720939Y-58705828D02*
X60935224Y-58705828D01*
X60935224Y-58705828D02*
X61078081Y-58777257D01*
X61578082Y-58705828D02*
X62149510Y-58705828D01*
X61792367Y-58205828D02*
X61792367Y-59491542D01*
X61792367Y-59491542D02*
X61863796Y-59634400D01*
X61863796Y-59634400D02*
X62006653Y-59705828D01*
X62006653Y-59705828D02*
X62149510Y-59705828D01*
X63792367Y-59705828D02*
X63792367Y-58705828D01*
X63792367Y-58848685D02*
X63863796Y-58777257D01*
X63863796Y-58777257D02*
X64006653Y-58705828D01*
X64006653Y-58705828D02*
X64220939Y-58705828D01*
X64220939Y-58705828D02*
X64363796Y-58777257D01*
X64363796Y-58777257D02*
X64435225Y-58920114D01*
X64435225Y-58920114D02*
X64435225Y-59705828D01*
X64435225Y-58920114D02*
X64506653Y-58777257D01*
X64506653Y-58777257D02*
X64649510Y-58705828D01*
X64649510Y-58705828D02*
X64863796Y-58705828D01*
X64863796Y-58705828D02*
X65006653Y-58777257D01*
X65006653Y-58777257D02*
X65078082Y-58920114D01*
X65078082Y-58920114D02*
X65078082Y-59705828D01*
X66006653Y-59705828D02*
X65863796Y-59634400D01*
X65863796Y-59634400D02*
X65792367Y-59562971D01*
X65792367Y-59562971D02*
X65720939Y-59420114D01*
X65720939Y-59420114D02*
X65720939Y-58991542D01*
X65720939Y-58991542D02*
X65792367Y-58848685D01*
X65792367Y-58848685D02*
X65863796Y-58777257D01*
X65863796Y-58777257D02*
X66006653Y-58705828D01*
X66006653Y-58705828D02*
X66220939Y-58705828D01*
X66220939Y-58705828D02*
X66363796Y-58777257D01*
X66363796Y-58777257D02*
X66435225Y-58848685D01*
X66435225Y-58848685D02*
X66506653Y-58991542D01*
X66506653Y-58991542D02*
X66506653Y-59420114D01*
X66506653Y-59420114D02*
X66435225Y-59562971D01*
X66435225Y-59562971D02*
X66363796Y-59634400D01*
X66363796Y-59634400D02*
X66220939Y-59705828D01*
X66220939Y-59705828D02*
X66006653Y-59705828D01*
X67792368Y-59705828D02*
X67792368Y-58205828D01*
X67792368Y-59634400D02*
X67649510Y-59705828D01*
X67649510Y-59705828D02*
X67363796Y-59705828D01*
X67363796Y-59705828D02*
X67220939Y-59634400D01*
X67220939Y-59634400D02*
X67149510Y-59562971D01*
X67149510Y-59562971D02*
X67078082Y-59420114D01*
X67078082Y-59420114D02*
X67078082Y-58991542D01*
X67078082Y-58991542D02*
X67149510Y-58848685D01*
X67149510Y-58848685D02*
X67220939Y-58777257D01*
X67220939Y-58777257D02*
X67363796Y-58705828D01*
X67363796Y-58705828D02*
X67649510Y-58705828D01*
X67649510Y-58705828D02*
X67792368Y-58777257D01*
X68506653Y-59705828D02*
X68506653Y-58705828D01*
X68506653Y-58205828D02*
X68435225Y-58277257D01*
X68435225Y-58277257D02*
X68506653Y-58348685D01*
X68506653Y-58348685D02*
X68578082Y-58277257D01*
X68578082Y-58277257D02*
X68506653Y-58205828D01*
X68506653Y-58205828D02*
X68506653Y-58348685D01*
X69006654Y-58705828D02*
X69578082Y-58705828D01*
X69220939Y-59705828D02*
X69220939Y-58420114D01*
X69220939Y-58420114D02*
X69292368Y-58277257D01*
X69292368Y-58277257D02*
X69435225Y-58205828D01*
X69435225Y-58205828D02*
X69578082Y-58205828D01*
X70078082Y-59705828D02*
X70078082Y-58705828D01*
X70078082Y-58205828D02*
X70006654Y-58277257D01*
X70006654Y-58277257D02*
X70078082Y-58348685D01*
X70078082Y-58348685D02*
X70149511Y-58277257D01*
X70149511Y-58277257D02*
X70078082Y-58205828D01*
X70078082Y-58205828D02*
X70078082Y-58348685D01*
X71363797Y-59634400D02*
X71220940Y-59705828D01*
X71220940Y-59705828D02*
X70935226Y-59705828D01*
X70935226Y-59705828D02*
X70792368Y-59634400D01*
X70792368Y-59634400D02*
X70720940Y-59491542D01*
X70720940Y-59491542D02*
X70720940Y-58920114D01*
X70720940Y-58920114D02*
X70792368Y-58777257D01*
X70792368Y-58777257D02*
X70935226Y-58705828D01*
X70935226Y-58705828D02*
X71220940Y-58705828D01*
X71220940Y-58705828D02*
X71363797Y-58777257D01*
X71363797Y-58777257D02*
X71435226Y-58920114D01*
X71435226Y-58920114D02*
X71435226Y-59062971D01*
X71435226Y-59062971D02*
X70720940Y-59205828D01*
X72720940Y-59705828D02*
X72720940Y-58205828D01*
X72720940Y-59634400D02*
X72578082Y-59705828D01*
X72578082Y-59705828D02*
X72292368Y-59705828D01*
X72292368Y-59705828D02*
X72149511Y-59634400D01*
X72149511Y-59634400D02*
X72078082Y-59562971D01*
X72078082Y-59562971D02*
X72006654Y-59420114D01*
X72006654Y-59420114D02*
X72006654Y-58991542D01*
X72006654Y-58991542D02*
X72078082Y-58848685D01*
X72078082Y-58848685D02*
X72149511Y-58777257D01*
X72149511Y-58777257D02*
X72292368Y-58705828D01*
X72292368Y-58705828D02*
X72578082Y-58705828D01*
X72578082Y-58705828D02*
X72720940Y-58777257D01*
D12*
X32738095Y-40056819D02*
X33309523Y-40056819D01*
X33023809Y-41056819D02*
X33023809Y-40056819D01*
X33642857Y-41056819D02*
X33642857Y-40056819D01*
X33642857Y-40056819D02*
X34023809Y-40056819D01*
X34023809Y-40056819D02*
X34119047Y-40104438D01*
X34119047Y-40104438D02*
X34166666Y-40152057D01*
X34166666Y-40152057D02*
X34214285Y-40247295D01*
X34214285Y-40247295D02*
X34214285Y-40390152D01*
X34214285Y-40390152D02*
X34166666Y-40485390D01*
X34166666Y-40485390D02*
X34119047Y-40533009D01*
X34119047Y-40533009D02*
X34023809Y-40580628D01*
X34023809Y-40580628D02*
X33642857Y-40580628D01*
X35166666Y-41056819D02*
X34595238Y-41056819D01*
X34880952Y-41056819D02*
X34880952Y-40056819D01*
X34880952Y-40056819D02*
X34785714Y-40199676D01*
X34785714Y-40199676D02*
X34690476Y-40294914D01*
X34690476Y-40294914D02*
X34595238Y-40342533D01*
X38645180Y-64666666D02*
X37930895Y-64666666D01*
X37930895Y-64666666D02*
X37788038Y-64619047D01*
X37788038Y-64619047D02*
X37692800Y-64523809D01*
X37692800Y-64523809D02*
X37645180Y-64380952D01*
X37645180Y-64380952D02*
X37645180Y-64285714D01*
X37645180Y-65666666D02*
X37645180Y-65095238D01*
X37645180Y-65380952D02*
X38645180Y-65380952D01*
X38645180Y-65380952D02*
X38502323Y-65285714D01*
X38502323Y-65285714D02*
X38407085Y-65190476D01*
X38407085Y-65190476D02*
X38359466Y-65095238D01*
X89738095Y-67056819D02*
X90309523Y-67056819D01*
X90023809Y-68056819D02*
X90023809Y-67056819D01*
X90642857Y-68056819D02*
X90642857Y-67056819D01*
X90642857Y-67056819D02*
X91023809Y-67056819D01*
X91023809Y-67056819D02*
X91119047Y-67104438D01*
X91119047Y-67104438D02*
X91166666Y-67152057D01*
X91166666Y-67152057D02*
X91214285Y-67247295D01*
X91214285Y-67247295D02*
X91214285Y-67390152D01*
X91214285Y-67390152D02*
X91166666Y-67485390D01*
X91166666Y-67485390D02*
X91119047Y-67533009D01*
X91119047Y-67533009D02*
X91023809Y-67580628D01*
X91023809Y-67580628D02*
X90642857Y-67580628D01*
X92071428Y-67056819D02*
X91880952Y-67056819D01*
X91880952Y-67056819D02*
X91785714Y-67104438D01*
X91785714Y-67104438D02*
X91738095Y-67152057D01*
X91738095Y-67152057D02*
X91642857Y-67294914D01*
X91642857Y-67294914D02*
X91595238Y-67485390D01*
X91595238Y-67485390D02*
X91595238Y-67866342D01*
X91595238Y-67866342D02*
X91642857Y-67961580D01*
X91642857Y-67961580D02*
X91690476Y-68009200D01*
X91690476Y-68009200D02*
X91785714Y-68056819D01*
X91785714Y-68056819D02*
X91976190Y-68056819D01*
X91976190Y-68056819D02*
X92071428Y-68009200D01*
X92071428Y-68009200D02*
X92119047Y-67961580D01*
X92119047Y-67961580D02*
X92166666Y-67866342D01*
X92166666Y-67866342D02*
X92166666Y-67628247D01*
X92166666Y-67628247D02*
X92119047Y-67533009D01*
X92119047Y-67533009D02*
X92071428Y-67485390D01*
X92071428Y-67485390D02*
X91976190Y-67437771D01*
X91976190Y-67437771D02*
X91785714Y-67437771D01*
X91785714Y-67437771D02*
X91690476Y-67485390D01*
X91690476Y-67485390D02*
X91642857Y-67533009D01*
X91642857Y-67533009D02*
X91595238Y-67628247D01*
D11*
X44308796Y-59650828D02*
X44165939Y-59579400D01*
X44165939Y-59579400D02*
X44094510Y-59507971D01*
X44094510Y-59507971D02*
X44023082Y-59365114D01*
X44023082Y-59365114D02*
X44023082Y-58936542D01*
X44023082Y-58936542D02*
X44094510Y-58793685D01*
X44094510Y-58793685D02*
X44165939Y-58722257D01*
X44165939Y-58722257D02*
X44308796Y-58650828D01*
X44308796Y-58650828D02*
X44523082Y-58650828D01*
X44523082Y-58650828D02*
X44665939Y-58722257D01*
X44665939Y-58722257D02*
X44737368Y-58793685D01*
X44737368Y-58793685D02*
X44808796Y-58936542D01*
X44808796Y-58936542D02*
X44808796Y-59365114D01*
X44808796Y-59365114D02*
X44737368Y-59507971D01*
X44737368Y-59507971D02*
X44665939Y-59579400D01*
X44665939Y-59579400D02*
X44523082Y-59650828D01*
X44523082Y-59650828D02*
X44308796Y-59650828D01*
X45451653Y-59650828D02*
X45451653Y-58650828D01*
X45451653Y-58936542D02*
X45523082Y-58793685D01*
X45523082Y-58793685D02*
X45594511Y-58722257D01*
X45594511Y-58722257D02*
X45737368Y-58650828D01*
X45737368Y-58650828D02*
X45880225Y-58650828D01*
X46380224Y-59650828D02*
X46380224Y-58650828D01*
X46380224Y-58150828D02*
X46308796Y-58222257D01*
X46308796Y-58222257D02*
X46380224Y-58293685D01*
X46380224Y-58293685D02*
X46451653Y-58222257D01*
X46451653Y-58222257D02*
X46380224Y-58150828D01*
X46380224Y-58150828D02*
X46380224Y-58293685D01*
X47737368Y-58650828D02*
X47737368Y-59865114D01*
X47737368Y-59865114D02*
X47665939Y-60007971D01*
X47665939Y-60007971D02*
X47594510Y-60079400D01*
X47594510Y-60079400D02*
X47451653Y-60150828D01*
X47451653Y-60150828D02*
X47237368Y-60150828D01*
X47237368Y-60150828D02*
X47094510Y-60079400D01*
X47737368Y-59579400D02*
X47594510Y-59650828D01*
X47594510Y-59650828D02*
X47308796Y-59650828D01*
X47308796Y-59650828D02*
X47165939Y-59579400D01*
X47165939Y-59579400D02*
X47094510Y-59507971D01*
X47094510Y-59507971D02*
X47023082Y-59365114D01*
X47023082Y-59365114D02*
X47023082Y-58936542D01*
X47023082Y-58936542D02*
X47094510Y-58793685D01*
X47094510Y-58793685D02*
X47165939Y-58722257D01*
X47165939Y-58722257D02*
X47308796Y-58650828D01*
X47308796Y-58650828D02*
X47594510Y-58650828D01*
X47594510Y-58650828D02*
X47737368Y-58722257D01*
X48451653Y-59650828D02*
X48451653Y-58650828D01*
X48451653Y-58150828D02*
X48380225Y-58222257D01*
X48380225Y-58222257D02*
X48451653Y-58293685D01*
X48451653Y-58293685D02*
X48523082Y-58222257D01*
X48523082Y-58222257D02*
X48451653Y-58150828D01*
X48451653Y-58150828D02*
X48451653Y-58293685D01*
X49165939Y-58650828D02*
X49165939Y-59650828D01*
X49165939Y-58793685D02*
X49237368Y-58722257D01*
X49237368Y-58722257D02*
X49380225Y-58650828D01*
X49380225Y-58650828D02*
X49594511Y-58650828D01*
X49594511Y-58650828D02*
X49737368Y-58722257D01*
X49737368Y-58722257D02*
X49808797Y-58865114D01*
X49808797Y-58865114D02*
X49808797Y-59650828D01*
X51165940Y-59650828D02*
X51165940Y-58865114D01*
X51165940Y-58865114D02*
X51094511Y-58722257D01*
X51094511Y-58722257D02*
X50951654Y-58650828D01*
X50951654Y-58650828D02*
X50665940Y-58650828D01*
X50665940Y-58650828D02*
X50523082Y-58722257D01*
X51165940Y-59579400D02*
X51023082Y-59650828D01*
X51023082Y-59650828D02*
X50665940Y-59650828D01*
X50665940Y-59650828D02*
X50523082Y-59579400D01*
X50523082Y-59579400D02*
X50451654Y-59436542D01*
X50451654Y-59436542D02*
X50451654Y-59293685D01*
X50451654Y-59293685D02*
X50523082Y-59150828D01*
X50523082Y-59150828D02*
X50665940Y-59079400D01*
X50665940Y-59079400D02*
X51023082Y-59079400D01*
X51023082Y-59079400D02*
X51165940Y-59007971D01*
X52094511Y-59650828D02*
X51951654Y-59579400D01*
X51951654Y-59579400D02*
X51880225Y-59436542D01*
X51880225Y-59436542D02*
X51880225Y-58150828D01*
D12*
X78673095Y-53711819D02*
X79244523Y-53711819D01*
X78958809Y-54711819D02*
X78958809Y-53711819D01*
X79577857Y-54711819D02*
X79577857Y-53711819D01*
X79577857Y-53711819D02*
X79958809Y-53711819D01*
X79958809Y-53711819D02*
X80054047Y-53759438D01*
X80054047Y-53759438D02*
X80101666Y-53807057D01*
X80101666Y-53807057D02*
X80149285Y-53902295D01*
X80149285Y-53902295D02*
X80149285Y-54045152D01*
X80149285Y-54045152D02*
X80101666Y-54140390D01*
X80101666Y-54140390D02*
X80054047Y-54188009D01*
X80054047Y-54188009D02*
X79958809Y-54235628D01*
X79958809Y-54235628D02*
X79577857Y-54235628D01*
X80482619Y-53711819D02*
X81101666Y-53711819D01*
X81101666Y-53711819D02*
X80768333Y-54092771D01*
X80768333Y-54092771D02*
X80911190Y-54092771D01*
X80911190Y-54092771D02*
X81006428Y-54140390D01*
X81006428Y-54140390D02*
X81054047Y-54188009D01*
X81054047Y-54188009D02*
X81101666Y-54283247D01*
X81101666Y-54283247D02*
X81101666Y-54521342D01*
X81101666Y-54521342D02*
X81054047Y-54616580D01*
X81054047Y-54616580D02*
X81006428Y-54664200D01*
X81006428Y-54664200D02*
X80911190Y-54711819D01*
X80911190Y-54711819D02*
X80625476Y-54711819D01*
X80625476Y-54711819D02*
X80530238Y-54664200D01*
X80530238Y-54664200D02*
X80482619Y-54616580D01*
X88389819Y-49643094D02*
X87389819Y-49643094D01*
X87389819Y-49643094D02*
X87389819Y-49404999D01*
X87389819Y-49404999D02*
X87437438Y-49262142D01*
X87437438Y-49262142D02*
X87532676Y-49166904D01*
X87532676Y-49166904D02*
X87627914Y-49119285D01*
X87627914Y-49119285D02*
X87818390Y-49071666D01*
X87818390Y-49071666D02*
X87961247Y-49071666D01*
X87961247Y-49071666D02*
X88151723Y-49119285D01*
X88151723Y-49119285D02*
X88246961Y-49166904D01*
X88246961Y-49166904D02*
X88342200Y-49262142D01*
X88342200Y-49262142D02*
X88389819Y-49404999D01*
X88389819Y-49404999D02*
X88389819Y-49643094D01*
X87485057Y-48690713D02*
X87437438Y-48643094D01*
X87437438Y-48643094D02*
X87389819Y-48547856D01*
X87389819Y-48547856D02*
X87389819Y-48309761D01*
X87389819Y-48309761D02*
X87437438Y-48214523D01*
X87437438Y-48214523D02*
X87485057Y-48166904D01*
X87485057Y-48166904D02*
X87580295Y-48119285D01*
X87580295Y-48119285D02*
X87675533Y-48119285D01*
X87675533Y-48119285D02*
X87818390Y-48166904D01*
X87818390Y-48166904D02*
X88389819Y-48738332D01*
X88389819Y-48738332D02*
X88389819Y-48119285D01*
D13*
%TO.C,G\u002A\u002A\u002A*%
G36*
X114175237Y-47366467D02*
G01*
X114291452Y-47401383D01*
X114389000Y-47458702D01*
X114468275Y-47538784D01*
X114529670Y-47641989D01*
X114558851Y-47717507D01*
X114573821Y-47808323D01*
X114565282Y-47906097D01*
X114535477Y-48003784D01*
X114486652Y-48094344D01*
X114421052Y-48170734D01*
X114411737Y-48178977D01*
X114327344Y-48234490D01*
X114229059Y-48272041D01*
X114125114Y-48289972D01*
X114023742Y-48286627D01*
X113957651Y-48270359D01*
X113854138Y-48219277D01*
X113768574Y-48148637D01*
X113702901Y-48062449D01*
X113659061Y-47964721D01*
X113638996Y-47859464D01*
X113644648Y-47750687D01*
X113666731Y-47669743D01*
X113717710Y-47571139D01*
X113788634Y-47488176D01*
X113874920Y-47423590D01*
X113971984Y-47380113D01*
X114075242Y-47360480D01*
X114175237Y-47366467D01*
G37*
G36*
X106352567Y-45988556D02*
G01*
X106352451Y-46185742D01*
X106352116Y-46374462D01*
X106351576Y-46552672D01*
X106350849Y-46718328D01*
X106349951Y-46869385D01*
X106348898Y-47003798D01*
X106347708Y-47119524D01*
X106346395Y-47214518D01*
X106344978Y-47286736D01*
X106343472Y-47334133D01*
X106341893Y-47354665D01*
X106341575Y-47355366D01*
X106325635Y-47355985D01*
X106282448Y-47356499D01*
X106214078Y-47356908D01*
X106122591Y-47357210D01*
X106010050Y-47357404D01*
X105878522Y-47357489D01*
X105730072Y-47357464D01*
X105566765Y-47357327D01*
X105390666Y-47357078D01*
X105203839Y-47356715D01*
X105008351Y-47356237D01*
X104978429Y-47356155D01*
X103626276Y-47352414D01*
X103630016Y-45993085D01*
X103633756Y-44633756D01*
X104993161Y-44630016D01*
X106352567Y-44626276D01*
X106352567Y-45988556D01*
G37*
G36*
X125006837Y-44630016D02*
G01*
X126366243Y-44633756D01*
X126369983Y-45993011D01*
X126373723Y-47352266D01*
X125016682Y-47356080D01*
X124819842Y-47356569D01*
X124631441Y-47356911D01*
X124453533Y-47357109D01*
X124288167Y-47357167D01*
X124137396Y-47357089D01*
X124003271Y-47356878D01*
X123887843Y-47356536D01*
X123793165Y-47356069D01*
X123721287Y-47355479D01*
X123674261Y-47354769D01*
X123654138Y-47353944D01*
X123653536Y-47353788D01*
X123652652Y-47338573D01*
X123651806Y-47296092D01*
X123651008Y-47228396D01*
X123650267Y-47137533D01*
X123649591Y-47025551D01*
X123648991Y-46894500D01*
X123648475Y-46746427D01*
X123648052Y-46583383D01*
X123647731Y-46407415D01*
X123647522Y-46220572D01*
X123647434Y-46024903D01*
X123647431Y-45986978D01*
X123647431Y-44626276D01*
X125006837Y-44630016D01*
G37*
G36*
X126020589Y-68291419D02*
G01*
X126117907Y-68323154D01*
X126206698Y-68375969D01*
X126283239Y-68448574D01*
X126343807Y-68539682D01*
X126384678Y-68648003D01*
X126389179Y-68667022D01*
X126397988Y-68770909D01*
X126381026Y-68871047D01*
X126341693Y-68964312D01*
X126283387Y-69047584D01*
X126209505Y-69117739D01*
X126123447Y-69171656D01*
X126028610Y-69206211D01*
X125928394Y-69218282D01*
X125826196Y-69204748D01*
X125809289Y-69199809D01*
X125720216Y-69164510D01*
X125646881Y-69117232D01*
X125588354Y-69062918D01*
X125522909Y-68974695D01*
X125481955Y-68875606D01*
X125465257Y-68770527D01*
X125472575Y-68664332D01*
X125503675Y-68561895D01*
X125558318Y-68468093D01*
X125620527Y-68401038D01*
X125714714Y-68335572D01*
X125815270Y-68296339D01*
X125918469Y-68282051D01*
X126020589Y-68291419D01*
G37*
G36*
X110526968Y-60097772D02*
G01*
X110561287Y-60104392D01*
X110676086Y-60145192D01*
X110771138Y-60207590D01*
X110846018Y-60291142D01*
X110900301Y-60395402D01*
X110927429Y-60487801D01*
X110933972Y-60583814D01*
X110916000Y-60684166D01*
X110875944Y-60781661D01*
X110816238Y-60869102D01*
X110788638Y-60898454D01*
X110706977Y-60958722D01*
X110609611Y-61000352D01*
X110504304Y-61021768D01*
X110398821Y-61021397D01*
X110300926Y-60997662D01*
X110300436Y-60997469D01*
X110202336Y-60944036D01*
X110120119Y-60869737D01*
X110057116Y-60779374D01*
X110016660Y-60677745D01*
X110002081Y-60569651D01*
X110002077Y-60567669D01*
X110014956Y-60450027D01*
X110053842Y-60345648D01*
X110119103Y-60253580D01*
X110127721Y-60244359D01*
X110215890Y-60171032D01*
X110315171Y-60121077D01*
X110420539Y-60096117D01*
X110526968Y-60097772D01*
G37*
G36*
X114184408Y-52826259D02*
G01*
X114291485Y-52858937D01*
X114392093Y-52918331D01*
X114396057Y-52921369D01*
X114462570Y-52988614D01*
X114517588Y-53074535D01*
X114556399Y-53169575D01*
X114574293Y-53264178D01*
X114574956Y-53284365D01*
X114561800Y-53381331D01*
X114525282Y-53478239D01*
X114469824Y-53568099D01*
X114399851Y-53643920D01*
X114319787Y-53698714D01*
X114309684Y-53703556D01*
X114205156Y-53741573D01*
X114108383Y-53754749D01*
X114012419Y-53743607D01*
X113963837Y-53729512D01*
X113859502Y-53680179D01*
X113774076Y-53612189D01*
X113708526Y-53529502D01*
X113663819Y-53436079D01*
X113640925Y-53335879D01*
X113640811Y-53232864D01*
X113664446Y-53130994D01*
X113712796Y-53034229D01*
X113775212Y-52957785D01*
X113866265Y-52886059D01*
X113967608Y-52840065D01*
X114075053Y-52820050D01*
X114184408Y-52826259D01*
G37*
G36*
X115086533Y-46455350D02*
G01*
X115098932Y-46457889D01*
X115177147Y-46479115D01*
X115238523Y-46506686D01*
X115295535Y-46546882D01*
X115323001Y-46570681D01*
X115402314Y-46659996D01*
X115454379Y-46758849D01*
X115478880Y-46865198D01*
X115475498Y-46977002D01*
X115443917Y-47092219D01*
X115414155Y-47156791D01*
X115355428Y-47238005D01*
X115276692Y-47302752D01*
X115183339Y-47349192D01*
X115080766Y-47375483D01*
X114974366Y-47379786D01*
X114869532Y-47360259D01*
X114844002Y-47351362D01*
X114747108Y-47299495D01*
X114666880Y-47227385D01*
X114605458Y-47139687D01*
X114564982Y-47041056D01*
X114547591Y-46936147D01*
X114555424Y-46829616D01*
X114574130Y-46764144D01*
X114625569Y-46664256D01*
X114696492Y-46580295D01*
X114782473Y-46514843D01*
X114879089Y-46470480D01*
X114981917Y-46449789D01*
X115086533Y-46455350D01*
G37*
G36*
X115139745Y-58293923D02*
G01*
X115207267Y-58319716D01*
X115303584Y-58381318D01*
X115379217Y-58458785D01*
X115433829Y-58548083D01*
X115467086Y-58645179D01*
X115478656Y-58746040D01*
X115468203Y-58846632D01*
X115435394Y-58942923D01*
X115379894Y-59030879D01*
X115301369Y-59106466D01*
X115274031Y-59125634D01*
X115174196Y-59176826D01*
X115070544Y-59204908D01*
X114969113Y-59208827D01*
X114890074Y-59192681D01*
X114813453Y-59162743D01*
X114753412Y-59127896D01*
X114697345Y-59080522D01*
X114686038Y-59069413D01*
X114612958Y-58978277D01*
X114565819Y-58878245D01*
X114546149Y-58772766D01*
X114545643Y-58752799D01*
X114559461Y-58635311D01*
X114599661Y-58528537D01*
X114664362Y-58435423D01*
X114751680Y-58358910D01*
X114824119Y-58317340D01*
X114925243Y-58284773D01*
X115033283Y-58276985D01*
X115139745Y-58293923D01*
G37*
G36*
X116034647Y-52832810D02*
G01*
X116135313Y-52870339D01*
X116222834Y-52928503D01*
X116294676Y-53003714D01*
X116348308Y-53092386D01*
X116381196Y-53190932D01*
X116390807Y-53295763D01*
X116374610Y-53403293D01*
X116362281Y-53441152D01*
X116309737Y-53541037D01*
X116234180Y-53626389D01*
X116139834Y-53693509D01*
X116030923Y-53738697D01*
X116018637Y-53742065D01*
X115945266Y-53754674D01*
X115872890Y-53751306D01*
X115803342Y-53735980D01*
X115701416Y-53693293D01*
X115610846Y-53626753D01*
X115536820Y-53541165D01*
X115484525Y-53441332D01*
X115484158Y-53440353D01*
X115458380Y-53333014D01*
X115459289Y-53227048D01*
X115484346Y-53126046D01*
X115531008Y-53033600D01*
X115596734Y-52953303D01*
X115678982Y-52888747D01*
X115775213Y-52843524D01*
X115882884Y-52821227D01*
X115923369Y-52819503D01*
X116034647Y-52832810D01*
G37*
G36*
X123276514Y-53734253D02*
G01*
X123380244Y-53767053D01*
X123478003Y-53826897D01*
X123530142Y-53873502D01*
X123595653Y-53950668D01*
X123637049Y-54028295D01*
X123657303Y-54114464D01*
X123659386Y-54217255D01*
X123659014Y-54223864D01*
X123644970Y-54325670D01*
X123613705Y-54411279D01*
X123561229Y-54490650D01*
X123543924Y-54511146D01*
X123466047Y-54579087D01*
X123371735Y-54628353D01*
X123268392Y-54656679D01*
X123163426Y-54661804D01*
X123090478Y-54649714D01*
X122980194Y-54606135D01*
X122887779Y-54541500D01*
X122815583Y-54458791D01*
X122765955Y-54360988D01*
X122741244Y-54251074D01*
X122738861Y-54203505D01*
X122745747Y-54100539D01*
X122768927Y-54015506D01*
X122811710Y-53940055D01*
X122869650Y-53873502D01*
X122963380Y-53798123D01*
X123064693Y-53749788D01*
X123170200Y-53728498D01*
X123276514Y-53734253D01*
G37*
G36*
X125134620Y-52833787D02*
G01*
X125231396Y-52871829D01*
X125321394Y-52934579D01*
X125358114Y-52970597D01*
X125409893Y-53032275D01*
X125444178Y-53089681D01*
X125467458Y-53155399D01*
X125479077Y-53205185D01*
X125487032Y-53304450D01*
X125469249Y-53405677D01*
X125427518Y-53508366D01*
X125368789Y-53594390D01*
X125290560Y-53664389D01*
X125198462Y-53715922D01*
X125098123Y-53746545D01*
X124995172Y-53753817D01*
X124900576Y-53737027D01*
X124811503Y-53701728D01*
X124738168Y-53654451D01*
X124679641Y-53600137D01*
X124613827Y-53514126D01*
X124573866Y-53418806D01*
X124558371Y-53310261D01*
X124558853Y-53259203D01*
X124577116Y-53147505D01*
X124618099Y-53049864D01*
X124678114Y-52967612D01*
X124753474Y-52902081D01*
X124840492Y-52854601D01*
X124935480Y-52826505D01*
X125034752Y-52819123D01*
X125134620Y-52833787D01*
G37*
G36*
X112409795Y-63752367D02*
G01*
X112512219Y-63791738D01*
X112600530Y-63854471D01*
X112671872Y-63938204D01*
X112723388Y-64040577D01*
X112743224Y-64108306D01*
X112753015Y-64216270D01*
X112735877Y-64322649D01*
X112694048Y-64422922D01*
X112629764Y-64512570D01*
X112545263Y-64587073D01*
X112489638Y-64620653D01*
X112424086Y-64643561D01*
X112341928Y-64656586D01*
X112254303Y-64659304D01*
X112172349Y-64651293D01*
X112113565Y-64634946D01*
X112021476Y-64581898D01*
X111939283Y-64506997D01*
X111873787Y-64417539D01*
X111837364Y-64338601D01*
X111827332Y-64293857D01*
X111820954Y-64235827D01*
X111819724Y-64199363D01*
X111831446Y-64088915D01*
X111867316Y-63991516D01*
X111929290Y-63902928D01*
X111980202Y-63851898D01*
X112059546Y-63793175D01*
X112144995Y-63756918D01*
X112244106Y-63740419D01*
X112296114Y-63738718D01*
X112409795Y-63752367D01*
G37*
G36*
X115131553Y-48288566D02*
G01*
X115199910Y-48311298D01*
X115299220Y-48370789D01*
X115377361Y-48448059D01*
X115436729Y-48545924D01*
X115467773Y-48626220D01*
X115484174Y-48723771D01*
X115474564Y-48824023D01*
X115441247Y-48922098D01*
X115386528Y-49013117D01*
X115312712Y-49092203D01*
X115222105Y-49154477D01*
X115216845Y-49157233D01*
X115156961Y-49178297D01*
X115080383Y-49191685D01*
X114998336Y-49196670D01*
X114922044Y-49192525D01*
X114866364Y-49179939D01*
X114760556Y-49126394D01*
X114674014Y-49054053D01*
X114608491Y-48966593D01*
X114565738Y-48867692D01*
X114547508Y-48761027D01*
X114555552Y-48650274D01*
X114577339Y-48573392D01*
X114617429Y-48496046D01*
X114675662Y-48421693D01*
X114744671Y-48357842D01*
X114817086Y-48312005D01*
X114845051Y-48300500D01*
X114937277Y-48280020D01*
X115036510Y-48276155D01*
X115131553Y-48288566D01*
G37*
G36*
X118807280Y-44659560D02*
G01*
X118843753Y-44674595D01*
X118940887Y-44733920D01*
X119016701Y-44809392D01*
X119071194Y-44897036D01*
X119104361Y-44992875D01*
X119116200Y-45092935D01*
X119106706Y-45193240D01*
X119075878Y-45289815D01*
X119023711Y-45378683D01*
X118950203Y-45455870D01*
X118855350Y-45517400D01*
X118844442Y-45522655D01*
X118776903Y-45544628D01*
X118694591Y-45557583D01*
X118610096Y-45560542D01*
X118536005Y-45552524D01*
X118518291Y-45548015D01*
X118423837Y-45505162D01*
X118338133Y-45438863D01*
X118266689Y-45354806D01*
X118215014Y-45258677D01*
X118202157Y-45221689D01*
X118184244Y-45140292D01*
X118183489Y-45065044D01*
X118199970Y-44982015D01*
X118203626Y-44969088D01*
X118247828Y-44865568D01*
X118313017Y-44778607D01*
X118395008Y-44710129D01*
X118489614Y-44662059D01*
X118592652Y-44636325D01*
X118699935Y-44634850D01*
X118807280Y-44659560D01*
G37*
G36*
X127900927Y-60119082D02*
G01*
X127992666Y-60165927D01*
X128072945Y-60231145D01*
X128138505Y-60311166D01*
X128186086Y-60402417D01*
X128212426Y-60501328D01*
X128214266Y-60604327D01*
X128205763Y-60653036D01*
X128165708Y-60763374D01*
X128104596Y-60857134D01*
X128026111Y-60932315D01*
X127933934Y-60986917D01*
X127831750Y-61018943D01*
X127723242Y-61026391D01*
X127612093Y-61007263D01*
X127575923Y-60994956D01*
X127481394Y-60943598D01*
X127401362Y-60870180D01*
X127339243Y-60779777D01*
X127298450Y-60677468D01*
X127282399Y-60568327D01*
X127282284Y-60558362D01*
X127283489Y-60510933D01*
X127288738Y-60471587D01*
X127300483Y-60430376D01*
X127321178Y-60377349D01*
X127334830Y-60345197D01*
X127377859Y-60276808D01*
X127443033Y-60212564D01*
X127523195Y-60157426D01*
X127611189Y-60116353D01*
X127696117Y-60094797D01*
X127800991Y-60094181D01*
X127900927Y-60119082D01*
G37*
G36*
X127824888Y-63741273D02*
G01*
X127876794Y-63751194D01*
X127929569Y-63771864D01*
X127950724Y-63782120D01*
X128048393Y-63845381D01*
X128123802Y-63923849D01*
X128176943Y-64013649D01*
X128207808Y-64110904D01*
X128216390Y-64211741D01*
X128202680Y-64312285D01*
X128166672Y-64408659D01*
X128108356Y-64496990D01*
X128027725Y-64573402D01*
X127952419Y-64620653D01*
X127888786Y-64642820D01*
X127808037Y-64655755D01*
X127721021Y-64659010D01*
X127638587Y-64652138D01*
X127575418Y-64636217D01*
X127506674Y-64598135D01*
X127437332Y-64540054D01*
X127375177Y-64470062D01*
X127327995Y-64396247D01*
X127313981Y-64364633D01*
X127285833Y-64250771D01*
X127286288Y-64139070D01*
X127314638Y-64032096D01*
X127370176Y-63932418D01*
X127452192Y-63842604D01*
X127459674Y-63836094D01*
X127539575Y-63782757D01*
X127631655Y-63750920D01*
X127741050Y-63738912D01*
X127758896Y-63738718D01*
X127824888Y-63741273D01*
G37*
G36*
X113270820Y-48278492D02*
G01*
X113322726Y-48288413D01*
X113375501Y-48309083D01*
X113396656Y-48319339D01*
X113494325Y-48382600D01*
X113569734Y-48461068D01*
X113622875Y-48550867D01*
X113653740Y-48648123D01*
X113662322Y-48748960D01*
X113648612Y-48849504D01*
X113612604Y-48945878D01*
X113554288Y-49034209D01*
X113473657Y-49110621D01*
X113398351Y-49157872D01*
X113348822Y-49177526D01*
X113287296Y-49189567D01*
X113211886Y-49195481D01*
X113147529Y-49197344D01*
X113101456Y-49194752D01*
X113062748Y-49185799D01*
X113020486Y-49168579D01*
X112998773Y-49158290D01*
X112903021Y-49097340D01*
X112826909Y-49018979D01*
X112771688Y-48927532D01*
X112738613Y-48827327D01*
X112728936Y-48722687D01*
X112743910Y-48617939D01*
X112784790Y-48517410D01*
X112804038Y-48486106D01*
X112879474Y-48395318D01*
X112966805Y-48330784D01*
X113068066Y-48291436D01*
X113185295Y-48276207D01*
X113204828Y-48275937D01*
X113270820Y-48278492D01*
G37*
G36*
X113289001Y-64657418D02*
G01*
X113397187Y-64690318D01*
X113490313Y-64747185D01*
X113566221Y-64826364D01*
X113622748Y-64926202D01*
X113652954Y-65021565D01*
X113662262Y-65127401D01*
X113645065Y-65232515D01*
X113603849Y-65331844D01*
X113541101Y-65420328D01*
X113459306Y-65492908D01*
X113405679Y-65524935D01*
X113367325Y-65540691D01*
X113316324Y-65557123D01*
X113262579Y-65571582D01*
X113215994Y-65581417D01*
X113186473Y-65583979D01*
X113185516Y-65583852D01*
X113165774Y-65580137D01*
X113129183Y-65572851D01*
X113116618Y-65570302D01*
X113002629Y-65533663D01*
X112905413Y-65473182D01*
X112823601Y-65387939D01*
X112803377Y-65359670D01*
X112753729Y-65260925D01*
X112730592Y-65155204D01*
X112733564Y-65047153D01*
X112762245Y-64941419D01*
X112816235Y-64842645D01*
X112851811Y-64798191D01*
X112930586Y-64725893D01*
X113016517Y-64679065D01*
X113116116Y-64654658D01*
X113167916Y-64650140D01*
X113289001Y-64657418D01*
G37*
G36*
X120567737Y-48284290D02*
G01*
X120657952Y-48311164D01*
X120739144Y-48359584D01*
X120779145Y-48393083D01*
X120847216Y-48463662D01*
X120892256Y-48533348D01*
X120917950Y-48610637D01*
X120927980Y-48704028D01*
X120928485Y-48737622D01*
X120927242Y-48805799D01*
X120922437Y-48854517D01*
X120912202Y-48893583D01*
X120894674Y-48932801D01*
X120889446Y-48942815D01*
X120822369Y-49040600D01*
X120737957Y-49116631D01*
X120639436Y-49168924D01*
X120530032Y-49195491D01*
X120474263Y-49198520D01*
X120412531Y-49195323D01*
X120353970Y-49187494D01*
X120315942Y-49178143D01*
X120217136Y-49128628D01*
X120134810Y-49058969D01*
X120070905Y-48973642D01*
X120027367Y-48877123D01*
X120006138Y-48773890D01*
X120009163Y-48668418D01*
X120038386Y-48565183D01*
X120044171Y-48552245D01*
X120106316Y-48450223D01*
X120185939Y-48369982D01*
X120280342Y-48313308D01*
X120386827Y-48281991D01*
X120460660Y-48276080D01*
X120567737Y-48284290D01*
G37*
G36*
X107826095Y-50099191D02*
G01*
X107899898Y-50117860D01*
X107964998Y-50150894D01*
X108033055Y-50203411D01*
X108096280Y-50267621D01*
X108146885Y-50335734D01*
X108174810Y-50392772D01*
X108199246Y-50506693D01*
X108196697Y-50618196D01*
X108169234Y-50723505D01*
X108118927Y-50818843D01*
X108047849Y-50900433D01*
X107958070Y-50964497D01*
X107851662Y-51007260D01*
X107835586Y-51011325D01*
X107780578Y-51023505D01*
X107741210Y-51028445D01*
X107704706Y-51026110D01*
X107658291Y-51016467D01*
X107635025Y-51010786D01*
X107522249Y-50968902D01*
X107427093Y-50903890D01*
X107350977Y-50816919D01*
X107309358Y-50742669D01*
X107290963Y-50698659D01*
X107280622Y-50659834D01*
X107276795Y-50615700D01*
X107277942Y-50555763D01*
X107278915Y-50535307D01*
X107288351Y-50442104D01*
X107308704Y-50367892D01*
X107344139Y-50303139D01*
X107398823Y-50238309D01*
X107416458Y-50220511D01*
X107503163Y-50154873D01*
X107604102Y-50111974D01*
X107713629Y-50093014D01*
X107826095Y-50099191D01*
G37*
G36*
X122371837Y-62832732D02*
G01*
X122468733Y-62859306D01*
X122550044Y-62903468D01*
X122617636Y-62961535D01*
X122683710Y-63041272D01*
X122725894Y-63127333D01*
X122747442Y-63227304D01*
X122750990Y-63272420D01*
X122752429Y-63336375D01*
X122747991Y-63383894D01*
X122735535Y-63427614D01*
X122717476Y-63470285D01*
X122656425Y-63572711D01*
X122575951Y-63653600D01*
X122482227Y-63711132D01*
X122423440Y-63736070D01*
X122370861Y-63748682D01*
X122308708Y-63752379D01*
X122291690Y-63752331D01*
X122229834Y-63748746D01*
X122171041Y-63740428D01*
X122132844Y-63730679D01*
X122042894Y-63684188D01*
X121959857Y-63616318D01*
X121892569Y-63534944D01*
X121870074Y-63496588D01*
X121854256Y-63456130D01*
X121839158Y-63402227D01*
X121832764Y-63372006D01*
X121825966Y-63259772D01*
X121845191Y-63153965D01*
X121887344Y-63057680D01*
X121949333Y-62974009D01*
X122028065Y-62906049D01*
X122120445Y-62856893D01*
X122223381Y-62829637D01*
X122333779Y-62827373D01*
X122371837Y-62832732D01*
G37*
G36*
X104160175Y-56459920D02*
G01*
X104264489Y-56486666D01*
X104360196Y-56536916D01*
X104442825Y-56608864D01*
X104507908Y-56700708D01*
X104515320Y-56714962D01*
X104536950Y-56762584D01*
X104549619Y-56805234D01*
X104555590Y-56854191D01*
X104557124Y-56920733D01*
X104557126Y-56923369D01*
X104555784Y-56989966D01*
X104550271Y-57038253D01*
X104538357Y-57079170D01*
X104517809Y-57123657D01*
X104515277Y-57128562D01*
X104463449Y-57213883D01*
X104406640Y-57276461D01*
X104338872Y-57322851D01*
X104337276Y-57323705D01*
X104222101Y-57371651D01*
X104110470Y-57390665D01*
X104001659Y-57380816D01*
X103939443Y-57361864D01*
X103865822Y-57323619D01*
X103792195Y-57268647D01*
X103729428Y-57205835D01*
X103700412Y-57166339D01*
X103668627Y-57101782D01*
X103643307Y-57026192D01*
X103628702Y-56953581D01*
X103626745Y-56923369D01*
X103634558Y-56857323D01*
X103655164Y-56781440D01*
X103684316Y-56709732D01*
X103700412Y-56680399D01*
X103752524Y-56615295D01*
X103822727Y-56553538D01*
X103900289Y-56503792D01*
X103943604Y-56484158D01*
X104051723Y-56458483D01*
X104160175Y-56459920D01*
G37*
G36*
X120542277Y-43726287D02*
G01*
X120641928Y-43752790D01*
X120733708Y-43800680D01*
X120813522Y-43868965D01*
X120877269Y-43956652D01*
X120913795Y-44039653D01*
X120919892Y-44061417D01*
X120924784Y-44088196D01*
X120928561Y-44123025D01*
X120931315Y-44168936D01*
X120933138Y-44228962D01*
X120934121Y-44306135D01*
X120934358Y-44403489D01*
X120933938Y-44524056D01*
X120932955Y-44670869D01*
X120932942Y-44672496D01*
X120928620Y-45234679D01*
X120892647Y-45305095D01*
X120829837Y-45397519D01*
X120747911Y-45471476D01*
X120651796Y-45525069D01*
X120546415Y-45556402D01*
X120436692Y-45563581D01*
X120327554Y-45544707D01*
X120297274Y-45534306D01*
X120199424Y-45482083D01*
X120119237Y-45407078D01*
X120055573Y-45308211D01*
X120053500Y-45304041D01*
X120005250Y-45206081D01*
X120000395Y-44692740D01*
X119999221Y-44530718D01*
X119999385Y-44394952D01*
X120001420Y-44282398D01*
X120005857Y-44190009D01*
X120013229Y-44114741D01*
X120024069Y-44053547D01*
X120038907Y-44003382D01*
X120058276Y-43961200D01*
X120082709Y-43923956D01*
X120112737Y-43888605D01*
X120146943Y-43853990D01*
X120237090Y-43785022D01*
X120335760Y-43741411D01*
X120438855Y-43722163D01*
X120542277Y-43726287D01*
G37*
G36*
X108177322Y-66003173D02*
G01*
X108177322Y-69183669D01*
X104993128Y-69187366D01*
X101808935Y-69191064D01*
X101811528Y-66957944D01*
X102720341Y-66957944D01*
X102720345Y-67171715D01*
X102720438Y-67371202D01*
X102720620Y-67554804D01*
X102720888Y-67720921D01*
X102721239Y-67867954D01*
X102721672Y-67994303D01*
X102722184Y-68098369D01*
X102722773Y-68178551D01*
X102723436Y-68233251D01*
X102724172Y-68260869D01*
X102724482Y-68263963D01*
X102730774Y-68266491D01*
X102748412Y-68268790D01*
X102778555Y-68270871D01*
X102822361Y-68272742D01*
X102880989Y-68274414D01*
X102955599Y-68275895D01*
X103047349Y-68277194D01*
X103157399Y-68278322D01*
X103286907Y-68279287D01*
X103437033Y-68280098D01*
X103608935Y-68280766D01*
X103803772Y-68281299D01*
X104022704Y-68281707D01*
X104266889Y-68281999D01*
X104537487Y-68282185D01*
X104835655Y-68282274D01*
X104996412Y-68282284D01*
X107261372Y-68282284D01*
X107257662Y-66010451D01*
X107253952Y-63738618D01*
X104989497Y-63738484D01*
X102725042Y-63738349D01*
X102721278Y-65991996D01*
X102720897Y-66246912D01*
X102720615Y-66493942D01*
X102720431Y-66731486D01*
X102720341Y-66957944D01*
X101811528Y-66957944D01*
X101812632Y-66006870D01*
X101816329Y-62822677D01*
X104996826Y-62822677D01*
X108177322Y-62822677D01*
X108177322Y-66003173D01*
G37*
G36*
X105862649Y-64642909D02*
G01*
X105996768Y-64643121D01*
X106112189Y-64643462D01*
X106206860Y-64643929D01*
X106278731Y-64644520D01*
X106325748Y-64645229D01*
X106345862Y-64646055D01*
X106346462Y-64646210D01*
X106347346Y-64661426D01*
X106348192Y-64703906D01*
X106348990Y-64771602D01*
X106349732Y-64862465D01*
X106350407Y-64974446D01*
X106351008Y-65105497D01*
X106351524Y-65253568D01*
X106351947Y-65416611D01*
X106352268Y-65592577D01*
X106352476Y-65779417D01*
X106352565Y-65975083D01*
X106352567Y-66012944D01*
X106352567Y-67373571D01*
X104999268Y-67373571D01*
X104802607Y-67373468D01*
X104614320Y-67373167D01*
X104436469Y-67372684D01*
X104271116Y-67372033D01*
X104120323Y-67371229D01*
X103986151Y-67370287D01*
X103870663Y-67369222D01*
X103775920Y-67368049D01*
X103703983Y-67366781D01*
X103656915Y-67365435D01*
X103636778Y-67364024D01*
X103636198Y-67363800D01*
X103634779Y-67348042D01*
X103633422Y-67305032D01*
X103632141Y-67236833D01*
X103630952Y-67145506D01*
X103629869Y-67033114D01*
X103628907Y-66901718D01*
X103628081Y-66753380D01*
X103627405Y-66590162D01*
X103626895Y-66414126D01*
X103626565Y-66227333D01*
X103626430Y-66031847D01*
X103626427Y-66000881D01*
X103626427Y-64647733D01*
X104983392Y-64643918D01*
X105180227Y-64643429D01*
X105368622Y-64643087D01*
X105546525Y-64642889D01*
X105711884Y-64642831D01*
X105862649Y-64642909D01*
G37*
G36*
X127541230Y-61908589D02*
G01*
X127656234Y-61911068D01*
X127750930Y-61916157D01*
X127828315Y-61924408D01*
X127891386Y-61936370D01*
X127943140Y-61952595D01*
X127986573Y-61973632D01*
X128024683Y-62000033D01*
X128060465Y-62032347D01*
X128092462Y-62066172D01*
X128140773Y-62125532D01*
X128173335Y-62182909D01*
X128196180Y-62250498D01*
X128207091Y-62297908D01*
X128215640Y-62407994D01*
X128197358Y-62514683D01*
X128154710Y-62613568D01*
X128090163Y-62700245D01*
X128006182Y-62770308D01*
X127917791Y-62814860D01*
X127895832Y-62822544D01*
X127873059Y-62828775D01*
X127846293Y-62833696D01*
X127812356Y-62837452D01*
X127768071Y-62840187D01*
X127710258Y-62842047D01*
X127635740Y-62843175D01*
X127541339Y-62843717D01*
X127423875Y-62843817D01*
X127285399Y-62843629D01*
X127134850Y-62843128D01*
X127010921Y-62842178D01*
X126910920Y-62840683D01*
X126832156Y-62838546D01*
X126771936Y-62835673D01*
X126727570Y-62831967D01*
X126696365Y-62827333D01*
X126676410Y-62821966D01*
X126595917Y-62781376D01*
X126520527Y-62723459D01*
X126458619Y-62655694D01*
X126422662Y-62595498D01*
X126396880Y-62533340D01*
X126381985Y-62484875D01*
X126375156Y-62437886D01*
X126373571Y-62382837D01*
X126387474Y-62266902D01*
X126427753Y-62161077D01*
X126492260Y-62068709D01*
X126578850Y-61993143D01*
X126649328Y-61953026D01*
X126732659Y-61913963D01*
X127238314Y-61909261D01*
X127402923Y-61908170D01*
X127541230Y-61908589D01*
G37*
G36*
X107122683Y-57364768D02*
G01*
X107256005Y-57365710D01*
X107303876Y-57366082D01*
X107854875Y-57370397D01*
X107938456Y-57411441D01*
X108020844Y-57464305D01*
X108093977Y-57534495D01*
X108150324Y-57613901D01*
X108173730Y-57664776D01*
X108192957Y-57748554D01*
X108198413Y-57844665D01*
X108190050Y-57939543D01*
X108174918Y-58001034D01*
X108138086Y-58073294D01*
X108080405Y-58144985D01*
X108009507Y-58208588D01*
X107933021Y-58256587D01*
X107901959Y-58269959D01*
X107878659Y-58278072D01*
X107855321Y-58284628D01*
X107828686Y-58289779D01*
X107795493Y-58293682D01*
X107752483Y-58296491D01*
X107696396Y-58298361D01*
X107623973Y-58299447D01*
X107531954Y-58299904D01*
X107417079Y-58299887D01*
X107279051Y-58299559D01*
X107111226Y-58298627D01*
X106972082Y-58296862D01*
X106860998Y-58294244D01*
X106777355Y-58290752D01*
X106720532Y-58286368D01*
X106689907Y-58281072D01*
X106689670Y-58280994D01*
X106579512Y-58231053D01*
X106491164Y-58161543D01*
X106424509Y-58072331D01*
X106379431Y-57963286D01*
X106367881Y-57916358D01*
X106360210Y-57814530D01*
X106375692Y-57708457D01*
X106411503Y-57611872D01*
X106455011Y-57548915D01*
X106517882Y-57486543D01*
X106591050Y-57432488D01*
X106665450Y-57394483D01*
X106667053Y-57393878D01*
X106690006Y-57385622D01*
X106712395Y-57378948D01*
X106737425Y-57373716D01*
X106768304Y-57369786D01*
X106808240Y-57367018D01*
X106860438Y-57365272D01*
X106928107Y-57364409D01*
X107014453Y-57364287D01*
X107122683Y-57364768D01*
G37*
G36*
X115158285Y-50114224D02*
G01*
X115260884Y-50158008D01*
X115347787Y-50226212D01*
X115411585Y-50307990D01*
X115429712Y-50338988D01*
X115444519Y-50369985D01*
X115456339Y-50404238D01*
X115465504Y-50445000D01*
X115472348Y-50495527D01*
X115477205Y-50559073D01*
X115480409Y-50638895D01*
X115482291Y-50738246D01*
X115483187Y-50860382D01*
X115483429Y-51008557D01*
X115483429Y-51009405D01*
X115482976Y-51158524D01*
X115481606Y-51288769D01*
X115479377Y-51398081D01*
X115476345Y-51484398D01*
X115472565Y-51545660D01*
X115468096Y-51579807D01*
X115467789Y-51581015D01*
X115426713Y-51682914D01*
X115364242Y-51771148D01*
X115284763Y-51843107D01*
X115192665Y-51896184D01*
X115092334Y-51927772D01*
X114988159Y-51935263D01*
X114897403Y-51920029D01*
X114785889Y-51875614D01*
X114695998Y-51812499D01*
X114625726Y-51728712D01*
X114573072Y-51622285D01*
X114561748Y-51589820D01*
X114556982Y-51559863D01*
X114553026Y-51504818D01*
X114549872Y-51428900D01*
X114547509Y-51336322D01*
X114545926Y-51231299D01*
X114545114Y-51118045D01*
X114545063Y-51000773D01*
X114545762Y-50883699D01*
X114547202Y-50771036D01*
X114549372Y-50666999D01*
X114552262Y-50575801D01*
X114555863Y-50501657D01*
X114560163Y-50448781D01*
X114564535Y-50423138D01*
X114595031Y-50344681D01*
X114635380Y-50280403D01*
X114693357Y-50218436D01*
X114706693Y-50206227D01*
X114784906Y-50147685D01*
X114867344Y-50111741D01*
X114961511Y-50095915D01*
X115041296Y-50095609D01*
X115158285Y-50114224D01*
G37*
G36*
X116953145Y-63751355D02*
G01*
X117011077Y-63767777D01*
X117095966Y-63813608D01*
X117173367Y-63881816D01*
X117236051Y-63965465D01*
X117255783Y-64002538D01*
X117293767Y-64083150D01*
X117297931Y-64634966D01*
X117298931Y-64777598D01*
X117299482Y-64894081D01*
X117299458Y-64987578D01*
X117298734Y-65061253D01*
X117297186Y-65118268D01*
X117294688Y-65161786D01*
X117291116Y-65194970D01*
X117286343Y-65220982D01*
X117280246Y-65242987D01*
X117273091Y-65263115D01*
X117233234Y-65350325D01*
X117184914Y-65418392D01*
X117120828Y-65477463D01*
X117116360Y-65480914D01*
X117016638Y-65539445D01*
X116907201Y-65571184D01*
X116792024Y-65575260D01*
X116729301Y-65565753D01*
X116634649Y-65534758D01*
X116552588Y-65483655D01*
X116481235Y-65414465D01*
X116452481Y-65380865D01*
X116428811Y-65349431D01*
X116409731Y-65316987D01*
X116394748Y-65280359D01*
X116383367Y-65236368D01*
X116375095Y-65181841D01*
X116369437Y-65113600D01*
X116365899Y-65028471D01*
X116363988Y-64923277D01*
X116363210Y-64794843D01*
X116363069Y-64654760D01*
X116363137Y-64514946D01*
X116363454Y-64401171D01*
X116364187Y-64310159D01*
X116365505Y-64238635D01*
X116367574Y-64183325D01*
X116370563Y-64140953D01*
X116374640Y-64108245D01*
X116379972Y-64081926D01*
X116386727Y-64058721D01*
X116394766Y-64036174D01*
X116434856Y-63958828D01*
X116493089Y-63884474D01*
X116562097Y-63820623D01*
X116634513Y-63774786D01*
X116662477Y-63763281D01*
X116753227Y-63743647D01*
X116854561Y-63739729D01*
X116953145Y-63751355D01*
G37*
G36*
X102752203Y-51005257D02*
G01*
X103325966Y-51009405D01*
X103396381Y-51045378D01*
X103480803Y-51102728D01*
X103554867Y-51179973D01*
X103610530Y-51268121D01*
X103624281Y-51300165D01*
X103632523Y-51323392D01*
X103639187Y-51346679D01*
X103644439Y-51373307D01*
X103648447Y-51406554D01*
X103651378Y-51449698D01*
X103653400Y-51506018D01*
X103654679Y-51578794D01*
X103655385Y-51671305D01*
X103655682Y-51786828D01*
X103655741Y-51916481D01*
X103655273Y-52076115D01*
X103653891Y-52212243D01*
X103651626Y-52323705D01*
X103648510Y-52409343D01*
X103644575Y-52467997D01*
X103639853Y-52498508D01*
X103639845Y-52498533D01*
X103592619Y-52610665D01*
X103528954Y-52699314D01*
X103446604Y-52766646D01*
X103343323Y-52814824D01*
X103297328Y-52828772D01*
X103260436Y-52834430D01*
X103198822Y-52839131D01*
X103116943Y-52842878D01*
X103019254Y-52845675D01*
X102910211Y-52847524D01*
X102794268Y-52848431D01*
X102675882Y-52848397D01*
X102559507Y-52847428D01*
X102449600Y-52845525D01*
X102350616Y-52842692D01*
X102267010Y-52838934D01*
X102203237Y-52834252D01*
X102163754Y-52828652D01*
X102160761Y-52827891D01*
X102049996Y-52783696D01*
X101958844Y-52717777D01*
X101886623Y-52629559D01*
X101854256Y-52570340D01*
X101816329Y-52489728D01*
X101811966Y-51954760D01*
X101811034Y-51792400D01*
X101811145Y-51657742D01*
X101812333Y-51549193D01*
X101814632Y-51465157D01*
X101818077Y-51404042D01*
X101822702Y-51364253D01*
X101824920Y-51353836D01*
X101867915Y-51243519D01*
X101934068Y-51151102D01*
X102022952Y-51077081D01*
X102099195Y-51036155D01*
X102178439Y-51001110D01*
X102752203Y-51005257D01*
G37*
G36*
X124707330Y-54637062D02*
G01*
X124825248Y-54637635D01*
X124920598Y-54638910D01*
X124996754Y-54641149D01*
X125057089Y-54644613D01*
X125104975Y-54649564D01*
X125143785Y-54656264D01*
X125176892Y-54664975D01*
X125207669Y-54675959D01*
X125239272Y-54689381D01*
X125290530Y-54721301D01*
X125346065Y-54770037D01*
X125396618Y-54826403D01*
X125432930Y-54881212D01*
X125433242Y-54881824D01*
X125471351Y-54984256D01*
X125486718Y-55091985D01*
X125478881Y-55190218D01*
X125465463Y-55244669D01*
X125449746Y-55293586D01*
X125440371Y-55315676D01*
X125405390Y-55368642D01*
X125355696Y-55425915D01*
X125301558Y-55476473D01*
X125267136Y-55501584D01*
X125235792Y-55519945D01*
X125204797Y-55534952D01*
X125170907Y-55546936D01*
X125130883Y-55556226D01*
X125081483Y-55563150D01*
X125019466Y-55568038D01*
X124941590Y-55571218D01*
X124844615Y-55573020D01*
X124725299Y-55573773D01*
X124580402Y-55573806D01*
X124556145Y-55573769D01*
X124415378Y-55573385D01*
X124300692Y-55572653D01*
X124208856Y-55571431D01*
X124136637Y-55569578D01*
X124080805Y-55566950D01*
X124038127Y-55563406D01*
X124005373Y-55558802D01*
X123979309Y-55552997D01*
X123961646Y-55547578D01*
X123855460Y-55497323D01*
X123768442Y-55425157D01*
X123699363Y-55330011D01*
X123689139Y-55311136D01*
X123662916Y-55237052D01*
X123649551Y-55147302D01*
X123649607Y-55052832D01*
X123663646Y-54964586D01*
X123670174Y-54942438D01*
X123699033Y-54882088D01*
X123743905Y-54817624D01*
X123797513Y-54757500D01*
X123852580Y-54710168D01*
X123888279Y-54689093D01*
X123919968Y-54675664D01*
X123950698Y-54664753D01*
X123983839Y-54656102D01*
X124022762Y-54649450D01*
X124070839Y-54644537D01*
X124131439Y-54641101D01*
X124207934Y-54638883D01*
X124303694Y-54637622D01*
X124422089Y-54637057D01*
X124563473Y-54636929D01*
X124707330Y-54637062D01*
G37*
G36*
X118316991Y-42808936D02*
G01*
X118428160Y-42809976D01*
X118530668Y-42811699D01*
X118620295Y-42814105D01*
X118692825Y-42817195D01*
X118744038Y-42820971D01*
X118768239Y-42824897D01*
X118884417Y-42874869D01*
X118978079Y-42943370D01*
X119048979Y-43030182D01*
X119088720Y-43111521D01*
X119114871Y-43220175D01*
X119114709Y-43329414D01*
X119090243Y-43434707D01*
X119043486Y-43531523D01*
X118976447Y-43615329D01*
X118891137Y-43681596D01*
X118820720Y-43715460D01*
X118786902Y-43727019D01*
X118752975Y-43735391D01*
X118713439Y-43741075D01*
X118662798Y-43744572D01*
X118595553Y-43746380D01*
X118506205Y-43746999D01*
X118473079Y-43747027D01*
X118209809Y-43747027D01*
X118209809Y-44010298D01*
X118209458Y-44107632D01*
X118208073Y-44181157D01*
X118205154Y-44236368D01*
X118200203Y-44278766D01*
X118192719Y-44313848D01*
X118182204Y-44347111D01*
X118178241Y-44357939D01*
X118127329Y-44454441D01*
X118055568Y-44534400D01*
X117967576Y-44595783D01*
X117867972Y-44636563D01*
X117761375Y-44654708D01*
X117652403Y-44648189D01*
X117570141Y-44625222D01*
X117470411Y-44571705D01*
X117388119Y-44494907D01*
X117323942Y-44395592D01*
X117287678Y-44305458D01*
X117283294Y-44276704D01*
X117279596Y-44222889D01*
X117276582Y-44148230D01*
X117274253Y-44056947D01*
X117272607Y-43953257D01*
X117271644Y-43841380D01*
X117271362Y-43725533D01*
X117271762Y-43609936D01*
X117272842Y-43498807D01*
X117274602Y-43396364D01*
X117277041Y-43306826D01*
X117280158Y-43234411D01*
X117283952Y-43183339D01*
X117287887Y-43159284D01*
X117336322Y-43046231D01*
X117402254Y-42955917D01*
X117488053Y-42885972D01*
X117596088Y-42834028D01*
X117622065Y-42825106D01*
X117650656Y-42820711D01*
X117704334Y-42816993D01*
X117778880Y-42813952D01*
X117870076Y-42811590D01*
X117973704Y-42809906D01*
X118085545Y-42808902D01*
X118201380Y-42808579D01*
X118316991Y-42808936D01*
G37*
G36*
X106942287Y-51015486D02*
G01*
X107046863Y-51053889D01*
X107138199Y-51114550D01*
X107211862Y-51194732D01*
X107251309Y-51262678D01*
X107262625Y-51289892D01*
X107271196Y-51319076D01*
X107277563Y-51355108D01*
X107282266Y-51402864D01*
X107285843Y-51467220D01*
X107288835Y-51553054D01*
X107290594Y-51617656D01*
X107297922Y-51903461D01*
X107583727Y-51910790D01*
X107699342Y-51914566D01*
X107790391Y-51920107D01*
X107861616Y-51928692D01*
X107917759Y-51941599D01*
X107963562Y-51960106D01*
X108003769Y-51985491D01*
X108043122Y-52019034D01*
X108065311Y-52040614D01*
X108120528Y-52101574D01*
X108157554Y-52159320D01*
X108179621Y-52222322D01*
X108189962Y-52299049D01*
X108191967Y-52372475D01*
X108191114Y-52443170D01*
X108187534Y-52493324D01*
X108179674Y-52531682D01*
X108165982Y-52566994D01*
X108152800Y-52593255D01*
X108086638Y-52688793D01*
X108000155Y-52763233D01*
X107893492Y-52816467D01*
X107840218Y-52833140D01*
X107810068Y-52837109D01*
X107754958Y-52840424D01*
X107679198Y-52843091D01*
X107587095Y-52845111D01*
X107482958Y-52846488D01*
X107371093Y-52847226D01*
X107255810Y-52847327D01*
X107141417Y-52846795D01*
X107032220Y-52845634D01*
X106932529Y-52843846D01*
X106846651Y-52841435D01*
X106778894Y-52838404D01*
X106733566Y-52834756D01*
X106718984Y-52832288D01*
X106615510Y-52791060D01*
X106523519Y-52728696D01*
X106448339Y-52649930D01*
X106395302Y-52559499D01*
X106386578Y-52536926D01*
X106379617Y-52514603D01*
X106373971Y-52489468D01*
X106369503Y-52458361D01*
X106366079Y-52418121D01*
X106363564Y-52365589D01*
X106361825Y-52297605D01*
X106360726Y-52211009D01*
X106360133Y-52102641D01*
X106359910Y-51969342D01*
X106359895Y-51910471D01*
X106359895Y-51360528D01*
X106408145Y-51262529D01*
X106472211Y-51162266D01*
X106553477Y-51085542D01*
X106650613Y-51033177D01*
X106762291Y-51005995D01*
X106828909Y-51002077D01*
X106942287Y-51015486D01*
G37*
G36*
X115104413Y-53736680D02*
G01*
X115181149Y-53758018D01*
X115282265Y-53810775D01*
X115365242Y-53886485D01*
X115429863Y-53984905D01*
X115467773Y-54078499D01*
X115473191Y-54110151D01*
X115477781Y-54165324D01*
X115481239Y-54238229D01*
X115483265Y-54323077D01*
X115483669Y-54382625D01*
X115483669Y-54636929D01*
X115746939Y-54636929D01*
X115864959Y-54638203D01*
X115958745Y-54642821D01*
X116033296Y-54651976D01*
X116093612Y-54666863D01*
X116144693Y-54688677D01*
X116191539Y-54718611D01*
X116233939Y-54753241D01*
X116301757Y-54829915D01*
X116352227Y-54921821D01*
X116383218Y-55021902D01*
X116392601Y-55123100D01*
X116378244Y-55218357D01*
X116376277Y-55224673D01*
X116328779Y-55338124D01*
X116266331Y-55427438D01*
X116186513Y-55494975D01*
X116086906Y-55543098D01*
X116033294Y-55559492D01*
X116003019Y-55563485D01*
X115948129Y-55566818D01*
X115872799Y-55569496D01*
X115781205Y-55571525D01*
X115677519Y-55572911D01*
X115565918Y-55573660D01*
X115450576Y-55573779D01*
X115335667Y-55573273D01*
X115225366Y-55572149D01*
X115123848Y-55570412D01*
X115035287Y-55568069D01*
X114963858Y-55565125D01*
X114913735Y-55561588D01*
X114890074Y-55557828D01*
X114780538Y-55510997D01*
X114694722Y-55450511D01*
X114628664Y-55372351D01*
X114578400Y-55272498D01*
X114561539Y-55224673D01*
X114556815Y-55194207D01*
X114552878Y-55135597D01*
X114549761Y-55050001D01*
X114547495Y-54938579D01*
X114546112Y-54802489D01*
X114545643Y-54642891D01*
X114545643Y-54642620D01*
X114545712Y-54503010D01*
X114546034Y-54389433D01*
X114546775Y-54298608D01*
X114548104Y-54227257D01*
X114550188Y-54172099D01*
X114553195Y-54129853D01*
X114557294Y-54097241D01*
X114562652Y-54070981D01*
X114569437Y-54047794D01*
X114577210Y-54026018D01*
X114628304Y-53928978D01*
X114700149Y-53848784D01*
X114788213Y-53787447D01*
X114887966Y-53746976D01*
X114994877Y-53729384D01*
X115104413Y-53736680D01*
G37*
G36*
X114674674Y-62814713D02*
G01*
X114855476Y-62815004D01*
X115032084Y-62815553D01*
X115201920Y-62816359D01*
X115362408Y-62817423D01*
X115510971Y-62818745D01*
X115645030Y-62820325D01*
X115762008Y-62822163D01*
X115859328Y-62824259D01*
X115934413Y-62826612D01*
X115984685Y-62829224D01*
X116004488Y-62831339D01*
X116118723Y-62865856D01*
X116215298Y-62923714D01*
X116293721Y-63004538D01*
X116347075Y-63093825D01*
X116375141Y-63180313D01*
X116386566Y-63278183D01*
X116381177Y-63376383D01*
X116358804Y-63463858D01*
X116353023Y-63477473D01*
X116305451Y-63556837D01*
X116240697Y-63631082D01*
X116167756Y-63690691D01*
X116131558Y-63711769D01*
X116062607Y-63746047D01*
X114853433Y-63753375D01*
X114659250Y-63754438D01*
X114467358Y-63755272D01*
X114280672Y-63755876D01*
X114102111Y-63756251D01*
X113934589Y-63756396D01*
X113781023Y-63756311D01*
X113644330Y-63755998D01*
X113527426Y-63755454D01*
X113433228Y-63754682D01*
X113364652Y-63753679D01*
X113351124Y-63753375D01*
X113249292Y-63750574D01*
X113172029Y-63747603D01*
X113114594Y-63743933D01*
X113072244Y-63739035D01*
X113040238Y-63732380D01*
X113013835Y-63723440D01*
X112991448Y-63713250D01*
X112893638Y-63649564D01*
X112816733Y-63566663D01*
X112762627Y-63467647D01*
X112733218Y-63355618D01*
X112728216Y-63282864D01*
X112729422Y-63236310D01*
X112734666Y-63197456D01*
X112746391Y-63156519D01*
X112767037Y-63103716D01*
X112781279Y-63070248D01*
X112812341Y-63019565D01*
X112860404Y-62964399D01*
X112916483Y-62913830D01*
X112971593Y-62876940D01*
X112973575Y-62875916D01*
X113020596Y-62856905D01*
X113080092Y-62839299D01*
X113116110Y-62831339D01*
X113146201Y-62828535D01*
X113203027Y-62825990D01*
X113284010Y-62823702D01*
X113386573Y-62821671D01*
X113508139Y-62819899D01*
X113646130Y-62818385D01*
X113797969Y-62817128D01*
X113961079Y-62816130D01*
X114132881Y-62815389D01*
X114310800Y-62814906D01*
X114492257Y-62814681D01*
X114674674Y-62814713D01*
G37*
G36*
X115127982Y-67386878D02*
G01*
X115232867Y-67425817D01*
X115323302Y-67489236D01*
X115397492Y-67575761D01*
X115453643Y-67684019D01*
X115467773Y-67723854D01*
X115472360Y-67753364D01*
X115476193Y-67807945D01*
X115479276Y-67883361D01*
X115481615Y-67975381D01*
X115483216Y-68079769D01*
X115484082Y-68192292D01*
X115484221Y-68308718D01*
X115483636Y-68424811D01*
X115482333Y-68536339D01*
X115480318Y-68639068D01*
X115477594Y-68728765D01*
X115474169Y-68801195D01*
X115470046Y-68852125D01*
X115466357Y-68874179D01*
X115436543Y-68946838D01*
X115391255Y-69021024D01*
X115337905Y-69086006D01*
X115293011Y-69125127D01*
X115257306Y-69148882D01*
X115223170Y-69168328D01*
X115187300Y-69183884D01*
X115146395Y-69195970D01*
X115097153Y-69205006D01*
X115036272Y-69211411D01*
X114960449Y-69215604D01*
X114866384Y-69218005D01*
X114750774Y-69219034D01*
X114610317Y-69219110D01*
X114554360Y-69218989D01*
X114432132Y-69218289D01*
X114317343Y-69216899D01*
X114213760Y-69214919D01*
X114125151Y-69212451D01*
X114055283Y-69209595D01*
X114007922Y-69206454D01*
X113988689Y-69203782D01*
X113887743Y-69164546D01*
X113799925Y-69106946D01*
X113730746Y-69035337D01*
X113691694Y-68968998D01*
X113665219Y-68906032D01*
X113648934Y-68859912D01*
X113640421Y-68821018D01*
X113637262Y-68779732D01*
X113636929Y-68751158D01*
X113650659Y-68640526D01*
X113689664Y-68537026D01*
X113750669Y-68445465D01*
X113830401Y-68370653D01*
X113925583Y-68317399D01*
X113934731Y-68313852D01*
X113968549Y-68302293D01*
X114002477Y-68293921D01*
X114042012Y-68288236D01*
X114092654Y-68284739D01*
X114159899Y-68282931D01*
X114249246Y-68282313D01*
X114282372Y-68282284D01*
X114545643Y-68282284D01*
X114545643Y-68019014D01*
X114546040Y-67920717D01*
X114547543Y-67846341D01*
X114550614Y-67790499D01*
X114555717Y-67747806D01*
X114563315Y-67712875D01*
X114573873Y-67680320D01*
X114575073Y-67677084D01*
X114628551Y-67573457D01*
X114702625Y-67488991D01*
X114793961Y-67426010D01*
X114899220Y-67386838D01*
X115010442Y-67373792D01*
X115127982Y-67386878D01*
G37*
G36*
X127861223Y-50093386D02*
G01*
X127949162Y-50135563D01*
X128048934Y-50197632D01*
X128125426Y-50277337D01*
X128179335Y-50375565D01*
X128205181Y-50461074D01*
X128209935Y-50498739D01*
X128213626Y-50560416D01*
X128216295Y-50641853D01*
X128217987Y-50738797D01*
X128218745Y-50846998D01*
X128218612Y-50962202D01*
X128217631Y-51080157D01*
X128215846Y-51196610D01*
X128213300Y-51307311D01*
X128210036Y-51408005D01*
X128206098Y-51494442D01*
X128201529Y-51562368D01*
X128196372Y-51607532D01*
X128193362Y-51620950D01*
X128157780Y-51693941D01*
X128102989Y-51766617D01*
X128036143Y-51831895D01*
X127964395Y-51882690D01*
X127901158Y-51910277D01*
X127805904Y-51928788D01*
X127712803Y-51932099D01*
X127633961Y-51920043D01*
X127519966Y-51873970D01*
X127426843Y-51807717D01*
X127355159Y-51721734D01*
X127331988Y-51680662D01*
X127317316Y-51650368D01*
X127306415Y-51623396D01*
X127298638Y-51594691D01*
X127293341Y-51559199D01*
X127289877Y-51511865D01*
X127287600Y-51447633D01*
X127285864Y-51361448D01*
X127285077Y-51313531D01*
X127280542Y-51031390D01*
X126596214Y-51031161D01*
X126423480Y-51030971D01*
X126277323Y-51030372D01*
X126155008Y-51029130D01*
X126053799Y-51027013D01*
X125970962Y-51023786D01*
X125903760Y-51019218D01*
X125849458Y-51013074D01*
X125805320Y-51005121D01*
X125768612Y-50995127D01*
X125736598Y-50982859D01*
X125706542Y-50968082D01*
X125679962Y-50953066D01*
X125596555Y-50887953D01*
X125532034Y-50804113D01*
X125488003Y-50706500D01*
X125466068Y-50600067D01*
X125467836Y-50489768D01*
X125494602Y-50381381D01*
X125538816Y-50298804D01*
X125604063Y-50222074D01*
X125682153Y-50159381D01*
X125752876Y-50123108D01*
X125769149Y-50117325D01*
X125786273Y-50112344D01*
X125806448Y-50108106D01*
X125831871Y-50104550D01*
X125864741Y-50101616D01*
X125907258Y-50099246D01*
X125961619Y-50097378D01*
X126030024Y-50095954D01*
X126114671Y-50094914D01*
X126217759Y-50094197D01*
X126341486Y-50093745D01*
X126488052Y-50093497D01*
X126659655Y-50093394D01*
X126846798Y-50093375D01*
X127861223Y-50093386D01*
G37*
G36*
X104993161Y-42812632D02*
G01*
X108177322Y-42816329D01*
X108177322Y-45996826D01*
X108177322Y-49177322D01*
X105002966Y-49181019D01*
X104699987Y-49181327D01*
X104404775Y-49181540D01*
X104118669Y-49181659D01*
X103843007Y-49181689D01*
X103579128Y-49181630D01*
X103328372Y-49181485D01*
X103092076Y-49181258D01*
X102871581Y-49180951D01*
X102668224Y-49180566D01*
X102483344Y-49180106D01*
X102318281Y-49179574D01*
X102174373Y-49178972D01*
X102052960Y-49178302D01*
X101955379Y-49177567D01*
X101882969Y-49176770D01*
X101837071Y-49175914D01*
X101819021Y-49175000D01*
X101818805Y-49174912D01*
X101817870Y-49159533D01*
X101816959Y-49116178D01*
X101816077Y-49046186D01*
X101815227Y-48950895D01*
X101814413Y-48831642D01*
X101813640Y-48689767D01*
X101812912Y-48526607D01*
X101812233Y-48343500D01*
X101811607Y-48141783D01*
X101811038Y-47922796D01*
X101810530Y-47687876D01*
X101810088Y-47438362D01*
X101809715Y-47175590D01*
X101809700Y-47162176D01*
X102720136Y-47162176D01*
X102720144Y-47361635D01*
X102720227Y-47545191D01*
X102720384Y-47711250D01*
X102720615Y-47858216D01*
X102720918Y-47984496D01*
X102721291Y-48088493D01*
X102721733Y-48168612D01*
X102722244Y-48223260D01*
X102722821Y-48250841D01*
X102723076Y-48253952D01*
X102738601Y-48256167D01*
X102783344Y-48258153D01*
X102857212Y-48259908D01*
X102960111Y-48261431D01*
X103091947Y-48262724D01*
X103252626Y-48263784D01*
X103442054Y-48264612D01*
X103660136Y-48265207D01*
X103906780Y-48265568D01*
X104181892Y-48265696D01*
X104485377Y-48265589D01*
X104817141Y-48265248D01*
X104991295Y-48264993D01*
X107253952Y-48261378D01*
X107257662Y-45989500D01*
X107261372Y-43717622D01*
X104993207Y-43721332D01*
X102725042Y-43725042D01*
X102721278Y-45982169D01*
X102720888Y-46237216D01*
X102720580Y-46484335D01*
X102720353Y-46721931D01*
X102720206Y-46948410D01*
X102720136Y-47162176D01*
X101809700Y-47162176D01*
X101809416Y-46900900D01*
X101809195Y-46615630D01*
X101809055Y-46321117D01*
X101809001Y-46018699D01*
X101809001Y-45987021D01*
X101809001Y-42808935D01*
X104993161Y-42812632D01*
G37*
G36*
X105367126Y-50093576D02*
G01*
X105512256Y-50093800D01*
X105634679Y-50094231D01*
X105736600Y-50094931D01*
X105820219Y-50095960D01*
X105887741Y-50097380D01*
X105941366Y-50099252D01*
X105983299Y-50101638D01*
X106015740Y-50104597D01*
X106040893Y-50108193D01*
X106060961Y-50112484D01*
X106078145Y-50117534D01*
X106094649Y-50123403D01*
X106096093Y-50123942D01*
X106190357Y-50173448D01*
X106266219Y-50241783D01*
X106323313Y-50324670D01*
X106361276Y-50417831D01*
X106379742Y-50516988D01*
X106378346Y-50617865D01*
X106356725Y-50716184D01*
X106314513Y-50807667D01*
X106251346Y-50888038D01*
X106166859Y-50953018D01*
X106166777Y-50953066D01*
X106110709Y-50981427D01*
X106049322Y-51002473D01*
X105977443Y-51017077D01*
X105889898Y-51026111D01*
X105781516Y-51030449D01*
X105704010Y-51031161D01*
X105473167Y-51031390D01*
X105473167Y-51294660D01*
X105472759Y-51393174D01*
X105471231Y-51467740D01*
X105468127Y-51523718D01*
X105462990Y-51566465D01*
X105455364Y-51601342D01*
X105444793Y-51633705D01*
X105444151Y-51635427D01*
X105391494Y-51737081D01*
X105317216Y-51819053D01*
X105221772Y-51880949D01*
X105117948Y-51919217D01*
X105050255Y-51934078D01*
X104993543Y-51937134D01*
X104932111Y-51928718D01*
X104908886Y-51923655D01*
X104801010Y-51884783D01*
X104706094Y-51822782D01*
X104628543Y-51741571D01*
X104572767Y-51645070D01*
X104561203Y-51614512D01*
X104555528Y-51584528D01*
X104549730Y-51530973D01*
X104544259Y-51459584D01*
X104539562Y-51376098D01*
X104536428Y-51297304D01*
X104527812Y-51028251D01*
X104319183Y-51030507D01*
X104186689Y-51029576D01*
X104078577Y-51022861D01*
X103990287Y-51009221D01*
X103917257Y-50987513D01*
X103854927Y-50956596D01*
X103798736Y-50915328D01*
X103775691Y-50894465D01*
X103709151Y-50816948D01*
X103662923Y-50727454D01*
X103648339Y-50684853D01*
X103628895Y-50573493D01*
X103637000Y-50464689D01*
X103670912Y-50362127D01*
X103728889Y-50269497D01*
X103809189Y-50190486D01*
X103910070Y-50128783D01*
X103911274Y-50128220D01*
X103985516Y-50093650D01*
X104999940Y-50093506D01*
X105197088Y-50093499D01*
X105367126Y-50093576D01*
G37*
G36*
X111462684Y-45548864D02*
G01*
X111540825Y-45569937D01*
X111601909Y-45596975D01*
X111658193Y-45636125D01*
X111688148Y-45661968D01*
X111739161Y-45713150D01*
X111778541Y-45766270D01*
X111807651Y-45825943D01*
X111827853Y-45896783D01*
X111840508Y-45983404D01*
X111846980Y-46090421D01*
X111848642Y-46205683D01*
X111848816Y-46443854D01*
X112086987Y-46444028D01*
X112215873Y-46446168D01*
X112320285Y-46453288D01*
X112404837Y-46466750D01*
X112474143Y-46487917D01*
X112532817Y-46518149D01*
X112585476Y-46558811D01*
X112630702Y-46604522D01*
X112678610Y-46663558D01*
X112710982Y-46721088D01*
X112733784Y-46789221D01*
X112744310Y-46835127D01*
X112752859Y-46945213D01*
X112734576Y-47051902D01*
X112691929Y-47150787D01*
X112627382Y-47237464D01*
X112543400Y-47307526D01*
X112455010Y-47352078D01*
X112433051Y-47359763D01*
X112410277Y-47365994D01*
X112383512Y-47370914D01*
X112349575Y-47374670D01*
X112305290Y-47377406D01*
X112247477Y-47379266D01*
X112172959Y-47380394D01*
X112078557Y-47380936D01*
X111961094Y-47381036D01*
X111822617Y-47380848D01*
X111672802Y-47380358D01*
X111549548Y-47379436D01*
X111450105Y-47377983D01*
X111371724Y-47375898D01*
X111311655Y-47373084D01*
X111267148Y-47369440D01*
X111235453Y-47364867D01*
X111213819Y-47359266D01*
X111212581Y-47358822D01*
X111113574Y-47307337D01*
X111028197Y-47232011D01*
X110960734Y-47136785D01*
X110950936Y-47118060D01*
X110942593Y-47100483D01*
X110935771Y-47082546D01*
X110930291Y-47061197D01*
X110925975Y-47033387D01*
X110922643Y-46996063D01*
X110920118Y-46946175D01*
X110918222Y-46880672D01*
X110916775Y-46796503D01*
X110915599Y-46690617D01*
X110914517Y-46559964D01*
X110913966Y-46486013D01*
X110912970Y-46341690D01*
X110912392Y-46223545D01*
X110912357Y-46128444D01*
X110912992Y-46053253D01*
X110914424Y-45994839D01*
X110916780Y-45950066D01*
X110920186Y-45915802D01*
X110924769Y-45888912D01*
X110930655Y-45866263D01*
X110937971Y-45844720D01*
X110940104Y-45838964D01*
X110991579Y-45740237D01*
X111063447Y-45658383D01*
X111151228Y-45595888D01*
X111250440Y-45555241D01*
X111356603Y-45538929D01*
X111462684Y-45548864D01*
G37*
G36*
X128187366Y-45993128D02*
G01*
X128183669Y-49177322D01*
X125006390Y-49181019D01*
X124634315Y-49181422D01*
X124290567Y-49181729D01*
X123974159Y-49181935D01*
X123684105Y-49182036D01*
X123419419Y-49182027D01*
X123179113Y-49181903D01*
X122962201Y-49181660D01*
X122767698Y-49181294D01*
X122594616Y-49180799D01*
X122441969Y-49180172D01*
X122308770Y-49179408D01*
X122194034Y-49178502D01*
X122096773Y-49177450D01*
X122016001Y-49176247D01*
X121950732Y-49174888D01*
X121899978Y-49173370D01*
X121862755Y-49171687D01*
X121838075Y-49169836D01*
X121824951Y-49167811D01*
X121822136Y-49166363D01*
X121821487Y-49150156D01*
X121820888Y-49105981D01*
X121820341Y-49035184D01*
X121819847Y-48939110D01*
X121819408Y-48819104D01*
X121819025Y-48676513D01*
X121818699Y-48512681D01*
X121818432Y-48328954D01*
X121818225Y-48126678D01*
X121818079Y-47907198D01*
X121817997Y-47671860D01*
X121817978Y-47422008D01*
X121818025Y-47158989D01*
X121818139Y-46884147D01*
X121818321Y-46598829D01*
X121818573Y-46304380D01*
X121818896Y-46002146D01*
X121818913Y-45987008D01*
X121818919Y-45982169D01*
X121821607Y-43717622D01*
X122738718Y-43717622D01*
X122738718Y-45987008D01*
X122738757Y-46242596D01*
X122738870Y-46490162D01*
X122739054Y-46728124D01*
X122739304Y-46954898D01*
X122739616Y-47168904D01*
X122739986Y-47368557D01*
X122740409Y-47552276D01*
X122740882Y-47718477D01*
X122741399Y-47865579D01*
X122741957Y-47991997D01*
X122742551Y-48096151D01*
X122743178Y-48176457D01*
X122743833Y-48231333D01*
X122744511Y-48259195D01*
X122744826Y-48262502D01*
X122759916Y-48263168D01*
X122802735Y-48263770D01*
X122871697Y-48264306D01*
X122965216Y-48264773D01*
X123081708Y-48265171D01*
X123219587Y-48265496D01*
X123377268Y-48265748D01*
X123553166Y-48265924D01*
X123745696Y-48266023D01*
X123953272Y-48266043D01*
X124174309Y-48265981D01*
X124407223Y-48265836D01*
X124650427Y-48265607D01*
X124902337Y-48265291D01*
X125012944Y-48265129D01*
X127274956Y-48261649D01*
X127274956Y-45993346D01*
X127274956Y-43725042D01*
X125006837Y-43721332D01*
X122738718Y-43717622D01*
X121821607Y-43717622D01*
X121822677Y-42816329D01*
X125006870Y-42812632D01*
X128191064Y-42808935D01*
X128187366Y-45993128D01*
G37*
G36*
X127849614Y-56467059D02*
G01*
X127951643Y-56502905D01*
X128042462Y-56558495D01*
X128116114Y-56630431D01*
X128154736Y-56689598D01*
X128167397Y-56714551D01*
X128178304Y-56738411D01*
X128187589Y-56763466D01*
X128195382Y-56792005D01*
X128201814Y-56826315D01*
X128207017Y-56868685D01*
X128211120Y-56921404D01*
X128214256Y-56986760D01*
X128216554Y-57067040D01*
X128218145Y-57164533D01*
X128219161Y-57281529D01*
X128219733Y-57420313D01*
X128219990Y-57583176D01*
X128220064Y-57772406D01*
X128220070Y-57832082D01*
X128219839Y-58054718D01*
X128219110Y-58250951D01*
X128217890Y-58420367D01*
X128216186Y-58562551D01*
X128214004Y-58677087D01*
X128211350Y-58763560D01*
X128208230Y-58821556D01*
X128204651Y-58850659D01*
X128204635Y-58850720D01*
X128164023Y-58961313D01*
X128105226Y-59050562D01*
X128025911Y-59120860D01*
X127923747Y-59174600D01*
X127870028Y-59193913D01*
X127839354Y-59198656D01*
X127780335Y-59202544D01*
X127693930Y-59205551D01*
X127581095Y-59207652D01*
X127442788Y-59208823D01*
X127283761Y-59209045D01*
X127142939Y-59208753D01*
X127028214Y-59208213D01*
X126936372Y-59207270D01*
X126864197Y-59205767D01*
X126808474Y-59203547D01*
X126765988Y-59200455D01*
X126733523Y-59196333D01*
X126707864Y-59191026D01*
X126685796Y-59184376D01*
X126671930Y-59179290D01*
X126605405Y-59145397D01*
X126538146Y-59097313D01*
X126479388Y-59042656D01*
X126438368Y-58989043D01*
X126435908Y-58984616D01*
X126391724Y-58874134D01*
X126373994Y-58760537D01*
X126382319Y-58648375D01*
X126416302Y-58542198D01*
X126475543Y-58446557D01*
X126483866Y-58436546D01*
X126532806Y-58384933D01*
X126583542Y-58344956D01*
X126640587Y-58315254D01*
X126708457Y-58294465D01*
X126791666Y-58281226D01*
X126894730Y-58274175D01*
X127022163Y-58271950D01*
X127029457Y-58271941D01*
X127282284Y-58271782D01*
X127282284Y-57554155D01*
X127282320Y-57390371D01*
X127282498Y-57253188D01*
X127282926Y-57139891D01*
X127283710Y-57047767D01*
X127284956Y-56974105D01*
X127286773Y-56916190D01*
X127289266Y-56871309D01*
X127292542Y-56836749D01*
X127296709Y-56809797D01*
X127301872Y-56787739D01*
X127308139Y-56767863D01*
X127313852Y-56752157D01*
X127364231Y-56657421D01*
X127436624Y-56576512D01*
X127525597Y-56513205D01*
X127625719Y-56471277D01*
X127731554Y-56454504D01*
X127742332Y-56454356D01*
X127849614Y-56467059D01*
G37*
G36*
X102854210Y-58271718D02*
G01*
X102965379Y-58272757D01*
X103067886Y-58274480D01*
X103157514Y-58276886D01*
X103230044Y-58279976D01*
X103281257Y-58283752D01*
X103305458Y-58287678D01*
X103421636Y-58337650D01*
X103515297Y-58406151D01*
X103586198Y-58492964D01*
X103625939Y-58574302D01*
X103652090Y-58682956D01*
X103651927Y-58792195D01*
X103627462Y-58897488D01*
X103580704Y-58994304D01*
X103513665Y-59078111D01*
X103428356Y-59144377D01*
X103357939Y-59178241D01*
X103324121Y-59189800D01*
X103290193Y-59198172D01*
X103250658Y-59203857D01*
X103200016Y-59207354D01*
X103132771Y-59209162D01*
X103043424Y-59209780D01*
X103010298Y-59209809D01*
X102747027Y-59209809D01*
X102747027Y-60381792D01*
X102747015Y-60594578D01*
X102746944Y-60780079D01*
X102746764Y-60940326D01*
X102746424Y-61077347D01*
X102745874Y-61193172D01*
X102745063Y-61289830D01*
X102743942Y-61369351D01*
X102742459Y-61433763D01*
X102740564Y-61485097D01*
X102738207Y-61525381D01*
X102735337Y-61556644D01*
X102731904Y-61580917D01*
X102727857Y-61600227D01*
X102723146Y-61616605D01*
X102717720Y-61632080D01*
X102715808Y-61637216D01*
X102664902Y-61733679D01*
X102593097Y-61813900D01*
X102505171Y-61875744D01*
X102405905Y-61917074D01*
X102300077Y-61935752D01*
X102192467Y-61929641D01*
X102112283Y-61907046D01*
X102008085Y-61851821D01*
X101923755Y-61776326D01*
X101861480Y-61682903D01*
X101831655Y-61606307D01*
X101827848Y-61590376D01*
X101824483Y-61569191D01*
X101821535Y-61540990D01*
X101818977Y-61504015D01*
X101816782Y-61456505D01*
X101814925Y-61396701D01*
X101813377Y-61322843D01*
X101812114Y-61233172D01*
X101811109Y-61125927D01*
X101810335Y-60999349D01*
X101809765Y-60851678D01*
X101809374Y-60681154D01*
X101809135Y-60486018D01*
X101809021Y-60264510D01*
X101809001Y-60100133D01*
X101809131Y-59833148D01*
X101809526Y-59594769D01*
X101810195Y-59384288D01*
X101811144Y-59200998D01*
X101812381Y-59044192D01*
X101813915Y-58913162D01*
X101815752Y-58807203D01*
X101817901Y-58725606D01*
X101820370Y-58667665D01*
X101823165Y-58632673D01*
X101825106Y-58622065D01*
X101873540Y-58509013D01*
X101939472Y-58418699D01*
X102025272Y-58348754D01*
X102133307Y-58296809D01*
X102159284Y-58287887D01*
X102187875Y-58283492D01*
X102241552Y-58279774D01*
X102316099Y-58276734D01*
X102407295Y-58274371D01*
X102510923Y-58272687D01*
X102622764Y-58271683D01*
X102738599Y-58271360D01*
X102854210Y-58271718D01*
G37*
G36*
X109627118Y-56459395D02*
G01*
X109729513Y-56486730D01*
X109824359Y-56538570D01*
X109907544Y-56614685D01*
X109926845Y-56638542D01*
X109942673Y-56658870D01*
X109956685Y-56676886D01*
X109968995Y-56694405D01*
X109979720Y-56713243D01*
X109988976Y-56735216D01*
X109996878Y-56762142D01*
X110003541Y-56795835D01*
X110009082Y-56838111D01*
X110013616Y-56890788D01*
X110017258Y-56955681D01*
X110020124Y-57034605D01*
X110022330Y-57129378D01*
X110023991Y-57241816D01*
X110025223Y-57373734D01*
X110026142Y-57526949D01*
X110026863Y-57703276D01*
X110027502Y-57904532D01*
X110028175Y-58132534D01*
X110028490Y-58235141D01*
X110029227Y-58479429D01*
X110029766Y-58696208D01*
X110030045Y-58887280D01*
X110029999Y-59054448D01*
X110029566Y-59199516D01*
X110028682Y-59324286D01*
X110027282Y-59430562D01*
X110025304Y-59520147D01*
X110022685Y-59594844D01*
X110019360Y-59656456D01*
X110015265Y-59706787D01*
X110010339Y-59747638D01*
X110004516Y-59780814D01*
X109997734Y-59808118D01*
X109989929Y-59831352D01*
X109981037Y-59852320D01*
X109970994Y-59872826D01*
X109970769Y-59873267D01*
X109911258Y-59959138D01*
X109831549Y-60028903D01*
X109737299Y-60080268D01*
X109634167Y-60110937D01*
X109527811Y-60118614D01*
X109423890Y-60101004D01*
X109415810Y-60098420D01*
X109311876Y-60050371D01*
X109223958Y-59982232D01*
X109156385Y-59897983D01*
X109122592Y-59829127D01*
X109117806Y-59815659D01*
X109113573Y-59801183D01*
X109109859Y-59783913D01*
X109106630Y-59762063D01*
X109103852Y-59733845D01*
X109101492Y-59697472D01*
X109099514Y-59651159D01*
X109097886Y-59593118D01*
X109096573Y-59521563D01*
X109095542Y-59434707D01*
X109094759Y-59330764D01*
X109094190Y-59207946D01*
X109093800Y-59064468D01*
X109093557Y-58898541D01*
X109093425Y-58708381D01*
X109093372Y-58492199D01*
X109093363Y-58288500D01*
X109093306Y-58041227D01*
X109093225Y-57821514D01*
X109093257Y-57627607D01*
X109093537Y-57457753D01*
X109094201Y-57310198D01*
X109095385Y-57183189D01*
X109097225Y-57074972D01*
X109099857Y-56983795D01*
X109103417Y-56907903D01*
X109108040Y-56845543D01*
X109113864Y-56794963D01*
X109121023Y-56754407D01*
X109129654Y-56722124D01*
X109139892Y-56696360D01*
X109151874Y-56675361D01*
X109165736Y-56657374D01*
X109181613Y-56640645D01*
X109199641Y-56623421D01*
X109219956Y-56603950D01*
X109224295Y-56599642D01*
X109315764Y-56526686D01*
X109416132Y-56479145D01*
X109521287Y-56456790D01*
X109627118Y-56459395D01*
G37*
G36*
X110273878Y-61908746D02*
G01*
X110388730Y-61910598D01*
X110475364Y-61913925D01*
X110534133Y-61918733D01*
X110551701Y-61921405D01*
X110661142Y-61954491D01*
X110753307Y-62009303D01*
X110829883Y-62087352D01*
X110892553Y-62190149D01*
X110919109Y-62251067D01*
X110923237Y-62274705D01*
X110927672Y-62322361D01*
X110932059Y-62388745D01*
X110936044Y-62468570D01*
X110938999Y-62547717D01*
X110947431Y-62815053D01*
X111211251Y-62820141D01*
X111325939Y-62823332D01*
X111416311Y-62828786D01*
X111487350Y-62837760D01*
X111544038Y-62851511D01*
X111591355Y-62871296D01*
X111634284Y-62898371D01*
X111677804Y-62933995D01*
X111683844Y-62939390D01*
X111761444Y-63026999D01*
X111813624Y-63124369D01*
X111840852Y-63227505D01*
X111843593Y-63332409D01*
X111822312Y-63435086D01*
X111777476Y-63531541D01*
X111709550Y-63617777D01*
X111619001Y-63689799D01*
X111594682Y-63704123D01*
X111568443Y-63718240D01*
X111544552Y-63728880D01*
X111518310Y-63736657D01*
X111485021Y-63742187D01*
X111439986Y-63746084D01*
X111378509Y-63748964D01*
X111295892Y-63751443D01*
X111218580Y-63753375D01*
X111100100Y-63755414D01*
X110965783Y-63756338D01*
X110827967Y-63756147D01*
X110698993Y-63754841D01*
X110624985Y-63753375D01*
X110508467Y-63749712D01*
X110416577Y-63744405D01*
X110344635Y-63736196D01*
X110287957Y-63723826D01*
X110241863Y-63706039D01*
X110201669Y-63681576D01*
X110162694Y-63649179D01*
X110133987Y-63621465D01*
X110094961Y-63580080D01*
X110064923Y-63540654D01*
X110042571Y-63498423D01*
X110026609Y-63448622D01*
X110015735Y-63386487D01*
X110008651Y-63307254D01*
X110004057Y-63206160D01*
X110002077Y-63137795D01*
X109994748Y-62851990D01*
X109708943Y-62844662D01*
X109592982Y-62840869D01*
X109501565Y-62835250D01*
X109429926Y-62826455D01*
X109373300Y-62813134D01*
X109326921Y-62793939D01*
X109286025Y-62767520D01*
X109245844Y-62732527D01*
X109219285Y-62706019D01*
X109151998Y-62617471D01*
X109109735Y-62519480D01*
X109091591Y-62416272D01*
X109096656Y-62312072D01*
X109124023Y-62211104D01*
X109172786Y-62117593D01*
X109242037Y-62035765D01*
X109330869Y-61969844D01*
X109382962Y-61943905D01*
X109403443Y-61935922D01*
X109425726Y-61929452D01*
X109453111Y-61924297D01*
X109488899Y-61920260D01*
X109536392Y-61917143D01*
X109598891Y-61914748D01*
X109679696Y-61912877D01*
X109782109Y-61911333D01*
X109909430Y-61909916D01*
X109958107Y-61909438D01*
X110130454Y-61908362D01*
X110273878Y-61908746D01*
G37*
G36*
X111072390Y-51910954D02*
G01*
X111200465Y-51911761D01*
X111305459Y-51913679D01*
X111390487Y-51917178D01*
X111458666Y-51922727D01*
X111513110Y-51930794D01*
X111556937Y-51941851D01*
X111593261Y-51956365D01*
X111625199Y-51974806D01*
X111655866Y-51997643D01*
X111688378Y-52025346D01*
X111690373Y-52027102D01*
X111739864Y-52076202D01*
X111778326Y-52128832D01*
X111806996Y-52189323D01*
X111827109Y-52262007D01*
X111839900Y-52351216D01*
X111846606Y-52461280D01*
X111848458Y-52581332D01*
X111848816Y-52819503D01*
X112112086Y-52819503D01*
X112210194Y-52819892D01*
X112284404Y-52821372D01*
X112340122Y-52824413D01*
X112382758Y-52829486D01*
X112417719Y-52837060D01*
X112450413Y-52847605D01*
X112455010Y-52849305D01*
X112553215Y-52900643D01*
X112634705Y-52972512D01*
X112696962Y-53060359D01*
X112737470Y-53159633D01*
X112753709Y-53265782D01*
X112743806Y-53371397D01*
X112729644Y-53426043D01*
X112713515Y-53475153D01*
X112703691Y-53498249D01*
X112668189Y-53551977D01*
X112617739Y-53609794D01*
X112562566Y-53660775D01*
X112528564Y-53685350D01*
X112505586Y-53699128D01*
X112482943Y-53711021D01*
X112458404Y-53721165D01*
X112429736Y-53729696D01*
X112394708Y-53736749D01*
X112351088Y-53742460D01*
X112296644Y-53746964D01*
X112229144Y-53750398D01*
X112146356Y-53752896D01*
X112046047Y-53754594D01*
X111925987Y-53755628D01*
X111783943Y-53756134D01*
X111617684Y-53756247D01*
X111424976Y-53756103D01*
X111365146Y-53756034D01*
X111185774Y-53755609D01*
X111018007Y-53754798D01*
X110864052Y-53753633D01*
X110726118Y-53752147D01*
X110606413Y-53750373D01*
X110507145Y-53748344D01*
X110430521Y-53746093D01*
X110378750Y-53743652D01*
X110354040Y-53741054D01*
X110353836Y-53741001D01*
X110244567Y-53697415D01*
X110151706Y-53631584D01*
X110078490Y-53546383D01*
X110031879Y-53455010D01*
X110024161Y-53432908D01*
X110017899Y-53409894D01*
X110012944Y-53382774D01*
X110009142Y-53348353D01*
X110006343Y-53303437D01*
X110004394Y-53244832D01*
X110003145Y-53169343D01*
X110002443Y-53073777D01*
X110002138Y-52954938D01*
X110002077Y-52826831D01*
X110002210Y-52671895D01*
X110002962Y-52543187D01*
X110004861Y-52437623D01*
X110008436Y-52352118D01*
X110014216Y-52283587D01*
X110022728Y-52228947D01*
X110034503Y-52185111D01*
X110050067Y-52148996D01*
X110069950Y-52117517D01*
X110094680Y-52087589D01*
X110124787Y-52056127D01*
X110136080Y-52044794D01*
X110168735Y-52012783D01*
X110198831Y-51986323D01*
X110229452Y-51964887D01*
X110263683Y-51947945D01*
X110304609Y-51934969D01*
X110355314Y-51925430D01*
X110418884Y-51918801D01*
X110498402Y-51914551D01*
X110596953Y-51912153D01*
X110717622Y-51911078D01*
X110863494Y-51910798D01*
X110918118Y-51910790D01*
X111072390Y-51910954D01*
G37*
G36*
X110415120Y-42811075D02*
G01*
X110472067Y-42812603D01*
X110515535Y-42815086D01*
X110548689Y-42818649D01*
X110574697Y-42823417D01*
X110596724Y-42829517D01*
X110617358Y-42836852D01*
X110704462Y-42876589D01*
X110772389Y-42924605D01*
X110831255Y-42988175D01*
X110835559Y-42993736D01*
X110867057Y-43037585D01*
X110890970Y-43079397D01*
X110908439Y-43124315D01*
X110920611Y-43177480D01*
X110928629Y-43244034D01*
X110933637Y-43329119D01*
X110936779Y-43437877D01*
X110937024Y-43449713D01*
X110942417Y-43716680D01*
X111670429Y-43720861D01*
X112398441Y-43725042D01*
X112479053Y-43763272D01*
X112579891Y-43825863D01*
X112658330Y-43907359D01*
X112714353Y-44007743D01*
X112744438Y-44108385D01*
X112752310Y-44213058D01*
X112735628Y-44316869D01*
X112697062Y-44414302D01*
X112639284Y-44499844D01*
X112564966Y-44567979D01*
X112505297Y-44602024D01*
X112483082Y-44611707D01*
X112461392Y-44620151D01*
X112438155Y-44627440D01*
X112411300Y-44633659D01*
X112378756Y-44638893D01*
X112338452Y-44643227D01*
X112288315Y-44646746D01*
X112226274Y-44649535D01*
X112150258Y-44651678D01*
X112058196Y-44653261D01*
X111948015Y-44654368D01*
X111817646Y-44655085D01*
X111665015Y-44655495D01*
X111488053Y-44655685D01*
X111284686Y-44655738D01*
X111194408Y-44655741D01*
X110031390Y-44655741D01*
X110031390Y-44882198D01*
X110029259Y-45014029D01*
X110022061Y-45121344D01*
X110008587Y-45208684D01*
X109987627Y-45280590D01*
X109957973Y-45341603D01*
X109918415Y-45396265D01*
X109884888Y-45432479D01*
X109804146Y-45497003D01*
X109712596Y-45537859D01*
X109605050Y-45557176D01*
X109577033Y-45558815D01*
X109514596Y-45558540D01*
X109456782Y-45553668D01*
X109415870Y-45545236D01*
X109415810Y-45545215D01*
X109309273Y-45494667D01*
X109220701Y-45424949D01*
X109153614Y-45339312D01*
X109122304Y-45274289D01*
X109116606Y-45258285D01*
X109111705Y-45241496D01*
X109107549Y-45221742D01*
X109104089Y-45196842D01*
X109101274Y-45164617D01*
X109099054Y-45122887D01*
X109097378Y-45069471D01*
X109096197Y-45002190D01*
X109095460Y-44918863D01*
X109095116Y-44817311D01*
X109095115Y-44695352D01*
X109095408Y-44550808D01*
X109095943Y-44381498D01*
X109096670Y-44185242D01*
X109096740Y-44167087D01*
X109100692Y-43138776D01*
X109136756Y-43068178D01*
X109189907Y-42989586D01*
X109262546Y-42917232D01*
X109344994Y-42860284D01*
X109369265Y-42848001D01*
X109388015Y-42839836D01*
X109407501Y-42833174D01*
X109430843Y-42827832D01*
X109461159Y-42823630D01*
X109501568Y-42820386D01*
X109555189Y-42817920D01*
X109625140Y-42816050D01*
X109714540Y-42814596D01*
X109826508Y-42813376D01*
X109964163Y-42812210D01*
X109989209Y-42812012D01*
X110131738Y-42810971D01*
X110248122Y-42810385D01*
X110341527Y-42810378D01*
X110415120Y-42811075D01*
G37*
G36*
X126955199Y-52833029D02*
G01*
X127060346Y-52872098D01*
X127151062Y-52934772D01*
X127224592Y-53018894D01*
X127278186Y-53122306D01*
X127296133Y-53178591D01*
X127301325Y-53213076D01*
X127305773Y-53270426D01*
X127309150Y-53344198D01*
X127311132Y-53427945D01*
X127311516Y-53482717D01*
X127311598Y-53728216D01*
X127574868Y-53728216D01*
X127672976Y-53728605D01*
X127747185Y-53730085D01*
X127802903Y-53733127D01*
X127845539Y-53738199D01*
X127880500Y-53745773D01*
X127913194Y-53756318D01*
X127917791Y-53758018D01*
X128018609Y-53810794D01*
X128101716Y-53886004D01*
X128165073Y-53981306D01*
X128204847Y-54087304D01*
X128209902Y-54122299D01*
X128213993Y-54181896D01*
X128217143Y-54261742D01*
X128219371Y-54357482D01*
X128220699Y-54464764D01*
X128221148Y-54579233D01*
X128220740Y-54696536D01*
X128219494Y-54812318D01*
X128217434Y-54922226D01*
X128214579Y-55021907D01*
X128210951Y-55107006D01*
X128206571Y-55173170D01*
X128201460Y-55216045D01*
X128199320Y-55225358D01*
X128153525Y-55336293D01*
X128089124Y-55425534D01*
X128003920Y-55495674D01*
X127941834Y-55529701D01*
X127861223Y-55567628D01*
X127311598Y-55570475D01*
X127158515Y-55570849D01*
X127025077Y-55570313D01*
X126913095Y-55568905D01*
X126824379Y-55566662D01*
X126760741Y-55563620D01*
X126723989Y-55559817D01*
X126718003Y-55558378D01*
X126601949Y-55506035D01*
X126509071Y-55435778D01*
X126439402Y-55347636D01*
X126403373Y-55272436D01*
X126392385Y-55239632D01*
X126384432Y-55205301D01*
X126379045Y-55164035D01*
X126375754Y-55110426D01*
X126374088Y-55039066D01*
X126373577Y-54944548D01*
X126373571Y-54929513D01*
X126373571Y-54666243D01*
X126128072Y-54666161D01*
X125996482Y-54663904D01*
X125889530Y-54656378D01*
X125802813Y-54642311D01*
X125731929Y-54620426D01*
X125672476Y-54589448D01*
X125620050Y-54548104D01*
X125581170Y-54507800D01*
X125516707Y-54414733D01*
X125478940Y-54311400D01*
X125467124Y-54195562D01*
X125467947Y-54167916D01*
X125482044Y-54062374D01*
X125514339Y-53974944D01*
X125567874Y-53898644D01*
X125599382Y-53866385D01*
X125643004Y-53826362D01*
X125681365Y-53795617D01*
X125719321Y-53772784D01*
X125761729Y-53756498D01*
X125813444Y-53745395D01*
X125879323Y-53738108D01*
X125964222Y-53733273D01*
X126072996Y-53729524D01*
X126087766Y-53729086D01*
X126366243Y-53720888D01*
X126373697Y-53442411D01*
X126376680Y-53353227D01*
X126380491Y-53272706D01*
X126384798Y-53206004D01*
X126389267Y-53158275D01*
X126393565Y-53134674D01*
X126393588Y-53134621D01*
X126421090Y-53073016D01*
X126445140Y-53029366D01*
X126471993Y-52993970D01*
X126507905Y-52957124D01*
X126508254Y-52956789D01*
X126592601Y-52887891D01*
X126678329Y-52844413D01*
X126773152Y-52823151D01*
X126838370Y-52819724D01*
X126955199Y-52833029D01*
G37*
G36*
X113655055Y-60999352D02*
G01*
X113779588Y-61000148D01*
X113885594Y-61001442D01*
X113974871Y-61003298D01*
X114049218Y-61005776D01*
X114110431Y-61008941D01*
X114160309Y-61012854D01*
X114200650Y-61017577D01*
X114233251Y-61023173D01*
X114259909Y-61029705D01*
X114282424Y-61037235D01*
X114302592Y-61045825D01*
X114322212Y-61055537D01*
X114325793Y-61057393D01*
X114409122Y-61115544D01*
X114478286Y-61192915D01*
X114530698Y-61283648D01*
X114563772Y-61381886D01*
X114574921Y-61481772D01*
X114561558Y-61577447D01*
X114559060Y-61585666D01*
X114509088Y-61701844D01*
X114440587Y-61795505D01*
X114353775Y-61866406D01*
X114272436Y-61906146D01*
X114253110Y-61912956D01*
X114232913Y-61918643D01*
X114209148Y-61923308D01*
X114179114Y-61927051D01*
X114140111Y-61929974D01*
X114089440Y-61932178D01*
X114024401Y-61933763D01*
X113942294Y-61934831D01*
X113840420Y-61935482D01*
X113716079Y-61935817D01*
X113566571Y-61935937D01*
X113475156Y-61935948D01*
X112757529Y-61935948D01*
X112757448Y-62181448D01*
X112755190Y-62313037D01*
X112747665Y-62419989D01*
X112733597Y-62506706D01*
X112711712Y-62577590D01*
X112680735Y-62637044D01*
X112639391Y-62689470D01*
X112599086Y-62728350D01*
X112512708Y-62786542D01*
X112411619Y-62825650D01*
X112303791Y-62844131D01*
X112197198Y-62840439D01*
X112119965Y-62821147D01*
X112044001Y-62782149D01*
X111969142Y-62724507D01*
X111905350Y-62656908D01*
X111869701Y-62602894D01*
X111855708Y-62573147D01*
X111845015Y-62541416D01*
X111837000Y-62502911D01*
X111831043Y-62452842D01*
X111826525Y-62386420D01*
X111822827Y-62298855D01*
X111820373Y-62221753D01*
X111812175Y-61943277D01*
X111526370Y-61935948D01*
X111412562Y-61932300D01*
X111323200Y-61926993D01*
X111253416Y-61918664D01*
X111198344Y-61905951D01*
X111153118Y-61887492D01*
X111112869Y-61861925D01*
X111072733Y-61827886D01*
X111045029Y-61801197D01*
X111011405Y-61765924D01*
X110986082Y-61732612D01*
X110963721Y-61692538D01*
X110938982Y-61636975D01*
X110927506Y-61609148D01*
X110913888Y-61550457D01*
X110910946Y-61475223D01*
X110918177Y-61393998D01*
X110935076Y-61317336D01*
X110942487Y-61295377D01*
X110985271Y-61215299D01*
X111048885Y-61139109D01*
X111125179Y-61075110D01*
X111198512Y-61034564D01*
X111211068Y-61029697D01*
X111224812Y-61025392D01*
X111241550Y-61021607D01*
X111263087Y-61018302D01*
X111291231Y-61015436D01*
X111327788Y-61012967D01*
X111374564Y-61010854D01*
X111433366Y-61009057D01*
X111505999Y-61007535D01*
X111594270Y-61006245D01*
X111699986Y-61005149D01*
X111824952Y-61004203D01*
X111970975Y-61003368D01*
X112139862Y-61002603D01*
X112333419Y-61001866D01*
X112553452Y-61001116D01*
X112691575Y-61000667D01*
X112935706Y-60999906D01*
X113152322Y-60999331D01*
X113343220Y-60999006D01*
X113510199Y-60998992D01*
X113655055Y-60999352D01*
G37*
G36*
X117429802Y-55545711D02*
G01*
X117544199Y-55546025D01*
X117635796Y-55546751D01*
X117707846Y-55548053D01*
X117763607Y-55550096D01*
X117806333Y-55553046D01*
X117839282Y-55557068D01*
X117865707Y-55562326D01*
X117888866Y-55568986D01*
X117912007Y-55577210D01*
X118002601Y-55625425D01*
X118083581Y-55695687D01*
X118147815Y-55780835D01*
X118178886Y-55845166D01*
X118187117Y-55868022D01*
X118193782Y-55890282D01*
X118199019Y-55915124D01*
X118202965Y-55945731D01*
X118205759Y-55985281D01*
X118207538Y-56036957D01*
X118208439Y-56103938D01*
X118208600Y-56189404D01*
X118208160Y-56296537D01*
X118207255Y-56428517D01*
X118206789Y-56489605D01*
X118205621Y-56632749D01*
X118204428Y-56749671D01*
X118203033Y-56843463D01*
X118201261Y-56917215D01*
X118198936Y-56974018D01*
X118195881Y-57016965D01*
X118191921Y-57049145D01*
X118186880Y-57073650D01*
X118180582Y-57093571D01*
X118172852Y-57112000D01*
X118171154Y-57115700D01*
X118111454Y-57213157D01*
X118031010Y-57291046D01*
X117928565Y-57350421D01*
X117859526Y-57376486D01*
X117839979Y-57379068D01*
X117797942Y-57381391D01*
X117732809Y-57383460D01*
X117643976Y-57385278D01*
X117530838Y-57386852D01*
X117392791Y-57388186D01*
X117229230Y-57389283D01*
X117039550Y-57390150D01*
X116823147Y-57390789D01*
X116579416Y-57391207D01*
X116307753Y-57391408D01*
X116007552Y-57391396D01*
X115917518Y-57391355D01*
X115642371Y-57391187D01*
X115394994Y-57390984D01*
X115173841Y-57390726D01*
X114977368Y-57390390D01*
X114804031Y-57389956D01*
X114652286Y-57389403D01*
X114520587Y-57388709D01*
X114407391Y-57387852D01*
X114311153Y-57386813D01*
X114230329Y-57385569D01*
X114163374Y-57384100D01*
X114108744Y-57382384D01*
X114064894Y-57380400D01*
X114030281Y-57378127D01*
X114003359Y-57375544D01*
X113982585Y-57372630D01*
X113966414Y-57369362D01*
X113953301Y-57365721D01*
X113949126Y-57364347D01*
X113846501Y-57314661D01*
X113761347Y-57243417D01*
X113696305Y-57154343D01*
X113654017Y-57051168D01*
X113637125Y-56937618D01*
X113636929Y-56923762D01*
X113649956Y-56816820D01*
X113686688Y-56714471D01*
X113743604Y-56623305D01*
X113817182Y-56549913D01*
X113848144Y-56528447D01*
X113869462Y-56515385D01*
X113889722Y-56503964D01*
X113910943Y-56494073D01*
X113935145Y-56485601D01*
X113964350Y-56478439D01*
X114000576Y-56472476D01*
X114045844Y-56467602D01*
X114102174Y-56463706D01*
X114171586Y-56460678D01*
X114256101Y-56458408D01*
X114357738Y-56456785D01*
X114478518Y-56455699D01*
X114620461Y-56455039D01*
X114785586Y-56454695D01*
X114975914Y-56454558D01*
X115193466Y-56454516D01*
X115201528Y-56454514D01*
X116363069Y-56454356D01*
X116363069Y-56200051D01*
X116364713Y-56076782D01*
X116370450Y-55977948D01*
X116381493Y-55898812D01*
X116399052Y-55834638D01*
X116424338Y-55780689D01*
X116458562Y-55732229D01*
X116492103Y-55695334D01*
X116537695Y-55650516D01*
X116573691Y-55620836D01*
X116610071Y-55599614D01*
X116656815Y-55580166D01*
X116673173Y-55574110D01*
X116695417Y-55566651D01*
X116719319Y-55560614D01*
X116748100Y-55555850D01*
X116784985Y-55552211D01*
X116833195Y-55549547D01*
X116895952Y-55547711D01*
X116976479Y-55546552D01*
X117077999Y-55545922D01*
X117203733Y-55545672D01*
X117289346Y-55545643D01*
X117429802Y-55545711D01*
G37*
G36*
X111435749Y-54639750D02*
G01*
X111491398Y-54648335D01*
X111507359Y-54653438D01*
X111594598Y-54692242D01*
X111659124Y-54730192D01*
X111707149Y-54771215D01*
X111723865Y-54790271D01*
X111764844Y-54845299D01*
X111796002Y-54899180D01*
X111818599Y-54957142D01*
X111833897Y-55024416D01*
X111843159Y-55106230D01*
X111847644Y-55207813D01*
X111848642Y-55307472D01*
X111848816Y-55545643D01*
X112557477Y-55545643D01*
X112724375Y-55545699D01*
X112864755Y-55546002D01*
X112981413Y-55546750D01*
X113077143Y-55548142D01*
X113154742Y-55550377D01*
X113217005Y-55553654D01*
X113266727Y-55558172D01*
X113306703Y-55564129D01*
X113339730Y-55571725D01*
X113368602Y-55581159D01*
X113396115Y-55592629D01*
X113425064Y-55606335D01*
X113427587Y-55607563D01*
X113507152Y-55661742D01*
X113574336Y-55737729D01*
X113625571Y-55829378D01*
X113657290Y-55930541D01*
X113666243Y-56018871D01*
X113658411Y-56080003D01*
X113637625Y-56153291D01*
X113607952Y-56227025D01*
X113573456Y-56289496D01*
X113571059Y-56293011D01*
X113521775Y-56347431D01*
X113454424Y-56399912D01*
X113379733Y-56443043D01*
X113320111Y-56466357D01*
X113293093Y-56470879D01*
X113245314Y-56474666D01*
X113175458Y-56477746D01*
X113082207Y-56480151D01*
X112964245Y-56481908D01*
X112820254Y-56483049D01*
X112648920Y-56483603D01*
X112554300Y-56483669D01*
X111848816Y-56483669D01*
X111848816Y-57377726D01*
X111848816Y-58271782D01*
X112545846Y-58271782D01*
X112737729Y-58272119D01*
X112901011Y-58273140D01*
X113036398Y-58274859D01*
X113144595Y-58277294D01*
X113226308Y-58280460D01*
X113282242Y-58284371D01*
X113311657Y-58288671D01*
X113388757Y-58317575D01*
X113466506Y-58363508D01*
X113534026Y-58419183D01*
X113571059Y-58462440D01*
X113606697Y-58525629D01*
X113637152Y-58600857D01*
X113658335Y-58676221D01*
X113666161Y-58739406D01*
X113653557Y-58842238D01*
X113618532Y-58941368D01*
X113564790Y-59030661D01*
X113496034Y-59103980D01*
X113415969Y-59155189D01*
X113414930Y-59155656D01*
X113386624Y-59167882D01*
X113359336Y-59178116D01*
X113330263Y-59186535D01*
X113296606Y-59193315D01*
X113255563Y-59198635D01*
X113204334Y-59202669D01*
X113140117Y-59205596D01*
X113060113Y-59207592D01*
X112961520Y-59208835D01*
X112841538Y-59209500D01*
X112697365Y-59209766D01*
X112557477Y-59209809D01*
X111848816Y-59209809D01*
X111848642Y-59447980D01*
X111846839Y-59569935D01*
X111841189Y-59667517D01*
X111831034Y-59745494D01*
X111815715Y-59808631D01*
X111794575Y-59861695D01*
X111790367Y-59870035D01*
X111726784Y-59962290D01*
X111644841Y-60034606D01*
X111549067Y-60085363D01*
X111443988Y-60112940D01*
X111334132Y-60115714D01*
X111224024Y-60092065D01*
X111197911Y-60082214D01*
X111116676Y-60038461D01*
X111043068Y-59979794D01*
X110986274Y-59913991D01*
X110972410Y-59891344D01*
X110963000Y-59874093D01*
X110954608Y-59857774D01*
X110947175Y-59840696D01*
X110940643Y-59821169D01*
X110934952Y-59797502D01*
X110930046Y-59768004D01*
X110925864Y-59730986D01*
X110922350Y-59684757D01*
X110919444Y-59627627D01*
X110917088Y-59557905D01*
X110915224Y-59473900D01*
X110913794Y-59373923D01*
X110912738Y-59256283D01*
X110911999Y-59119289D01*
X110911518Y-58961252D01*
X110911236Y-58780480D01*
X110911096Y-58575284D01*
X110911039Y-58343973D01*
X110911010Y-58114223D01*
X110910790Y-56483669D01*
X110657962Y-56483510D01*
X110541819Y-56482221D01*
X110449829Y-56477965D01*
X110376913Y-56469913D01*
X110317988Y-56457237D01*
X110267973Y-56439109D01*
X110221788Y-56414701D01*
X110216703Y-56411585D01*
X110132236Y-56342188D01*
X110064303Y-56249920D01*
X110038119Y-56198034D01*
X110017773Y-56147366D01*
X110006786Y-56103533D01*
X110003156Y-56054267D01*
X110004627Y-55992841D01*
X110018158Y-55885520D01*
X110050152Y-55796216D01*
X110103685Y-55717994D01*
X110145491Y-55675268D01*
X110190117Y-55636302D01*
X110231888Y-55606477D01*
X110275807Y-55584442D01*
X110326879Y-55568843D01*
X110390107Y-55558327D01*
X110470495Y-55551543D01*
X110573046Y-55547137D01*
X110624985Y-55545643D01*
X110903461Y-55538314D01*
X110911660Y-55259838D01*
X110914894Y-55170021D01*
X110918941Y-55088265D01*
X110923451Y-55019894D01*
X110928072Y-54970233D01*
X110932415Y-54944719D01*
X110978260Y-54853490D01*
X111047516Y-54771611D01*
X111134571Y-54704302D01*
X111233817Y-54656782D01*
X111246416Y-54652614D01*
X111301170Y-54641852D01*
X111368310Y-54637576D01*
X111435749Y-54639750D01*
G37*
G36*
X105990027Y-58279699D02*
G01*
X106089862Y-58307161D01*
X106181794Y-58356620D01*
X106261761Y-58427163D01*
X106325700Y-58517878D01*
X106353646Y-58578863D01*
X106364117Y-58610359D01*
X106371695Y-58644858D01*
X106376819Y-58687636D01*
X106379931Y-58743967D01*
X106381471Y-58819126D01*
X106381880Y-58916833D01*
X106381880Y-59180495D01*
X107089064Y-59180654D01*
X107260636Y-59180779D01*
X107405586Y-59181219D01*
X107526607Y-59182195D01*
X107626392Y-59183928D01*
X107707631Y-59186639D01*
X107773019Y-59190549D01*
X107825246Y-59195879D01*
X107867005Y-59202851D01*
X107900988Y-59211685D01*
X107929887Y-59222603D01*
X107956394Y-59235826D01*
X107983201Y-59251574D01*
X107987920Y-59254480D01*
X108053947Y-59307275D01*
X108114150Y-59376786D01*
X108159918Y-59452200D01*
X108174858Y-59489233D01*
X108192906Y-59573169D01*
X108198346Y-59665868D01*
X108191090Y-59754602D01*
X108177069Y-59811448D01*
X108134516Y-59895877D01*
X108071434Y-59975109D01*
X107995165Y-60041811D01*
X107913049Y-60088650D01*
X107891517Y-60096713D01*
X107865636Y-60100976D01*
X107815773Y-60105521D01*
X107747252Y-60110000D01*
X107665396Y-60114065D01*
X107576399Y-60117339D01*
X107297922Y-60125850D01*
X107294040Y-60561886D01*
X107290157Y-60997922D01*
X107990231Y-60998004D01*
X108166124Y-60998359D01*
X108321960Y-60999360D01*
X108456223Y-61000976D01*
X108567397Y-61003177D01*
X108653965Y-61005931D01*
X108714410Y-61009209D01*
X108747215Y-61012979D01*
X108748932Y-61013386D01*
X108857671Y-61055043D01*
X108951796Y-61117755D01*
X109027135Y-61197902D01*
X109079516Y-61291865D01*
X109084162Y-61304182D01*
X109102230Y-61383045D01*
X109107307Y-61474097D01*
X109099941Y-61566234D01*
X109080676Y-61648352D01*
X109065437Y-61684780D01*
X109011261Y-61764627D01*
X108938917Y-61835647D01*
X108857550Y-61889565D01*
X108821240Y-61905741D01*
X108809242Y-61910091D01*
X108796686Y-61914001D01*
X108782030Y-61917494D01*
X108763730Y-61920593D01*
X108740243Y-61923321D01*
X108710025Y-61925700D01*
X108671533Y-61927753D01*
X108623224Y-61929503D01*
X108563554Y-61930972D01*
X108490980Y-61932184D01*
X108403958Y-61933161D01*
X108300946Y-61933926D01*
X108180400Y-61934502D01*
X108040777Y-61934911D01*
X107880533Y-61935176D01*
X107698125Y-61935320D01*
X107492010Y-61935366D01*
X107260644Y-61935336D01*
X107002484Y-61935254D01*
X106824695Y-61935185D01*
X106548644Y-61935066D01*
X106300368Y-61934925D01*
X106078326Y-61934739D01*
X105880979Y-61934486D01*
X105706788Y-61934142D01*
X105554213Y-61933684D01*
X105421715Y-61933089D01*
X105307754Y-61932334D01*
X105210791Y-61931396D01*
X105129287Y-61930253D01*
X105061702Y-61928881D01*
X105006497Y-61927257D01*
X104962133Y-61925358D01*
X104927069Y-61923161D01*
X104899767Y-61920644D01*
X104878687Y-61917782D01*
X104862289Y-61914554D01*
X104849035Y-61910936D01*
X104837385Y-61906905D01*
X104833500Y-61905430D01*
X104734252Y-61852057D01*
X104652014Y-61776071D01*
X104589206Y-61680282D01*
X104550605Y-61576860D01*
X104545413Y-61542375D01*
X104540965Y-61485025D01*
X104537588Y-61411254D01*
X104535607Y-61327506D01*
X104535222Y-61272734D01*
X104535141Y-61027235D01*
X104271870Y-61027235D01*
X104173762Y-61026846D01*
X104099553Y-61025366D01*
X104043835Y-61022325D01*
X104001199Y-61017252D01*
X103966238Y-61009678D01*
X103933544Y-60999133D01*
X103928947Y-60997433D01*
X103829689Y-60945661D01*
X103748451Y-60873774D01*
X103687001Y-60786052D01*
X103647108Y-60686776D01*
X103630538Y-60580225D01*
X103639059Y-60470680D01*
X103670388Y-60371364D01*
X103715414Y-60296236D01*
X103779745Y-60223595D01*
X103854162Y-60162681D01*
X103910886Y-60130322D01*
X103928231Y-60122682D01*
X103945370Y-60116274D01*
X103964949Y-60110973D01*
X103989615Y-60106654D01*
X104022015Y-60103191D01*
X104064795Y-60100459D01*
X104120604Y-60098333D01*
X104192086Y-60096686D01*
X104281891Y-60095394D01*
X104392664Y-60094332D01*
X104527052Y-60093373D01*
X104687702Y-60092392D01*
X104714685Y-60092233D01*
X105443854Y-60087928D01*
X105444028Y-59396041D01*
X105444191Y-59217279D01*
X105444848Y-59065207D01*
X105446393Y-58937199D01*
X105449222Y-58830633D01*
X105453730Y-58742883D01*
X105460314Y-58671326D01*
X105469367Y-58613338D01*
X105481287Y-58566294D01*
X105496468Y-58527571D01*
X105515305Y-58494545D01*
X105538194Y-58464591D01*
X105565531Y-58435085D01*
X105592909Y-58408058D01*
X105683731Y-58338412D01*
X105782899Y-58294412D01*
X105886352Y-58275145D01*
X105990027Y-58279699D01*
G37*
G36*
X110144658Y-47359980D02*
G01*
X110261115Y-47360333D01*
X110354638Y-47361104D01*
X110428414Y-47362441D01*
X110485632Y-47364492D01*
X110529483Y-47367406D01*
X110563154Y-47371331D01*
X110589834Y-47376417D01*
X110612713Y-47382813D01*
X110631067Y-47389209D01*
X110726585Y-47438757D01*
X110807404Y-47508825D01*
X110870768Y-47594508D01*
X110913916Y-47690901D01*
X110934093Y-47793100D01*
X110928539Y-47896200D01*
X110925146Y-47912165D01*
X110884748Y-48031071D01*
X110824670Y-48128270D01*
X110744853Y-48203835D01*
X110645234Y-48257840D01*
X110636590Y-48261163D01*
X110603980Y-48272033D01*
X110569516Y-48279898D01*
X110527813Y-48285223D01*
X110473484Y-48288471D01*
X110401145Y-48290106D01*
X110305408Y-48290590D01*
X110294660Y-48290594D01*
X110031390Y-48290594D01*
X110031390Y-48737840D01*
X110031390Y-49185086D01*
X110467426Y-49181204D01*
X110903461Y-49177322D01*
X110910790Y-48891517D01*
X110914462Y-48777121D01*
X110919764Y-48687232D01*
X110927990Y-48617047D01*
X110940434Y-48561761D01*
X110958388Y-48516571D01*
X110983146Y-48476672D01*
X111016003Y-48437261D01*
X111039880Y-48412117D01*
X111106658Y-48352578D01*
X111174590Y-48313085D01*
X111252558Y-48289849D01*
X111349448Y-48279083D01*
X111352199Y-48278941D01*
X111417683Y-48276691D01*
X111464984Y-48279024D01*
X111505092Y-48287665D01*
X111548995Y-48304338D01*
X111568347Y-48312864D01*
X111668243Y-48372434D01*
X111746982Y-48452133D01*
X111804844Y-48552303D01*
X111833140Y-48635025D01*
X111837116Y-48665493D01*
X111840551Y-48724057D01*
X111843419Y-48809502D01*
X111845697Y-48920615D01*
X111847359Y-49056183D01*
X111848380Y-49214992D01*
X111848735Y-49393508D01*
X111848816Y-50093363D01*
X112577985Y-50093375D01*
X113307154Y-50093386D01*
X113395094Y-50135056D01*
X113487662Y-50191425D01*
X113560805Y-50265054D01*
X113617480Y-50359522D01*
X113650138Y-50443646D01*
X113655096Y-50474806D01*
X113659179Y-50534334D01*
X113662360Y-50621299D01*
X113664613Y-50734767D01*
X113665910Y-50873807D01*
X113666243Y-51005672D01*
X113665997Y-51157142D01*
X113664990Y-51282495D01*
X113662816Y-51384922D01*
X113659068Y-51467618D01*
X113653340Y-51533775D01*
X113645227Y-51586587D01*
X113634323Y-51629247D01*
X113620221Y-51664949D01*
X113602516Y-51696884D01*
X113580802Y-51728247D01*
X113573070Y-51738513D01*
X113513053Y-51804554D01*
X113443063Y-51861800D01*
X113372627Y-51902896D01*
X113347090Y-51912959D01*
X113315724Y-51918438D01*
X113259336Y-51923355D01*
X113182212Y-51927663D01*
X113088639Y-51931317D01*
X112982903Y-51934272D01*
X112869291Y-51936483D01*
X112752090Y-51937903D01*
X112635586Y-51938487D01*
X112524065Y-51938190D01*
X112421814Y-51936966D01*
X112333120Y-51934771D01*
X112262270Y-51931557D01*
X112213549Y-51927280D01*
X112200576Y-51925126D01*
X112084621Y-51887091D01*
X111987069Y-51827646D01*
X111909716Y-51748265D01*
X111854359Y-51650423D01*
X111848934Y-51636590D01*
X111838064Y-51603980D01*
X111830198Y-51569516D01*
X111824874Y-51527813D01*
X111821626Y-51473484D01*
X111819991Y-51401145D01*
X111819506Y-51305408D01*
X111819503Y-51294660D01*
X111819503Y-51031390D01*
X111588660Y-51031161D01*
X111445986Y-51027736D01*
X111328230Y-51017053D01*
X111231655Y-50998031D01*
X111152525Y-50969590D01*
X111087104Y-50930651D01*
X111031654Y-50880133D01*
X111019941Y-50866790D01*
X110987248Y-50825552D01*
X110962233Y-50785921D01*
X110943737Y-50742985D01*
X110930601Y-50691830D01*
X110921668Y-50627545D01*
X110915779Y-50545217D01*
X110911776Y-50439934D01*
X110910790Y-50403920D01*
X110903461Y-50120881D01*
X110471090Y-50121475D01*
X110038718Y-50122070D01*
X110031018Y-50844214D01*
X110029199Y-51009306D01*
X110027482Y-51147745D01*
X110025745Y-51262190D01*
X110023866Y-51355300D01*
X110021722Y-51429735D01*
X110019189Y-51488153D01*
X110016146Y-51533213D01*
X110012470Y-51567576D01*
X110008037Y-51593900D01*
X110002726Y-51614845D01*
X109996413Y-51633069D01*
X109994376Y-51638226D01*
X109939784Y-51735868D01*
X109862844Y-51818408D01*
X109768327Y-51881875D01*
X109661006Y-51922292D01*
X109650317Y-51924789D01*
X109581142Y-51936522D01*
X109522260Y-51936118D01*
X109457108Y-51923189D01*
X109445123Y-51919967D01*
X109334587Y-51878339D01*
X109246059Y-51819123D01*
X109176245Y-51739533D01*
X109128388Y-51652049D01*
X109093363Y-51572851D01*
X109093363Y-49644348D01*
X109093363Y-47715846D01*
X109137375Y-47623628D01*
X109191417Y-47534375D01*
X109261456Y-47463925D01*
X109353279Y-47406694D01*
X109371171Y-47398019D01*
X109452452Y-47359895D01*
X110002077Y-47359895D01*
X110144658Y-47359980D01*
G37*
G36*
X111489728Y-64647455D02*
G01*
X111577668Y-64689631D01*
X111674615Y-64750857D01*
X111750393Y-64828822D01*
X111804420Y-64919401D01*
X111836113Y-65018464D01*
X111844892Y-65121884D01*
X111830173Y-65225535D01*
X111791375Y-65325288D01*
X111727915Y-65417017D01*
X111686178Y-65459101D01*
X111657478Y-65484721D01*
X111631462Y-65506356D01*
X111605470Y-65524357D01*
X111576841Y-65539075D01*
X111542912Y-65550861D01*
X111501025Y-65560067D01*
X111448517Y-65567045D01*
X111382727Y-65572145D01*
X111300994Y-65575719D01*
X111200658Y-65578118D01*
X111079057Y-65579694D01*
X110933530Y-65580799D01*
X110761416Y-65581783D01*
X110756895Y-65581808D01*
X110038718Y-65585827D01*
X110034839Y-66025456D01*
X110030960Y-66465085D01*
X110921567Y-66461307D01*
X111812175Y-66457529D01*
X111819629Y-66179053D01*
X111822612Y-66089868D01*
X111826423Y-66009348D01*
X111830730Y-65942646D01*
X111835199Y-65894917D01*
X111839497Y-65871315D01*
X111839519Y-65871263D01*
X111867742Y-65807989D01*
X111892592Y-65762547D01*
X111920391Y-65725105D01*
X111957458Y-65685832D01*
X111960912Y-65682416D01*
X112047926Y-65616138D01*
X112146954Y-65573798D01*
X112253048Y-65555428D01*
X112361260Y-65561059D01*
X112466644Y-65590721D01*
X112564251Y-65644445D01*
X112606466Y-65678407D01*
X112654847Y-65728144D01*
X112692251Y-65782197D01*
X112719896Y-65844926D01*
X112739001Y-65920696D01*
X112750781Y-66013870D01*
X112756456Y-66128810D01*
X112757448Y-66219359D01*
X112757529Y-66464858D01*
X113482616Y-66464858D01*
X114207703Y-66464858D01*
X114286902Y-66499883D01*
X114386289Y-66556953D01*
X114464843Y-66632147D01*
X114524879Y-66728145D01*
X114559060Y-66815141D01*
X114574412Y-66909113D01*
X114564879Y-67007404D01*
X114533287Y-67104780D01*
X114482465Y-67196008D01*
X114415241Y-67275855D01*
X114334442Y-67339088D01*
X114255803Y-67376345D01*
X114238541Y-67379950D01*
X114208082Y-67383159D01*
X114162853Y-67386001D01*
X114101278Y-67388505D01*
X114021781Y-67390702D01*
X113922788Y-67392619D01*
X113802723Y-67394286D01*
X113660012Y-67395734D01*
X113493079Y-67396990D01*
X113300349Y-67398084D01*
X113080248Y-67399046D01*
X113025014Y-67399254D01*
X111848816Y-67403559D01*
X111848816Y-67842922D01*
X111848816Y-68282284D01*
X112112086Y-68282284D01*
X112210194Y-68282673D01*
X112284404Y-68284153D01*
X112340122Y-68287195D01*
X112382758Y-68292267D01*
X112417719Y-68299841D01*
X112450413Y-68310386D01*
X112455010Y-68312086D01*
X112553215Y-68363425D01*
X112634705Y-68435293D01*
X112696962Y-68523141D01*
X112737470Y-68622414D01*
X112753709Y-68728563D01*
X112743806Y-68834179D01*
X112729644Y-68888824D01*
X112713515Y-68937934D01*
X112703691Y-68961031D01*
X112668792Y-69013928D01*
X112619164Y-69071157D01*
X112565059Y-69121712D01*
X112530494Y-69146939D01*
X112507361Y-69160977D01*
X112485162Y-69173090D01*
X112461655Y-69183418D01*
X112434602Y-69192099D01*
X112401761Y-69199273D01*
X112360892Y-69205079D01*
X112309755Y-69209655D01*
X112246110Y-69213141D01*
X112167717Y-69215675D01*
X112072335Y-69217398D01*
X111957725Y-69218448D01*
X111821645Y-69218964D01*
X111661857Y-69219085D01*
X111476119Y-69218950D01*
X111372475Y-69218830D01*
X111192253Y-69218405D01*
X111023689Y-69217596D01*
X110868976Y-69216436D01*
X110730308Y-69214957D01*
X110609876Y-69213193D01*
X110509874Y-69211174D01*
X110432495Y-69208933D01*
X110379931Y-69206504D01*
X110354376Y-69203918D01*
X110353836Y-69203782D01*
X110243347Y-69159791D01*
X110150957Y-69094060D01*
X110078884Y-69009492D01*
X110029348Y-68908987D01*
X110004568Y-68795446D01*
X110002077Y-68743969D01*
X110013100Y-68632875D01*
X110047525Y-68536987D01*
X110107387Y-68451442D01*
X110137444Y-68420429D01*
X110184854Y-68377032D01*
X110224503Y-68347331D01*
X110268421Y-68323403D01*
X110317195Y-68302061D01*
X110340653Y-68297840D01*
X110388266Y-68293437D01*
X110454880Y-68289180D01*
X110535339Y-68285400D01*
X110624491Y-68282424D01*
X110624985Y-68282411D01*
X110903461Y-68274956D01*
X110907344Y-67838920D01*
X110911226Y-67402884D01*
X110218480Y-67402526D01*
X110062449Y-67402133D01*
X109918478Y-67401157D01*
X109789208Y-67399648D01*
X109677283Y-67397660D01*
X109585343Y-67395244D01*
X109516030Y-67392452D01*
X109471985Y-67389337D01*
X109459780Y-67387570D01*
X109347720Y-67349004D01*
X109253316Y-67287104D01*
X109177272Y-67202448D01*
X109128388Y-67114830D01*
X109093363Y-67035632D01*
X109093363Y-66025290D01*
X109093384Y-65828561D01*
X109093486Y-65658937D01*
X109093732Y-65514212D01*
X109094184Y-65392177D01*
X109094903Y-65290625D01*
X109095952Y-65207347D01*
X109097392Y-65140137D01*
X109099284Y-65086786D01*
X109101692Y-65045087D01*
X109104675Y-65012832D01*
X109108298Y-64987813D01*
X109112620Y-64967824D01*
X109117704Y-64950655D01*
X109123612Y-64934100D01*
X109123942Y-64933219D01*
X109170965Y-64845377D01*
X109239671Y-64766805D01*
X109322480Y-64705083D01*
X109379151Y-64678010D01*
X109395701Y-64672069D01*
X109412749Y-64666951D01*
X109432499Y-64662596D01*
X109457152Y-64658942D01*
X109488912Y-64655928D01*
X109529980Y-64653491D01*
X109582559Y-64651572D01*
X109648851Y-64650107D01*
X109731060Y-64649037D01*
X109831388Y-64648299D01*
X109952037Y-64647832D01*
X110095210Y-64647574D01*
X110263109Y-64647465D01*
X110457937Y-64647443D01*
X110475304Y-64647443D01*
X111489728Y-64647455D01*
G37*
G36*
X105631247Y-52819905D02*
G01*
X105768377Y-52821127D01*
X105877971Y-52823195D01*
X105960913Y-52826133D01*
X106018088Y-52829966D01*
X106050379Y-52834720D01*
X106055080Y-52836219D01*
X106119071Y-52863339D01*
X106164163Y-52885995D01*
X106199080Y-52909524D01*
X106232547Y-52939266D01*
X106247129Y-52953742D01*
X106287266Y-52996340D01*
X106318066Y-53035954D01*
X106340890Y-53077450D01*
X106357101Y-53125695D01*
X106368061Y-53185555D01*
X106375133Y-53261897D01*
X106379679Y-53359588D01*
X106381880Y-53435083D01*
X106389209Y-53720888D01*
X107122042Y-53728216D01*
X107266693Y-53729902D01*
X107403030Y-53731954D01*
X107528127Y-53734293D01*
X107639061Y-53736845D01*
X107732906Y-53739533D01*
X107806737Y-53742281D01*
X107857630Y-53745011D01*
X107882660Y-53747649D01*
X107884188Y-53748106D01*
X107918870Y-53763135D01*
X107957975Y-53780271D01*
X108011691Y-53814064D01*
X108068613Y-53866179D01*
X108120441Y-53927975D01*
X108157552Y-53988080D01*
X108174674Y-54027837D01*
X108185079Y-54068027D01*
X108190273Y-54117858D01*
X108191761Y-54186539D01*
X108191761Y-54197229D01*
X108190641Y-54266801D01*
X108186400Y-54316378D01*
X108177337Y-54355241D01*
X108161747Y-54392676D01*
X108152594Y-54410681D01*
X108099940Y-54491317D01*
X108032581Y-54556758D01*
X107945167Y-54611443D01*
X107869532Y-54645559D01*
X107845956Y-54649738D01*
X107798315Y-54654180D01*
X107731850Y-54658539D01*
X107651802Y-54662466D01*
X107569070Y-54665449D01*
X107297922Y-54673571D01*
X107297922Y-55105943D01*
X107297922Y-55538314D01*
X107737622Y-55538314D01*
X108177322Y-55538314D01*
X108184650Y-55252509D01*
X108188326Y-55138051D01*
X108193659Y-55048113D01*
X108201976Y-54977903D01*
X108214603Y-54922630D01*
X108232867Y-54877502D01*
X108258095Y-54837727D01*
X108291614Y-54798514D01*
X108317771Y-54771757D01*
X108406459Y-54702840D01*
X108506272Y-54658056D01*
X108612321Y-54637500D01*
X108719720Y-54641267D01*
X108823580Y-54669451D01*
X108919013Y-54722145D01*
X108963694Y-54759272D01*
X109001838Y-54797806D01*
X109033560Y-54836608D01*
X109059394Y-54878682D01*
X109079878Y-54927032D01*
X109095549Y-54984661D01*
X109106944Y-55054575D01*
X109114598Y-55139775D01*
X109119050Y-55243266D01*
X109120835Y-55368053D01*
X109120491Y-55517138D01*
X109119356Y-55630437D01*
X109117626Y-55763796D01*
X109115821Y-55871264D01*
X109113732Y-55956264D01*
X109111144Y-56022219D01*
X109107846Y-56072551D01*
X109103625Y-56110683D01*
X109098269Y-56140037D01*
X109091566Y-56164036D01*
X109085169Y-56181482D01*
X109031267Y-56278829D01*
X108954828Y-56361997D01*
X108860967Y-56426537D01*
X108756260Y-56467620D01*
X108736186Y-56470662D01*
X108700034Y-56473309D01*
X108646575Y-56475572D01*
X108574581Y-56477461D01*
X108482823Y-56478987D01*
X108370074Y-56480161D01*
X108235104Y-56480992D01*
X108076685Y-56481491D01*
X107893588Y-56481670D01*
X107684586Y-56481538D01*
X107448450Y-56481106D01*
X107246624Y-56480574D01*
X105802942Y-56476341D01*
X105722330Y-56438414D01*
X105625249Y-56378076D01*
X105548680Y-56300626D01*
X105493346Y-56210253D01*
X105459970Y-56111144D01*
X105449277Y-56007486D01*
X105461990Y-55903467D01*
X105498833Y-55803275D01*
X105560528Y-55711095D01*
X105591047Y-55678644D01*
X105639481Y-55635608D01*
X105688016Y-55602717D01*
X105741529Y-55578690D01*
X105804900Y-55562249D01*
X105883008Y-55552114D01*
X105980732Y-55547005D01*
X106098262Y-55545643D01*
X106352567Y-55545643D01*
X106352567Y-55105943D01*
X106352567Y-54666243D01*
X105912867Y-54666243D01*
X105473167Y-54666243D01*
X105473167Y-54929513D01*
X105472778Y-55027621D01*
X105471298Y-55101830D01*
X105468257Y-55157549D01*
X105463184Y-55200184D01*
X105455610Y-55235145D01*
X105445065Y-55267839D01*
X105443365Y-55272436D01*
X105390609Y-55373552D01*
X105314898Y-55456529D01*
X105216479Y-55521149D01*
X105122884Y-55559060D01*
X105099250Y-55562404D01*
X105050283Y-55565339D01*
X104975497Y-55567870D01*
X104874407Y-55570005D01*
X104746526Y-55571750D01*
X104591368Y-55573110D01*
X104408447Y-55574092D01*
X104197276Y-55574704D01*
X103957370Y-55574950D01*
X103910045Y-55574956D01*
X102747027Y-55574956D01*
X102747027Y-55829260D01*
X102746419Y-55932683D01*
X102744003Y-56012693D01*
X102738899Y-56075175D01*
X102730223Y-56126016D01*
X102717093Y-56171100D01*
X102698625Y-56216315D01*
X102684495Y-56246201D01*
X102630304Y-56325645D01*
X102555077Y-56391793D01*
X102465069Y-56442047D01*
X102366537Y-56473810D01*
X102265737Y-56484482D01*
X102168923Y-56471467D01*
X102153433Y-56466751D01*
X102043777Y-56419680D01*
X101957133Y-56357364D01*
X101890026Y-56276276D01*
X101838982Y-56172891D01*
X101825106Y-56133386D01*
X101820711Y-56104795D01*
X101816993Y-56051118D01*
X101813952Y-55976571D01*
X101811590Y-55885375D01*
X101809906Y-55781747D01*
X101808902Y-55669906D01*
X101808579Y-55554071D01*
X101808936Y-55438460D01*
X101809976Y-55327291D01*
X101811699Y-55224784D01*
X101814105Y-55135156D01*
X101817195Y-55062626D01*
X101820971Y-55011413D01*
X101824897Y-54987212D01*
X101874869Y-54871034D01*
X101943370Y-54777373D01*
X102030182Y-54706472D01*
X102111521Y-54666731D01*
X102144325Y-54655743D01*
X102178656Y-54647791D01*
X102219922Y-54642404D01*
X102273531Y-54639112D01*
X102344890Y-54637446D01*
X102439409Y-54636935D01*
X102454444Y-54636929D01*
X102717714Y-54636929D01*
X102717714Y-54382625D01*
X102718631Y-54293075D01*
X102721181Y-54211660D01*
X102725060Y-54144169D01*
X102729967Y-54096389D01*
X102733610Y-54078499D01*
X102783582Y-53962321D01*
X102852083Y-53868659D01*
X102938895Y-53797759D01*
X103020234Y-53758018D01*
X103039560Y-53751208D01*
X103059757Y-53745522D01*
X103083522Y-53740857D01*
X103113556Y-53737113D01*
X103152559Y-53734190D01*
X103203230Y-53731987D01*
X103268269Y-53730401D01*
X103350376Y-53729334D01*
X103452250Y-53728683D01*
X103576591Y-53728348D01*
X103726099Y-53728227D01*
X103817514Y-53728216D01*
X104535141Y-53728216D01*
X104535222Y-53482717D01*
X104536687Y-53360009D01*
X104541876Y-53261622D01*
X104552123Y-53182662D01*
X104568758Y-53118236D01*
X104593113Y-53063448D01*
X104626520Y-53013405D01*
X104670310Y-52963212D01*
X104679033Y-52954158D01*
X104761701Y-52886328D01*
X104833041Y-52851033D01*
X104855956Y-52842887D01*
X104878904Y-52836277D01*
X104905101Y-52831045D01*
X104937764Y-52827029D01*
X104980108Y-52824069D01*
X105035350Y-52822005D01*
X105106706Y-52820677D01*
X105197392Y-52819924D01*
X105310624Y-52819586D01*
X105449619Y-52819503D01*
X105465699Y-52819503D01*
X105631247Y-52819905D01*
G37*
G36*
X115117471Y-42821716D02*
G01*
X115216702Y-42857346D01*
X115306185Y-42912115D01*
X115379759Y-42982249D01*
X115431262Y-43063973D01*
X115431398Y-43064280D01*
X115450285Y-43110264D01*
X115464072Y-43154417D01*
X115473529Y-43202619D01*
X115479427Y-43260749D01*
X115482534Y-43334686D01*
X115483622Y-43430311D01*
X115483669Y-43463410D01*
X115483669Y-43717714D01*
X115729168Y-43717796D01*
X115815885Y-43718747D01*
X115896670Y-43721321D01*
X115965079Y-43725187D01*
X116014668Y-43730016D01*
X116033294Y-43733390D01*
X116143886Y-43774002D01*
X116233136Y-43832799D01*
X116303434Y-43912114D01*
X116357174Y-44014278D01*
X116376486Y-44067997D01*
X116381904Y-44099649D01*
X116386494Y-44154822D01*
X116389952Y-44227727D01*
X116391978Y-44312575D01*
X116392382Y-44372123D01*
X116392382Y-44626427D01*
X116635055Y-44626427D01*
X116723592Y-44627469D01*
X116806569Y-44630351D01*
X116877270Y-44634705D01*
X116928975Y-44640166D01*
X116946510Y-44643416D01*
X117017621Y-44669225D01*
X117090920Y-44709373D01*
X117155954Y-44757241D01*
X117201179Y-44804684D01*
X117234841Y-44855010D01*
X117260164Y-44904095D01*
X117278273Y-44957275D01*
X117290289Y-45019890D01*
X117297337Y-45097276D01*
X117300540Y-45194770D01*
X117301096Y-45279463D01*
X117301096Y-45532395D01*
X117575908Y-45537513D01*
X117673252Y-45539537D01*
X117746462Y-45541890D01*
X117800717Y-45545200D01*
X117841193Y-45550092D01*
X117873069Y-45557196D01*
X117901523Y-45567139D01*
X117931733Y-45580548D01*
X117932001Y-45580673D01*
X118026270Y-45634765D01*
X118098409Y-45700644D01*
X118153177Y-45783848D01*
X118193913Y-45885423D01*
X118199331Y-45917076D01*
X118203920Y-45972248D01*
X118207379Y-46045153D01*
X118209404Y-46130001D01*
X118209809Y-46189549D01*
X118209809Y-46443854D01*
X118648345Y-46443854D01*
X119086881Y-46443854D01*
X119092971Y-46176370D01*
X119096227Y-46065016D01*
X119100957Y-45978072D01*
X119108153Y-45910637D01*
X119118805Y-45857810D01*
X119133908Y-45814692D01*
X119154451Y-45776382D01*
X119181428Y-45737980D01*
X119181823Y-45737463D01*
X119266382Y-45647571D01*
X119361662Y-45584421D01*
X119465906Y-45548586D01*
X119577357Y-45540640D01*
X119694261Y-45561159D01*
X119707990Y-45565374D01*
X119813070Y-45613221D01*
X119900183Y-45682460D01*
X119966419Y-45770385D01*
X119995668Y-45832942D01*
X120003894Y-45856083D01*
X120010552Y-45879217D01*
X120015805Y-45905599D01*
X120019817Y-45938488D01*
X120022752Y-45981138D01*
X120024774Y-46036806D01*
X120026047Y-46108750D01*
X120026735Y-46200224D01*
X120027003Y-46314486D01*
X120027013Y-46454792D01*
X120027013Y-46455396D01*
X120026797Y-46603489D01*
X120026098Y-46725488D01*
X120024632Y-46824611D01*
X120022119Y-46904078D01*
X120018277Y-46967107D01*
X120012823Y-47016917D01*
X120005477Y-47056726D01*
X119995956Y-47089754D01*
X119983978Y-47119219D01*
X119969263Y-47148339D01*
X119965803Y-47154702D01*
X119924774Y-47211138D01*
X119865910Y-47269047D01*
X119798827Y-47319612D01*
X119763415Y-47340322D01*
X119697460Y-47374552D01*
X118957299Y-47381880D01*
X118217137Y-47389209D01*
X118209809Y-47667685D01*
X118205628Y-47785812D01*
X118199083Y-47879431D01*
X118188746Y-47953333D01*
X118173191Y-48012310D01*
X118150992Y-48061151D01*
X118120723Y-48104647D01*
X118080958Y-48147591D01*
X118061356Y-48166358D01*
X118020365Y-48203335D01*
X117983433Y-48231606D01*
X117945681Y-48252470D01*
X117902228Y-48267222D01*
X117848197Y-48277162D01*
X117778706Y-48283585D01*
X117688877Y-48287789D01*
X117594229Y-48290552D01*
X117308424Y-48297922D01*
X117308424Y-48737622D01*
X117308424Y-49177322D01*
X117740796Y-49177322D01*
X118173167Y-49177322D01*
X118181472Y-48906173D01*
X118186368Y-48784587D01*
X118193770Y-48687590D01*
X118205196Y-48610477D01*
X118222162Y-48548542D01*
X118246186Y-48497078D01*
X118278784Y-48451379D01*
X118321473Y-48406738D01*
X118351145Y-48379749D01*
X118426709Y-48325460D01*
X118508920Y-48292343D01*
X118604459Y-48278377D01*
X118684202Y-48278987D01*
X118783429Y-48291052D01*
X118864113Y-48317548D01*
X118935031Y-48362282D01*
X118987512Y-48410525D01*
X119022861Y-48449838D01*
X119050089Y-48489017D01*
X119075333Y-48538073D01*
X119098182Y-48591055D01*
X119102394Y-48614513D01*
X119106820Y-48662125D01*
X119111128Y-48728738D01*
X119114985Y-48809196D01*
X119118059Y-48898346D01*
X119118072Y-48898845D01*
X119125850Y-49177322D01*
X119411655Y-49184650D01*
X119527412Y-49188429D01*
X119618596Y-49193995D01*
X119689945Y-49202657D01*
X119746198Y-49215729D01*
X119792090Y-49234521D01*
X119832360Y-49260346D01*
X119871745Y-49294514D01*
X119896167Y-49318793D01*
X119953220Y-49385512D01*
X119990614Y-49452176D01*
X120011586Y-49527375D01*
X120019375Y-49619699D01*
X120019642Y-49646335D01*
X120014162Y-49745275D01*
X119995773Y-49825112D01*
X119961252Y-49894411D01*
X119907376Y-49961737D01*
X119896757Y-49972884D01*
X119821465Y-50037026D01*
X119737642Y-50079971D01*
X119636456Y-50106164D01*
X119629611Y-50107304D01*
X119600792Y-50109572D01*
X119545271Y-50111635D01*
X119465612Y-50113491D01*
X119364381Y-50115141D01*
X119244141Y-50116584D01*
X119107458Y-50117821D01*
X118956896Y-50118851D01*
X118795019Y-50119674D01*
X118624392Y-50120291D01*
X118447579Y-50120700D01*
X118267146Y-50120901D01*
X118085656Y-50120895D01*
X117905674Y-50120682D01*
X117729765Y-50120261D01*
X117560493Y-50119632D01*
X117400423Y-50118794D01*
X117252119Y-50117749D01*
X117118146Y-50116495D01*
X117001069Y-50115033D01*
X116903452Y-50113362D01*
X116827859Y-50111482D01*
X116776855Y-50109393D01*
X116754864Y-50107472D01*
X116648878Y-50075329D01*
X116552887Y-50018426D01*
X116471832Y-49940877D01*
X116410655Y-49846798D01*
X116393170Y-49806300D01*
X116387248Y-49789697D01*
X116382157Y-49772394D01*
X116377836Y-49752158D01*
X116374221Y-49726753D01*
X116371249Y-49693946D01*
X116368858Y-49651504D01*
X116366984Y-49597191D01*
X116365564Y-49528774D01*
X116364537Y-49444019D01*
X116363838Y-49340691D01*
X116363404Y-49216557D01*
X116363174Y-49069383D01*
X116363083Y-48896935D01*
X116363069Y-48737622D01*
X116363086Y-48543310D01*
X116363183Y-48376071D01*
X116363423Y-48233666D01*
X116363874Y-48113855D01*
X116364601Y-48014398D01*
X116365669Y-47933056D01*
X116367145Y-47867588D01*
X116369093Y-47815755D01*
X116371581Y-47775317D01*
X116374673Y-47744035D01*
X116378435Y-47719668D01*
X116382932Y-47699976D01*
X116388232Y-47682721D01*
X116394398Y-47665661D01*
X116394529Y-47665312D01*
X116431425Y-47592562D01*
X116484577Y-47520250D01*
X116546177Y-47457491D01*
X116608419Y-47413398D01*
X116611872Y-47411612D01*
X116671406Y-47387387D01*
X116742681Y-47370095D01*
X116830213Y-47359129D01*
X116938518Y-47353882D01*
X117044573Y-47353407D01*
X117264454Y-47355496D01*
X117268333Y-46914332D01*
X117272212Y-46473167D01*
X116554370Y-46473167D01*
X116390480Y-46473129D01*
X116253187Y-46472943D01*
X116139777Y-46472504D01*
X116047533Y-46471708D01*
X115973740Y-46470447D01*
X115915684Y-46468617D01*
X115870647Y-46466113D01*
X115835915Y-46462828D01*
X115808772Y-46458658D01*
X115786503Y-46453497D01*
X115766391Y-46447239D01*
X115751703Y-46441987D01*
X115663959Y-46395696D01*
X115584363Y-46327414D01*
X115520185Y-46244451D01*
X115485575Y-46174434D01*
X115474130Y-46140827D01*
X115465841Y-46106846D01*
X115460215Y-46067010D01*
X115456759Y-46015837D01*
X115454978Y-45947844D01*
X115454379Y-45857550D01*
X115454356Y-45827724D01*
X115454356Y-45564454D01*
X115014656Y-45564454D01*
X114574956Y-45564454D01*
X114574956Y-45818758D01*
X114574039Y-45908308D01*
X114571489Y-45989723D01*
X114567610Y-46057215D01*
X114562703Y-46104995D01*
X114559060Y-46122884D01*
X114510174Y-46238153D01*
X114444793Y-46329325D01*
X114416513Y-46356855D01*
X114323483Y-46420702D01*
X114221979Y-46459088D01*
X114116396Y-46472885D01*
X114011129Y-46462968D01*
X113910573Y-46430210D01*
X113819123Y-46375484D01*
X113741175Y-46299665D01*
X113684864Y-46211421D01*
X113670645Y-46181231D01*
X113660042Y-46153440D01*
X113652375Y-46122929D01*
X113646966Y-46084580D01*
X113643135Y-46033272D01*
X113640202Y-45963888D01*
X113637487Y-45871307D01*
X113636929Y-45850259D01*
X113629601Y-45571782D01*
X113351124Y-45564454D01*
X113232283Y-45560225D01*
X113138039Y-45553583D01*
X113063693Y-45543120D01*
X113004547Y-45527427D01*
X112955901Y-45505095D01*
X112913056Y-45474717D01*
X112871314Y-45434884D01*
X112853154Y-45415188D01*
X112786726Y-45321463D01*
X112745183Y-45218823D01*
X112728456Y-45111830D01*
X112736477Y-45005041D01*
X112769176Y-44903017D01*
X112826484Y-44810318D01*
X112862872Y-44770320D01*
X112894763Y-44739777D01*
X112924430Y-44713900D01*
X112954517Y-44692301D01*
X112987670Y-44674594D01*
X113026534Y-44660392D01*
X113073752Y-44649307D01*
X113131971Y-44640953D01*
X113203834Y-44634943D01*
X113291986Y-44630890D01*
X113399073Y-44628407D01*
X113527738Y-44627107D01*
X113680628Y-44626603D01*
X113845787Y-44626509D01*
X114545643Y-44626427D01*
X114545643Y-43908940D01*
X114545910Y-43722934D01*
X114546729Y-43565116D01*
X114548124Y-43434364D01*
X114550120Y-43329557D01*
X114552742Y-43249575D01*
X114556014Y-43193297D01*
X114559961Y-43159602D01*
X114562359Y-43150458D01*
X114591165Y-43082666D01*
X114615525Y-43034173D01*
X114640517Y-42996554D01*
X114671219Y-42961385D01*
X114684495Y-42947854D01*
X114775264Y-42876747D01*
X114878989Y-42829933D01*
X114990300Y-42809672D01*
X115014656Y-42809001D01*
X115117471Y-42821716D01*
G37*
G36*
X122479365Y-50093389D02*
G01*
X122649373Y-50093505D01*
X122794467Y-50093771D01*
X122916846Y-50094247D01*
X123018712Y-50094991D01*
X123102262Y-50096063D01*
X123169697Y-50097522D01*
X123223217Y-50099428D01*
X123265021Y-50101841D01*
X123297309Y-50104818D01*
X123322281Y-50108420D01*
X123342135Y-50112706D01*
X123359073Y-50117736D01*
X123373232Y-50122794D01*
X123473962Y-50175640D01*
X123556928Y-50251354D01*
X123609966Y-50328955D01*
X123624905Y-50358008D01*
X123636581Y-50386436D01*
X123645480Y-50418386D01*
X123652092Y-50458005D01*
X123656905Y-50509442D01*
X123660408Y-50576842D01*
X123663090Y-50664352D01*
X123665438Y-50776121D01*
X123665955Y-50804212D01*
X123669416Y-50994748D01*
X124409578Y-51002077D01*
X124576198Y-51003766D01*
X124716109Y-51005335D01*
X124831916Y-51006907D01*
X124926223Y-51008604D01*
X125001633Y-51010552D01*
X125060751Y-51012872D01*
X125106180Y-51015688D01*
X125140524Y-51019123D01*
X125166388Y-51023300D01*
X125186374Y-51028344D01*
X125203089Y-51034376D01*
X125216439Y-51040267D01*
X125311762Y-51099455D01*
X125389005Y-51178073D01*
X125445728Y-51271433D01*
X125479490Y-51374849D01*
X125487851Y-51483635D01*
X125480221Y-51546727D01*
X125448767Y-51653840D01*
X125398627Y-51743330D01*
X125327116Y-51818233D01*
X125231548Y-51881585D01*
X125149740Y-51920333D01*
X125129630Y-51922902D01*
X125083149Y-51925586D01*
X125013237Y-51928308D01*
X124922836Y-51930991D01*
X124814887Y-51933559D01*
X124692331Y-51935934D01*
X124558109Y-51938041D01*
X124415163Y-51939802D01*
X124394921Y-51940014D01*
X123669416Y-51947431D01*
X123665966Y-52079341D01*
X123662689Y-52203733D01*
X123659863Y-52302444D01*
X123657128Y-52379096D01*
X123654122Y-52437310D01*
X123650486Y-52480707D01*
X123645860Y-52512908D01*
X123639883Y-52537536D01*
X123632194Y-52558211D01*
X123622435Y-52578554D01*
X123614841Y-52593255D01*
X123562842Y-52673610D01*
X123495810Y-52738986D01*
X123408527Y-52793719D01*
X123332313Y-52828132D01*
X123308738Y-52832312D01*
X123261097Y-52836754D01*
X123194631Y-52841112D01*
X123114584Y-52845040D01*
X123031851Y-52848022D01*
X122760703Y-52856145D01*
X122753238Y-53141950D01*
X122750481Y-53240970D01*
X122747684Y-53315580D01*
X122744213Y-53370678D01*
X122739437Y-53411162D01*
X122732722Y-53441930D01*
X122723437Y-53467878D01*
X122710949Y-53493906D01*
X122706743Y-53501968D01*
X122656461Y-53576837D01*
X122591398Y-53644039D01*
X122520895Y-53694357D01*
X122502062Y-53703887D01*
X122454111Y-53723416D01*
X122404481Y-53737725D01*
X122347531Y-53747550D01*
X122277620Y-53753623D01*
X122189110Y-53756676D01*
X122089943Y-53757448D01*
X121844225Y-53757529D01*
X121848108Y-54193565D01*
X121851990Y-54629601D01*
X122130467Y-54638112D01*
X122220282Y-54641429D01*
X122302037Y-54645517D01*
X122370407Y-54650026D01*
X122420069Y-54654606D01*
X122445585Y-54658867D01*
X122519792Y-54695035D01*
X122595453Y-54752171D01*
X122641291Y-54797694D01*
X122674616Y-54836227D01*
X122700075Y-54871690D01*
X122718859Y-54908912D01*
X122732157Y-54952725D01*
X122741159Y-55007956D01*
X122747055Y-55079437D01*
X122751035Y-55171997D01*
X122753333Y-55252509D01*
X122760703Y-55538314D01*
X123039180Y-55546825D01*
X123128995Y-55550142D01*
X123210750Y-55554230D01*
X123279121Y-55558739D01*
X123328782Y-55563319D01*
X123354298Y-55567580D01*
X123431070Y-55605434D01*
X123506616Y-55663861D01*
X123573131Y-55735130D01*
X123622807Y-55811513D01*
X123639002Y-55849528D01*
X123656664Y-55931497D01*
X123661158Y-56025694D01*
X123652587Y-56118318D01*
X123636535Y-56181616D01*
X123590351Y-56270727D01*
X123521721Y-56351246D01*
X123437444Y-56416592D01*
X123351154Y-56457918D01*
X123321230Y-56463654D01*
X123267702Y-56469469D01*
X123196277Y-56474922D01*
X123112659Y-56479570D01*
X123031851Y-56482693D01*
X122760703Y-56490997D01*
X122753082Y-56776802D01*
X122749152Y-56892536D01*
X122743354Y-56983687D01*
X122734310Y-57054979D01*
X122720639Y-57111138D01*
X122700964Y-57156891D01*
X122673904Y-57196962D01*
X122638081Y-57236078D01*
X122611747Y-57261110D01*
X122566710Y-57300495D01*
X122524719Y-57330644D01*
X122480758Y-57352922D01*
X122429810Y-57368699D01*
X122366858Y-57379339D01*
X122286887Y-57386212D01*
X122184879Y-57390684D01*
X122130467Y-57392277D01*
X121851990Y-57399711D01*
X121844525Y-57685516D01*
X121841775Y-57784476D01*
X121838990Y-57859035D01*
X121835533Y-57914099D01*
X121830766Y-57954573D01*
X121824051Y-57985363D01*
X121814749Y-58011375D01*
X121802222Y-58037515D01*
X121797585Y-58046412D01*
X121737226Y-58133154D01*
X121658253Y-58204525D01*
X121566152Y-58258138D01*
X121466408Y-58291611D01*
X121364506Y-58302558D01*
X121265932Y-58288595D01*
X121251067Y-58283968D01*
X121144547Y-58236112D01*
X121055616Y-58171577D01*
X120988725Y-58093864D01*
X120971079Y-58063691D01*
X120954290Y-58028853D01*
X120940682Y-57993518D01*
X120929926Y-57954230D01*
X120921693Y-57907536D01*
X120915655Y-57849982D01*
X120911481Y-57778115D01*
X120908843Y-57688481D01*
X120907411Y-57577626D01*
X120906856Y-57442096D01*
X120906809Y-57389440D01*
X120907140Y-57232122D01*
X120908651Y-57100935D01*
X120911928Y-56992702D01*
X120917561Y-56904246D01*
X120926137Y-56832391D01*
X120938245Y-56773959D01*
X120954472Y-56725775D01*
X120975408Y-56684660D01*
X121001639Y-56647440D01*
X121033755Y-56610936D01*
X121054967Y-56589183D01*
X121102265Y-56545755D01*
X121149667Y-56512526D01*
X121202000Y-56488211D01*
X121264094Y-56471523D01*
X121340776Y-56461175D01*
X121436875Y-56455882D01*
X121557220Y-56454357D01*
X121561044Y-56454356D01*
X121815348Y-56454356D01*
X121815348Y-56014438D01*
X121815348Y-55574520D01*
X121379313Y-55578402D01*
X120943277Y-55582284D01*
X120935948Y-55860761D01*
X120932959Y-55961208D01*
X120929641Y-56037262D01*
X120925452Y-56093844D01*
X120919846Y-56135872D01*
X120912280Y-56168266D01*
X120902210Y-56195946D01*
X120897758Y-56205937D01*
X120838303Y-56302712D01*
X120761394Y-56379363D01*
X120671278Y-56435113D01*
X120572200Y-56469184D01*
X120468406Y-56480802D01*
X120364141Y-56469187D01*
X120263652Y-56433566D01*
X120171183Y-56373159D01*
X120140034Y-56344554D01*
X120094170Y-56293182D01*
X120058927Y-56239463D01*
X120033054Y-56178713D01*
X120015297Y-56106246D01*
X120004405Y-56017378D01*
X119999125Y-55907424D01*
X119998096Y-55813647D01*
X119997922Y-55575995D01*
X119268753Y-55571812D01*
X118539584Y-55567628D01*
X118457705Y-55529230D01*
X118357193Y-55466589D01*
X118276873Y-55382810D01*
X118226222Y-55297747D01*
X118187824Y-55215868D01*
X118183640Y-54486699D01*
X118181923Y-54187458D01*
X118179456Y-53757529D01*
X119118522Y-53757529D01*
X119118522Y-54187458D01*
X119118843Y-54296911D01*
X119119751Y-54396752D01*
X119121162Y-54483249D01*
X119122994Y-54552667D01*
X119125163Y-54601274D01*
X119127588Y-54625336D01*
X119128293Y-54627158D01*
X119144896Y-54629639D01*
X119187078Y-54631887D01*
X119251106Y-54633821D01*
X119333246Y-54635357D01*
X119429765Y-54636412D01*
X119536929Y-54636904D01*
X119567993Y-54636929D01*
X119997922Y-54636929D01*
X119997922Y-54197229D01*
X119997922Y-53757529D01*
X119558222Y-53757529D01*
X119118522Y-53757529D01*
X118179456Y-53757529D01*
X117941805Y-53757356D01*
X117813972Y-53755309D01*
X117710563Y-53748544D01*
X117626891Y-53735806D01*
X117558274Y-53715843D01*
X117500025Y-53687404D01*
X117447461Y-53649235D01*
X117410897Y-53615417D01*
X117372024Y-53568917D01*
X117334234Y-53511441D01*
X117317037Y-53479053D01*
X117279111Y-53398441D01*
X117274775Y-52860709D01*
X117273774Y-52716105D01*
X117273394Y-52597643D01*
X117273732Y-52502157D01*
X117274887Y-52426480D01*
X117276954Y-52367446D01*
X117280033Y-52321888D01*
X117284219Y-52286640D01*
X117289610Y-52258534D01*
X117293765Y-52242740D01*
X117339110Y-52136473D01*
X117407603Y-52047688D01*
X117497788Y-51977939D01*
X117578863Y-51939024D01*
X117610359Y-51928553D01*
X117644858Y-51920975D01*
X117687636Y-51915851D01*
X117743967Y-51912739D01*
X117819126Y-51911199D01*
X117916833Y-51910790D01*
X118180495Y-51910790D01*
X118180654Y-51657962D01*
X118181916Y-51542285D01*
X118186109Y-51450693D01*
X118194084Y-51378031D01*
X118206697Y-51319144D01*
X118224798Y-51268878D01*
X118249242Y-51222078D01*
X118254109Y-51214064D01*
X118314113Y-51140955D01*
X118395879Y-51076636D01*
X118472673Y-51035278D01*
X118558675Y-51009936D01*
X118655607Y-51001756D01*
X118752521Y-51010499D01*
X118838470Y-51035922D01*
X118854702Y-51043669D01*
X118941971Y-51101613D01*
X119017677Y-51176176D01*
X119074996Y-51259867D01*
X119097207Y-51309866D01*
X119099894Y-51331429D01*
X119102704Y-51379341D01*
X119105558Y-51450640D01*
X119108376Y-51542363D01*
X119111077Y-51651546D01*
X119113582Y-51775228D01*
X119115811Y-51910445D01*
X119117685Y-52054233D01*
X119117962Y-52079341D01*
X119125850Y-52812175D01*
X120016243Y-52815952D01*
X120906635Y-52819730D01*
X120906635Y-52379917D01*
X120906635Y-51940103D01*
X120680178Y-51940103D01*
X120551802Y-51938156D01*
X120447814Y-51931508D01*
X120363500Y-51918949D01*
X120294143Y-51899266D01*
X120235028Y-51871250D01*
X120181438Y-51833690D01*
X120146905Y-51803179D01*
X120075460Y-51717201D01*
X120028644Y-51621234D01*
X120005615Y-51519508D01*
X120005530Y-51416254D01*
X120027548Y-51315701D01*
X120070826Y-51222080D01*
X120134523Y-51139620D01*
X120217796Y-51072551D01*
X120300442Y-51031879D01*
X120333350Y-51020861D01*
X120367797Y-51012895D01*
X120409214Y-51007509D01*
X120463032Y-51004226D01*
X120534682Y-51002575D01*
X120629595Y-51002081D01*
X120641992Y-51002077D01*
X120903889Y-51002077D01*
X120910011Y-50727264D01*
X120912776Y-50624451D01*
X120916204Y-50545971D01*
X120920788Y-50486845D01*
X120927022Y-50442093D01*
X120935401Y-50406735D01*
X120944361Y-50380894D01*
X120997675Y-50284740D01*
X121074428Y-50203352D01*
X121170800Y-50140723D01*
X121177226Y-50137599D01*
X121269914Y-50093363D01*
X122282243Y-50093363D01*
X122479365Y-50093389D01*
G37*
G36*
X124722519Y-56454785D02*
G01*
X124858278Y-56456096D01*
X124967133Y-56458326D01*
X125050282Y-56461508D01*
X125108925Y-56465680D01*
X125144259Y-56470877D01*
X125148039Y-56471866D01*
X125253358Y-56517091D01*
X125343140Y-56585380D01*
X125414139Y-56673185D01*
X125463107Y-56776957D01*
X125478059Y-56832486D01*
X125483798Y-56875075D01*
X125488634Y-56939424D01*
X125492170Y-57017984D01*
X125494003Y-57103205D01*
X125494171Y-57136612D01*
X125494171Y-57363069D01*
X125745298Y-57363069D01*
X125847095Y-57364190D01*
X125934967Y-57367374D01*
X126004163Y-57372354D01*
X126049932Y-57378863D01*
X126056752Y-57380579D01*
X126158025Y-57423888D01*
X126245092Y-57488472D01*
X126315200Y-57569889D01*
X126365593Y-57663695D01*
X126393519Y-57765445D01*
X126396222Y-57870697D01*
X126388849Y-57916358D01*
X126356516Y-58023165D01*
X126309983Y-58108453D01*
X126245370Y-58178138D01*
X126190684Y-58218622D01*
X126144108Y-58246766D01*
X126099347Y-58267785D01*
X126050993Y-58282680D01*
X125993640Y-58292454D01*
X125921879Y-58298107D01*
X125830302Y-58300640D01*
X125745298Y-58301096D01*
X125494171Y-58301096D01*
X125494171Y-59649509D01*
X125494171Y-60997922D01*
X125732342Y-60998096D01*
X125853608Y-60999847D01*
X125950524Y-61005417D01*
X126027893Y-61015580D01*
X126090520Y-61031110D01*
X126143208Y-61052779D01*
X126171671Y-61068814D01*
X126257790Y-61137668D01*
X126325425Y-61223369D01*
X126372155Y-61320541D01*
X126395563Y-61423811D01*
X126393230Y-61527803D01*
X126388808Y-61551211D01*
X126349986Y-61670848D01*
X126291478Y-61768814D01*
X126213135Y-61845290D01*
X126114812Y-61900458D01*
X126099372Y-61906518D01*
X126066761Y-61917387D01*
X126032297Y-61925253D01*
X125990594Y-61930578D01*
X125936266Y-61933826D01*
X125863926Y-61935460D01*
X125768189Y-61935945D01*
X125757441Y-61935948D01*
X125494171Y-61935948D01*
X125493997Y-62174119D01*
X125490785Y-62313826D01*
X125480569Y-62428780D01*
X125462141Y-62522963D01*
X125434293Y-62600357D01*
X125395818Y-62664942D01*
X125345507Y-62720701D01*
X125321970Y-62741284D01*
X125276135Y-62775659D01*
X125229668Y-62801683D01*
X125177585Y-62820441D01*
X125114901Y-62833024D01*
X125036635Y-62840518D01*
X124937801Y-62844012D01*
X124848513Y-62844662D01*
X124585028Y-62844662D01*
X124588907Y-63288026D01*
X124592786Y-63731390D01*
X124863818Y-63735824D01*
X124960539Y-63737629D01*
X125033248Y-63739852D01*
X125087247Y-63743127D01*
X125127837Y-63748089D01*
X125160318Y-63755373D01*
X125189993Y-63765612D01*
X125219982Y-63778464D01*
X125308446Y-63832715D01*
X125385350Y-63907853D01*
X125443098Y-63995928D01*
X125456445Y-64025938D01*
X125466990Y-64057427D01*
X125474978Y-64094177D01*
X125480904Y-64141173D01*
X125485262Y-64203400D01*
X125488545Y-64285843D01*
X125490795Y-64372619D01*
X125496917Y-64647431D01*
X126224713Y-64647443D01*
X126952509Y-64647455D01*
X127040449Y-64689631D01*
X127137396Y-64750857D01*
X127213174Y-64828822D01*
X127267201Y-64919401D01*
X127298894Y-65018464D01*
X127307673Y-65121884D01*
X127292954Y-65225535D01*
X127254156Y-65325288D01*
X127190697Y-65417017D01*
X127148959Y-65459101D01*
X127098030Y-65498534D01*
X127040982Y-65533735D01*
X127009721Y-65548816D01*
X126997895Y-65553384D01*
X126984961Y-65557457D01*
X126969240Y-65561068D01*
X126949052Y-65564249D01*
X126922718Y-65567033D01*
X126888558Y-65569453D01*
X126844891Y-65571543D01*
X126790039Y-65573333D01*
X126722321Y-65574858D01*
X126640058Y-65576151D01*
X126541570Y-65577242D01*
X126425178Y-65578167D01*
X126289201Y-65578957D01*
X126131960Y-65579645D01*
X125951775Y-65580263D01*
X125746967Y-65580845D01*
X125515855Y-65581424D01*
X125313053Y-65581901D01*
X125097170Y-65582474D01*
X124889460Y-65583163D01*
X124691806Y-65583956D01*
X124506094Y-65584839D01*
X124334206Y-65585798D01*
X124178026Y-65586820D01*
X124039438Y-65587890D01*
X123920326Y-65588996D01*
X123822573Y-65590124D01*
X123748063Y-65591260D01*
X123698680Y-65592391D01*
X123676307Y-65593503D01*
X123675192Y-65593746D01*
X123671919Y-65609991D01*
X123669213Y-65651996D01*
X123667150Y-65716208D01*
X123665809Y-65799079D01*
X123665265Y-65897058D01*
X123665595Y-66006594D01*
X123665773Y-66029674D01*
X123669416Y-66457529D01*
X125318291Y-66464858D01*
X125573182Y-66465996D01*
X125800420Y-66467043D01*
X126001669Y-66468035D01*
X126178588Y-66469010D01*
X126332840Y-66470006D01*
X126466085Y-66471059D01*
X126579985Y-66472208D01*
X126676202Y-66473489D01*
X126756396Y-66474941D01*
X126822230Y-66476600D01*
X126875364Y-66478504D01*
X126917459Y-66480690D01*
X126950178Y-66483196D01*
X126975180Y-66486059D01*
X126994129Y-66489316D01*
X127008685Y-66493005D01*
X127020509Y-66497164D01*
X127031263Y-66501830D01*
X127034915Y-66503512D01*
X127134059Y-66564760D01*
X127213044Y-66646915D01*
X127270732Y-66748582D01*
X127296133Y-66823946D01*
X127301188Y-66859111D01*
X127305271Y-66919135D01*
X127308403Y-66999581D01*
X127310605Y-67096013D01*
X127311897Y-67203992D01*
X127312300Y-67319081D01*
X127311834Y-67436844D01*
X127310521Y-67552843D01*
X127308381Y-67662641D01*
X127305434Y-67761801D01*
X127301702Y-67845885D01*
X127297204Y-67910457D01*
X127291962Y-67951079D01*
X127290863Y-67955803D01*
X127253679Y-68055014D01*
X127196901Y-68138315D01*
X127150930Y-68184770D01*
X127091893Y-68232678D01*
X127034363Y-68265050D01*
X126966231Y-68287852D01*
X126920324Y-68298378D01*
X126810238Y-68306927D01*
X126703550Y-68288644D01*
X126604664Y-68245997D01*
X126517988Y-68181450D01*
X126447925Y-68097468D01*
X126403373Y-68009078D01*
X126392385Y-67976274D01*
X126384432Y-67941942D01*
X126379045Y-67900676D01*
X126375754Y-67847068D01*
X126374088Y-67775708D01*
X126373577Y-67681190D01*
X126373571Y-67666155D01*
X126373571Y-67402884D01*
X125480278Y-67402884D01*
X124586985Y-67402884D01*
X124582248Y-68124725D01*
X124581090Y-68297786D01*
X124579849Y-68444186D01*
X124578185Y-68566579D01*
X124575756Y-68667616D01*
X124572224Y-68749950D01*
X124567247Y-68816233D01*
X124560486Y-68869117D01*
X124551602Y-68911254D01*
X124540252Y-68945296D01*
X124526099Y-68973897D01*
X124508800Y-68999707D01*
X124488017Y-69025379D01*
X124463410Y-69053566D01*
X124463091Y-69053929D01*
X124377785Y-69131023D01*
X124282134Y-69183276D01*
X124180261Y-69211246D01*
X124076289Y-69215492D01*
X123974340Y-69196572D01*
X123878536Y-69155044D01*
X123792999Y-69091467D01*
X123721853Y-69006400D01*
X123689631Y-68949162D01*
X123647455Y-68861223D01*
X123647443Y-68132053D01*
X123647431Y-67402884D01*
X122746047Y-67402884D01*
X121844662Y-67402884D01*
X121844662Y-67666155D01*
X121844273Y-67764263D01*
X121842792Y-67838472D01*
X121839751Y-67894190D01*
X121834678Y-67936826D01*
X121827105Y-67971787D01*
X121816560Y-68004481D01*
X121814860Y-68009078D01*
X121763548Y-68108255D01*
X121693580Y-68188262D01*
X121609111Y-68248337D01*
X121514297Y-68287720D01*
X121413293Y-68305649D01*
X121310256Y-68301363D01*
X121209341Y-68274100D01*
X121114703Y-68223098D01*
X121034484Y-68152061D01*
X120993220Y-68101733D01*
X120961582Y-68050416D01*
X120938396Y-67993306D01*
X120922486Y-67925597D01*
X120912676Y-67842485D01*
X120907792Y-67739164D01*
X120906635Y-67629341D01*
X120906635Y-67402884D01*
X120012360Y-67402884D01*
X119118086Y-67402884D01*
X119121968Y-67838920D01*
X119125850Y-68274956D01*
X119404327Y-68283467D01*
X119494142Y-68286783D01*
X119575897Y-68290872D01*
X119644268Y-68295381D01*
X119693929Y-68299961D01*
X119719445Y-68304222D01*
X119811932Y-68349916D01*
X119892302Y-68418497D01*
X119957011Y-68504820D01*
X120002519Y-68603740D01*
X120025284Y-68710113D01*
X120027235Y-68751298D01*
X120013530Y-68866366D01*
X119973975Y-68970443D01*
X119910912Y-69060571D01*
X119826683Y-69133794D01*
X119723629Y-69187154D01*
X119668147Y-69204847D01*
X119634777Y-69209510D01*
X119576790Y-69213267D01*
X119498466Y-69216141D01*
X119404087Y-69218157D01*
X119297936Y-69219337D01*
X119184294Y-69219707D01*
X119067443Y-69219289D01*
X118951665Y-69218107D01*
X118841242Y-69216184D01*
X118740456Y-69213546D01*
X118653587Y-69210214D01*
X118584920Y-69206213D01*
X118538734Y-69201567D01*
X118523698Y-69198512D01*
X118412970Y-69150456D01*
X118323226Y-69082299D01*
X118252971Y-68992752D01*
X118225750Y-68941834D01*
X118212357Y-68911851D01*
X118202430Y-68883637D01*
X118195349Y-68852028D01*
X118190491Y-68811857D01*
X118187236Y-68757960D01*
X118184963Y-68685171D01*
X118183051Y-68588324D01*
X118183018Y-68586410D01*
X118178212Y-68311598D01*
X117486826Y-68311424D01*
X117316391Y-68311259D01*
X117172530Y-68310731D01*
X117052503Y-68309647D01*
X116953571Y-68307813D01*
X116872995Y-68305037D01*
X116808034Y-68301127D01*
X116755950Y-68295890D01*
X116714004Y-68289133D01*
X116679456Y-68280663D01*
X116649567Y-68270289D01*
X116621597Y-68257817D01*
X116604904Y-68249407D01*
X116529754Y-68196425D01*
X116462038Y-68122527D01*
X116408383Y-68036098D01*
X116380579Y-67965466D01*
X116373750Y-67925866D01*
X116368388Y-67861729D01*
X116364760Y-67777804D01*
X116363132Y-67678841D01*
X116363069Y-67654011D01*
X116363069Y-67402884D01*
X116124898Y-67402710D01*
X115997295Y-67400717D01*
X115894094Y-67394069D01*
X115810575Y-67381460D01*
X115742017Y-67361580D01*
X115683701Y-67333121D01*
X115630906Y-67294773D01*
X115586993Y-67253576D01*
X115544139Y-67205860D01*
X115511381Y-67158072D01*
X115487441Y-67105353D01*
X115471045Y-67042844D01*
X115460917Y-66965685D01*
X115455779Y-66869016D01*
X115454356Y-66748476D01*
X115454356Y-66494171D01*
X115227899Y-66494171D01*
X115097491Y-66492184D01*
X114991600Y-66485394D01*
X114905646Y-66472557D01*
X114835049Y-66452431D01*
X114775231Y-66423773D01*
X114721611Y-66385338D01*
X114678413Y-66344999D01*
X114608846Y-66254943D01*
X114564871Y-66156013D01*
X114545775Y-66052272D01*
X114550845Y-65947783D01*
X114579368Y-65846609D01*
X114630633Y-65752813D01*
X114703926Y-65670458D01*
X114798536Y-65603607D01*
X114809463Y-65597764D01*
X114875418Y-65563473D01*
X115469012Y-65563473D01*
X116062607Y-65563473D01*
X116133205Y-65599537D01*
X116211838Y-65652719D01*
X116284174Y-65725368D01*
X116341031Y-65807783D01*
X116353277Y-65832047D01*
X116364631Y-65859645D01*
X116373214Y-65889624D01*
X116379583Y-65926942D01*
X116384295Y-65976557D01*
X116387908Y-66043427D01*
X116390979Y-66132512D01*
X116392277Y-66179053D01*
X116399711Y-66457529D01*
X116678187Y-66465728D01*
X116768004Y-66468962D01*
X116849760Y-66473009D01*
X116918131Y-66477519D01*
X116967792Y-66482140D01*
X116993306Y-66486483D01*
X117078352Y-66529292D01*
X117158017Y-66594770D01*
X117225351Y-66676318D01*
X117262905Y-66742590D01*
X117274037Y-66769773D01*
X117282462Y-66799858D01*
X117288727Y-66837763D01*
X117293375Y-66888408D01*
X117296950Y-66956714D01*
X117299997Y-67047599D01*
X117301096Y-67087766D01*
X117308424Y-67366243D01*
X117744460Y-67370125D01*
X118180495Y-67374007D01*
X118180654Y-66666605D01*
X118180780Y-66494993D01*
X118181222Y-66350003D01*
X118182199Y-66228947D01*
X118183592Y-66148696D01*
X121844381Y-66148696D01*
X121844978Y-66238983D01*
X121846200Y-66319035D01*
X121848072Y-66384458D01*
X121850617Y-66430859D01*
X121853859Y-66453844D01*
X121854647Y-66455301D01*
X121871296Y-66457699D01*
X121913536Y-66459632D01*
X121977648Y-66461048D01*
X122059910Y-66461895D01*
X122156604Y-66462124D01*
X122264010Y-66461681D01*
X122298011Y-66461408D01*
X122731390Y-66457529D01*
X122734452Y-66029315D01*
X122734837Y-65912804D01*
X122734295Y-65809604D01*
X122732902Y-65722871D01*
X122730731Y-65655763D01*
X122727857Y-65611433D01*
X122724357Y-65593039D01*
X122724095Y-65592807D01*
X122707523Y-65591205D01*
X122665907Y-65589670D01*
X122603514Y-65588241D01*
X122524614Y-65586954D01*
X122433475Y-65585847D01*
X122334366Y-65584957D01*
X122231555Y-65584322D01*
X122129311Y-65583979D01*
X122031902Y-65583966D01*
X121943598Y-65584320D01*
X121868666Y-65585078D01*
X121859318Y-65585222D01*
X121855755Y-65599205D01*
X121852630Y-65638106D01*
X121849965Y-65697528D01*
X121847785Y-65773080D01*
X121846113Y-65860366D01*
X121844972Y-65954994D01*
X121844387Y-66052568D01*
X121844381Y-66148696D01*
X118183592Y-66148696D01*
X118183931Y-66129134D01*
X118186639Y-66047873D01*
X118190542Y-65982476D01*
X118195860Y-65930251D01*
X118202813Y-65888510D01*
X118211622Y-65854561D01*
X118222505Y-65825715D01*
X118235683Y-65799281D01*
X118251375Y-65772570D01*
X118254109Y-65768132D01*
X118311357Y-65697819D01*
X118389168Y-65634322D01*
X118465342Y-65591002D01*
X118539584Y-65556431D01*
X119268968Y-65556288D01*
X119998352Y-65556145D01*
X119994473Y-65112781D01*
X119990594Y-64669416D01*
X119734102Y-64665436D01*
X119614612Y-64662329D01*
X119519661Y-64656429D01*
X119444525Y-64646660D01*
X119384480Y-64631944D01*
X119334802Y-64611203D01*
X119290767Y-64583361D01*
X119258358Y-64556955D01*
X119209954Y-64511482D01*
X119172312Y-64467512D01*
X119143939Y-64420367D01*
X119123340Y-64365373D01*
X119109019Y-64297853D01*
X119099481Y-64213132D01*
X119093233Y-64106534D01*
X119090496Y-64031851D01*
X119084292Y-63836595D01*
X120938561Y-63836595D01*
X120938572Y-64001082D01*
X120938737Y-64151060D01*
X120939049Y-64284436D01*
X120939505Y-64399113D01*
X120940099Y-64492996D01*
X120940826Y-64563992D01*
X120941681Y-64610004D01*
X120942659Y-64628939D01*
X120942729Y-64629187D01*
X120949352Y-64632422D01*
X120967599Y-64635243D01*
X120998980Y-64637666D01*
X121045004Y-64639708D01*
X121107181Y-64641385D01*
X121187019Y-64642714D01*
X121286030Y-64643711D01*
X121405722Y-64644393D01*
X121547604Y-64644775D01*
X121713188Y-64644874D01*
X121903981Y-64644706D01*
X122121493Y-64644289D01*
X122294924Y-64643844D01*
X123640103Y-64640103D01*
X123640103Y-63291690D01*
X123640103Y-61943277D01*
X122291690Y-61943277D01*
X120943277Y-61943277D01*
X120939495Y-63277033D01*
X120939017Y-63472475D01*
X120938707Y-63659694D01*
X120938561Y-63836595D01*
X119084292Y-63836595D01*
X119081880Y-63760703D01*
X118796075Y-63753238D01*
X118697055Y-63750481D01*
X118622445Y-63747684D01*
X118567347Y-63744213D01*
X118526863Y-63739437D01*
X118496095Y-63732722D01*
X118470146Y-63723437D01*
X118444119Y-63710949D01*
X118436057Y-63706743D01*
X118372092Y-63664585D01*
X118309577Y-63609033D01*
X118258618Y-63549713D01*
X118239393Y-63519374D01*
X118224394Y-63489175D01*
X118212173Y-63457989D01*
X118202448Y-63422548D01*
X118194938Y-63379582D01*
X118189362Y-63325824D01*
X118185439Y-63258004D01*
X118182888Y-63172855D01*
X118181428Y-63067109D01*
X118180777Y-62937496D01*
X118180654Y-62836329D01*
X118180825Y-62685835D01*
X118181708Y-62561450D01*
X118183712Y-62459974D01*
X118187241Y-62378205D01*
X118192702Y-62312940D01*
X118200501Y-62260979D01*
X118211044Y-62219119D01*
X118224738Y-62184159D01*
X118241989Y-62152897D01*
X118263202Y-62122132D01*
X118272898Y-62109234D01*
X118333199Y-62042691D01*
X118402930Y-61985514D01*
X118472917Y-61944776D01*
X118499648Y-61934437D01*
X118531889Y-61928452D01*
X118587512Y-61922589D01*
X118660589Y-61917290D01*
X118745190Y-61912997D01*
X118821725Y-61910468D01*
X119089209Y-61903839D01*
X119089209Y-61465319D01*
X119089209Y-61026799D01*
X118653173Y-61030681D01*
X118217137Y-61034564D01*
X118209809Y-61313040D01*
X118207058Y-61410706D01*
X118204221Y-61484184D01*
X118200616Y-61538594D01*
X118195566Y-61579053D01*
X118188390Y-61610682D01*
X118178409Y-61638600D01*
X118164943Y-61667926D01*
X118161875Y-61674202D01*
X118100604Y-61768270D01*
X118021645Y-61842375D01*
X117929444Y-61895590D01*
X117828447Y-61926985D01*
X117723099Y-61935634D01*
X117617846Y-61920607D01*
X117517136Y-61880976D01*
X117436546Y-61825654D01*
X117384933Y-61776713D01*
X117344956Y-61725978D01*
X117315254Y-61668932D01*
X117294465Y-61601063D01*
X117281226Y-61517853D01*
X117274175Y-61414790D01*
X117271950Y-61287357D01*
X117271941Y-61280063D01*
X117271782Y-61027235D01*
X116554155Y-61027235D01*
X116390371Y-61027200D01*
X116253188Y-61027021D01*
X116139891Y-61026594D01*
X116047767Y-61025810D01*
X115974105Y-61024563D01*
X115916190Y-61022747D01*
X115871309Y-61020254D01*
X115836749Y-61016977D01*
X115809797Y-61012811D01*
X115787739Y-61007647D01*
X115767863Y-61001380D01*
X115752157Y-60995668D01*
X115662268Y-60947849D01*
X115581550Y-60878176D01*
X115517410Y-60794058D01*
X115485923Y-60729434D01*
X115458291Y-60616610D01*
X115458222Y-60505048D01*
X115484090Y-60398697D01*
X115534268Y-60301507D01*
X115607130Y-60217427D01*
X115701050Y-60150406D01*
X115730555Y-60135397D01*
X115761188Y-60121694D01*
X115789613Y-60111542D01*
X115821020Y-60104307D01*
X115860600Y-60099356D01*
X115913544Y-60096056D01*
X115985041Y-60093772D01*
X116080284Y-60091871D01*
X116088257Y-60091731D01*
X116232468Y-60089209D01*
X118209373Y-60089209D01*
X119103647Y-60089209D01*
X119997922Y-60089209D01*
X119997922Y-59649395D01*
X119997922Y-59209582D01*
X119107529Y-59213359D01*
X118217137Y-59217137D01*
X118213255Y-59653173D01*
X118209373Y-60089209D01*
X116232468Y-60089209D01*
X116363069Y-60086925D01*
X116363069Y-59379406D01*
X116363140Y-59213141D01*
X116363469Y-59073392D01*
X116364230Y-58957359D01*
X116365595Y-58862245D01*
X116367740Y-58785251D01*
X116370838Y-58723579D01*
X116375062Y-58674431D01*
X116380586Y-58635008D01*
X116387585Y-58602513D01*
X116396230Y-58574146D01*
X116406698Y-58547111D01*
X116416079Y-58525503D01*
X116444660Y-58479801D01*
X116489379Y-58427547D01*
X116541414Y-58377561D01*
X116591946Y-58338663D01*
X116616790Y-58324793D01*
X116644681Y-58312818D01*
X116671757Y-58302795D01*
X116700811Y-58294550D01*
X116734641Y-58287911D01*
X116776040Y-58282703D01*
X116827804Y-58278754D01*
X116892730Y-58275890D01*
X116973611Y-58273938D01*
X117073244Y-58272725D01*
X117194424Y-58272077D01*
X117339947Y-58271821D01*
X117471834Y-58271782D01*
X118180495Y-58271782D01*
X118180495Y-58022927D01*
X118180962Y-57926607D01*
X118182729Y-57853531D01*
X118186351Y-57797640D01*
X118192378Y-57752873D01*
X118201365Y-57713172D01*
X118211923Y-57678337D01*
X118259421Y-57578627D01*
X118329144Y-57493951D01*
X118416434Y-57427674D01*
X118516630Y-57383165D01*
X118625072Y-57363789D01*
X118648032Y-57363228D01*
X118762543Y-57377287D01*
X118867780Y-57417076D01*
X118959745Y-57479844D01*
X119034436Y-57562839D01*
X119087853Y-57663309D01*
X119089091Y-57666582D01*
X119099961Y-57699192D01*
X119107826Y-57733656D01*
X119113151Y-57775359D01*
X119116399Y-57829688D01*
X119118034Y-57902027D01*
X119118519Y-57997764D01*
X119118522Y-58008512D01*
X119118522Y-58271782D01*
X119825706Y-58271941D01*
X119997273Y-58272066D01*
X120142219Y-58272505D01*
X120263237Y-58273481D01*
X120363019Y-58275213D01*
X120444259Y-58277925D01*
X120509649Y-58281836D01*
X120561881Y-58287169D01*
X120603648Y-58294145D01*
X120637642Y-58302986D01*
X120666557Y-58313912D01*
X120693085Y-58327145D01*
X120719918Y-58342908D01*
X120724733Y-58345873D01*
X120792599Y-58401177D01*
X120853675Y-58475524D01*
X120899847Y-58558673D01*
X120906518Y-58575295D01*
X120911866Y-58590362D01*
X120916524Y-58606395D01*
X120920540Y-58625417D01*
X120923961Y-58649450D01*
X120926835Y-58680518D01*
X120929209Y-58720644D01*
X120931131Y-58771852D01*
X120932648Y-58836163D01*
X120933809Y-58915601D01*
X120934661Y-59012190D01*
X120935251Y-59127953D01*
X120935627Y-59264911D01*
X120935837Y-59425090D01*
X120935928Y-59610511D01*
X120935948Y-59823198D01*
X120935948Y-59825939D01*
X120935948Y-60997922D01*
X121375151Y-60997922D01*
X121814354Y-60997922D01*
X121816704Y-60401965D01*
X123665545Y-60401965D01*
X123665619Y-60539832D01*
X123665938Y-60663833D01*
X123666488Y-60771384D01*
X123667257Y-60859901D01*
X123668232Y-60926799D01*
X123669398Y-60969495D01*
X123670712Y-60985361D01*
X123686775Y-60988516D01*
X123728480Y-60991381D01*
X123792157Y-60993852D01*
X123874135Y-60995826D01*
X123970743Y-60997201D01*
X124078312Y-60997872D01*
X124117423Y-60997922D01*
X124556372Y-60997922D01*
X124552594Y-60107529D01*
X124548816Y-59217137D01*
X124109116Y-59217137D01*
X123669416Y-59217137D01*
X123666182Y-60094969D01*
X123665728Y-60252816D01*
X123665545Y-60401965D01*
X121816704Y-60401965D01*
X121818993Y-59821725D01*
X121820000Y-59594084D01*
X121821132Y-59394221D01*
X121822418Y-59220601D01*
X121823886Y-59071687D01*
X121825564Y-58945946D01*
X121827483Y-58841842D01*
X121829670Y-58757839D01*
X121832155Y-58692402D01*
X121834965Y-58643995D01*
X121838131Y-58611084D01*
X121841680Y-58592134D01*
X121842062Y-58590935D01*
X121875844Y-58521826D01*
X121928753Y-58449741D01*
X121993400Y-58384206D01*
X122017947Y-58364185D01*
X122039205Y-58347956D01*
X122058987Y-58333747D01*
X122079293Y-58321424D01*
X122102121Y-58310852D01*
X122129467Y-58301898D01*
X122163330Y-58294427D01*
X122205708Y-58288305D01*
X122258598Y-58283398D01*
X122323999Y-58279572D01*
X122403908Y-58276693D01*
X122500323Y-58274626D01*
X122615242Y-58273237D01*
X122750662Y-58272392D01*
X122908582Y-58271957D01*
X123091000Y-58271798D01*
X123299913Y-58271780D01*
X123393818Y-58271782D01*
X124556581Y-58271782D01*
X124552699Y-57835746D01*
X124548816Y-57399711D01*
X124270340Y-57392382D01*
X124172733Y-57389638D01*
X124099307Y-57386813D01*
X124044933Y-57383222D01*
X124004484Y-57378180D01*
X123972833Y-57371002D01*
X123944852Y-57361002D01*
X123915414Y-57347496D01*
X123908282Y-57344010D01*
X123830606Y-57294649D01*
X123759724Y-57229096D01*
X123703126Y-57155381D01*
X123670765Y-57089225D01*
X123653463Y-57009377D01*
X123648416Y-56916485D01*
X123655580Y-56824113D01*
X123671820Y-56754418D01*
X123708652Y-56682157D01*
X123766333Y-56610467D01*
X123837231Y-56546863D01*
X123913717Y-56498864D01*
X123944779Y-56485493D01*
X123968361Y-56477307D01*
X123992115Y-56470694D01*
X124019339Y-56465488D01*
X124053331Y-56461520D01*
X124097388Y-56458623D01*
X124154807Y-56456631D01*
X124228887Y-56455375D01*
X124322925Y-56454689D01*
X124440219Y-56454405D01*
X124558658Y-56454356D01*
X124722519Y-56454785D01*
G37*
D14*
%TO.C,D1*%
X78935000Y-51265000D02*
X78935000Y-47255000D01*
X78935000Y-51265000D02*
X80935000Y-51265000D01*
X80935000Y-51265000D02*
X80935000Y-47255000D01*
%TO.C,TP2*%
X90885000Y-55905000D02*
G75*
G02*
X88985000Y-55905000I-950000J0D01*
G01*
X88985000Y-55905000D02*
G75*
G02*
X90885000Y-55905000I950000J0D01*
G01*
D12*
%TO.C,TP7*%
X88430000Y-62600000D02*
X88930000Y-62100000D01*
X88430000Y-63400000D02*
X88430000Y-62600000D01*
X88930000Y-62100000D02*
X92530000Y-62100000D01*
X88930000Y-63900000D02*
X88430000Y-63400000D01*
X92530000Y-62100000D02*
X93030000Y-62600000D01*
X92530000Y-63900000D02*
X88930000Y-63900000D01*
X93030000Y-62600000D02*
X93030000Y-63400000D01*
X93030000Y-63400000D02*
X92530000Y-63900000D01*
D14*
%TO.C,TP4*%
X80750000Y-62900000D02*
G75*
G02*
X77250000Y-62900000I-1750000J0D01*
G01*
X77250000Y-62900000D02*
G75*
G02*
X80750000Y-62900000I1750000J0D01*
G01*
%TO.C,TP5*%
X80750000Y-70000000D02*
G75*
G02*
X77250000Y-70000000I-1750000J0D01*
G01*
X77250000Y-70000000D02*
G75*
G02*
X80750000Y-70000000I1750000J0D01*
G01*
%TO.C,TP1*%
X32300000Y-41300000D02*
X35700000Y-41300000D01*
X32300000Y-44700000D02*
X32300000Y-41300000D01*
X35700000Y-41300000D02*
X35700000Y-44700000D01*
X35700000Y-44700000D02*
X32300000Y-44700000D01*
%TO.C,J1*%
X33250000Y-60330000D02*
X34950000Y-60330000D01*
X33250000Y-69670000D02*
X34950000Y-69670000D01*
%TO.C,TP6*%
X92750000Y-70000000D02*
G75*
G02*
X89250000Y-70000000I-1750000J0D01*
G01*
X89250000Y-70000000D02*
G75*
G02*
X92750000Y-70000000I1750000J0D01*
G01*
%TO.C,TP3*%
X80885000Y-55905000D02*
G75*
G02*
X78985000Y-55905000I-950000J0D01*
G01*
X78985000Y-55905000D02*
G75*
G02*
X80885000Y-55905000I950000J0D01*
G01*
%TO.C,D2*%
X88935000Y-51265000D02*
X88935000Y-47255000D01*
X88935000Y-51265000D02*
X90935000Y-51265000D01*
X90935000Y-51265000D02*
X90935000Y-47255000D01*
%TD*%
M02*
