%TF.GenerationSoftware,KiCad,Pcbnew,9.0.0*%
%TF.CreationDate,2025-06-02T07:14:14+02:00*%
%TF.ProjectId,footprint measures,666f6f74-7072-4696-9e74-206d65617375,rev?*%
%TF.SameCoordinates,Original*%
%TF.FileFunction,Copper,L1,Top*%
%TF.FilePolarity,Positive*%
%FSLAX46Y46*%
G04 Gerber Fmt 4.6, Leading zero omitted, Abs format (unit mm)*
G04 Created by KiCad (PCBNEW 9.0.0) date 2025-06-02 07:14:14*
%MOMM*%
%LPD*%
G01*
G04 APERTURE LIST*
G04 Aperture macros list*
%AMRoundRect*
0 Rectangle with rounded corners*
0 $1 Rounding radius*
0 $2 $3 $4 $5 $6 $7 $8 $9 X,Y pos of 4 corners*
0 Add a 4 corners polygon primitive as box body*
4,1,4,$2,$3,$4,$5,$6,$7,$8,$9,$2,$3,0*
0 Add four circle primitives for the rounded corners*
1,1,$1+$1,$2,$3*
1,1,$1+$1,$4,$5*
1,1,$1+$1,$6,$7*
1,1,$1+$1,$8,$9*
0 Add four rect primitives between the rounded corners*
20,1,$1+$1,$2,$3,$4,$5,0*
20,1,$1+$1,$4,$5,$6,$7,0*
20,1,$1+$1,$6,$7,$8,$9,0*
20,1,$1+$1,$8,$9,$2,$3,0*%
G04 Aperture macros list end*
%TA.AperFunction,EtchedComponent*%
%ADD10C,2.960000*%
%TD*%
%TA.AperFunction,EtchedComponent*%
%ADD11C,0.200000*%
%TD*%
%TA.AperFunction,EtchedComponent*%
%ADD12C,0.250000*%
%TD*%
%TA.AperFunction,SMDPad,CuDef*%
%ADD13RoundRect,0.225000X0.375000X-0.225000X0.375000X0.225000X-0.375000X0.225000X-0.375000X-0.225000X0*%
%TD*%
%TA.AperFunction,SMDPad,CuDef*%
%ADD14C,1.500000*%
%TD*%
%TA.AperFunction,ComponentPad*%
%ADD15C,1.400000*%
%TD*%
%TA.AperFunction,ComponentPad*%
%ADD16C,2.800000*%
%TD*%
%TA.AperFunction,SMDPad,CuDef*%
%ADD17C,2.000000*%
%TD*%
%TA.AperFunction,ComponentPad*%
%ADD18C,1.000000*%
%TD*%
%TA.AperFunction,ComponentPad*%
%ADD19R,3.000000X3.000000*%
%TD*%
%TA.AperFunction,SMDPad,CuDef*%
%ADD20RoundRect,0.175000X-0.425000X0.175000X-0.425000X-0.175000X0.425000X-0.175000X0.425000X0.175000X0*%
%TD*%
%TA.AperFunction,SMDPad,CuDef*%
%ADD21RoundRect,0.190000X0.410000X-0.190000X0.410000X0.190000X-0.410000X0.190000X-0.410000X-0.190000X0*%
%TD*%
%TA.AperFunction,SMDPad,CuDef*%
%ADD22RoundRect,0.200000X0.400000X-0.200000X0.400000X0.200000X-0.400000X0.200000X-0.400000X-0.200000X0*%
%TD*%
%TA.AperFunction,SMDPad,CuDef*%
%ADD23RoundRect,0.175000X0.425000X-0.175000X0.425000X0.175000X-0.425000X0.175000X-0.425000X-0.175000X0*%
%TD*%
%TA.AperFunction,SMDPad,CuDef*%
%ADD24RoundRect,0.190000X-0.410000X0.190000X-0.410000X-0.190000X0.410000X-0.190000X0.410000X0.190000X0*%
%TD*%
%TA.AperFunction,SMDPad,CuDef*%
%ADD25RoundRect,0.200000X-0.400000X0.200000X-0.400000X-0.200000X0.400000X-0.200000X0.400000X0.200000X0*%
%TD*%
%TA.AperFunction,HeatsinkPad*%
%ADD26O,1.700000X1.100000*%
%TD*%
%TA.AperFunction,ComponentPad*%
%ADD27C,3.000000*%
%TD*%
%TA.AperFunction,SMDPad,CuDef*%
%ADD28C,2.600000*%
%TD*%
%TA.AperFunction,ViaPad*%
%ADD29C,0.600000*%
%TD*%
%TA.AperFunction,ViaPad*%
%ADD30C,4.000000*%
%TD*%
%TA.AperFunction,Conductor*%
%ADD31C,0.200000*%
%TD*%
%TA.AperFunction,Conductor*%
%ADD32C,0.400000*%
%TD*%
%TA.AperFunction,Conductor*%
%ADD33C,0.500000*%
%TD*%
%TA.AperFunction,Conductor*%
%ADD34C,0.300000*%
%TD*%
G04 APERTURE END LIST*
%TO.C,S2*%
D10*
X67415000Y-49180000D02*
G75*
G02*
X64455000Y-49180000I-1480000J0D01*
G01*
X64455000Y-49180000D02*
G75*
G02*
X67415000Y-49180000I1480000J0D01*
G01*
D11*
X71385000Y-49180000D02*
G75*
G02*
X60485000Y-49180000I-5450000J0D01*
G01*
X60485000Y-49180000D02*
G75*
G02*
X71385000Y-49180000I5450000J0D01*
G01*
X73435000Y-49180000D02*
G75*
G02*
X58435000Y-49180000I-7500000J0D01*
G01*
X58435000Y-49180000D02*
G75*
G02*
X73435000Y-49180000I7500000J0D01*
G01*
%TO.C,S1*%
D10*
X49480000Y-49180000D02*
G75*
G02*
X46520000Y-49180000I-1480000J0D01*
G01*
X46520000Y-49180000D02*
G75*
G02*
X49480000Y-49180000I1480000J0D01*
G01*
D11*
X53450000Y-49180000D02*
G75*
G02*
X42550000Y-49180000I-5450000J0D01*
G01*
X42550000Y-49180000D02*
G75*
G02*
X53450000Y-49180000I5450000J0D01*
G01*
D12*
X56000000Y-49180000D02*
G75*
G02*
X40000000Y-49180000I-8000000J0D01*
G01*
X40000000Y-49180000D02*
G75*
G02*
X56000000Y-49180000I8000000J0D01*
G01*
%TD*%
D13*
%TO.P,D1,1,K*%
%TO.N,Net-(D1-K)*%
X79935000Y-50555000D03*
%TO.P,D1,2,A*%
%TO.N,Net-(D1-A)*%
X79935000Y-47255000D03*
%TD*%
D14*
%TO.P,TP2,1,1*%
%TO.N,Net-(D2-K)*%
X89935000Y-55905000D03*
%TD*%
D15*
%TO.P,TP7,1,1*%
%TO.N,unconnected-(TP7-Pad1)*%
X89460000Y-63000000D03*
%TO.P,TP7,2,2*%
%TO.N,unconnected-(TP7-Pad2)*%
X92000000Y-63000000D03*
%TD*%
D16*
%TO.P,TP4,1,1*%
%TO.N,unconnected-(TP4-Pad1)*%
X79000000Y-62900000D03*
%TD*%
%TO.P,TP5,1,1*%
%TO.N,unconnected-(TP5-Pad1)*%
X79000000Y-70000000D03*
%TD*%
D17*
%TO.P,S2,1,1*%
%TO.N,Net-(S1-Pad1)*%
X59455000Y-48860000D03*
X59455000Y-49410000D03*
X59525000Y-48280000D03*
X59525000Y-50090000D03*
X59635000Y-47620000D03*
X59635000Y-50730000D03*
X59785000Y-47060000D03*
X59835000Y-51330000D03*
X60015000Y-46550000D03*
X60035000Y-51930000D03*
X60255000Y-45980000D03*
X60415000Y-52510000D03*
X60565000Y-45550000D03*
X60665000Y-52980000D03*
X61005000Y-44980000D03*
X61135000Y-53510000D03*
X61385000Y-44530000D03*
X61595000Y-54030000D03*
X61855000Y-44130000D03*
X62085000Y-54360000D03*
X62345000Y-43780000D03*
X62595000Y-54760000D03*
X62955000Y-43420000D03*
X63145000Y-55020000D03*
X63515000Y-43150000D03*
X63745000Y-55290000D03*
X64035000Y-42960000D03*
X64285000Y-55450000D03*
X64625000Y-42820000D03*
X64925000Y-55590000D03*
X65195000Y-42730000D03*
X65635000Y-55680000D03*
X65825000Y-42660000D03*
X66215000Y-55680000D03*
X66395000Y-42690000D03*
X66895000Y-55590000D03*
X66975000Y-42770000D03*
X67435000Y-42830000D03*
X67485000Y-55450000D03*
X67995000Y-43040000D03*
X68155000Y-55280000D03*
X68505000Y-43240000D03*
X68785000Y-54990000D03*
X69065000Y-43510000D03*
X69325000Y-54700000D03*
X69685000Y-43890000D03*
X69795000Y-54360000D03*
X70155000Y-44300000D03*
X70265000Y-54010000D03*
X70595000Y-44660000D03*
X70635000Y-53610000D03*
X70995000Y-45120000D03*
X71075000Y-53140000D03*
X71355000Y-45660000D03*
X71495000Y-52520000D03*
X71765000Y-46270000D03*
X71765000Y-51930000D03*
X71955000Y-46850000D03*
X72085000Y-51350000D03*
X72105000Y-47300000D03*
X72215000Y-50700000D03*
X72315000Y-47880000D03*
X72355000Y-48580000D03*
X72375000Y-49780000D03*
X72395000Y-49180000D03*
X72395000Y-50180000D03*
D18*
%TO.P,S2,2,2*%
%TO.N,Net-(D2-A)*%
X65935000Y-47230000D03*
%TD*%
D19*
%TO.P,TP1,1,1*%
%TO.N,Net-(S1-Pad1)*%
X34000000Y-43000000D03*
%TD*%
D20*
%TO.P,J1,A5,CC1*%
%TO.N,unconnected-(J1-CC1-PadA5)*%
X36080000Y-64500000D03*
D21*
%TO.P,J1,A9,VBUS*%
%TO.N,Net-(J1-VBUS-PadA9)*%
X36080000Y-66520000D03*
D22*
%TO.P,J1,A12,GND*%
%TO.N,Net-(J1-GND-PadA12)*%
X36080000Y-67750000D03*
D23*
%TO.P,J1,B5,CC2*%
%TO.N,unconnected-(J1-CC2-PadB5)*%
X36080000Y-65500000D03*
D24*
%TO.P,J1,B9,VBUS*%
%TO.N,Net-(J1-VBUS-PadA9)*%
X36080000Y-63480000D03*
D25*
%TO.P,J1,B12,GND*%
%TO.N,Net-(J1-GND-PadA12)*%
X36080000Y-62250000D03*
D26*
%TO.P,J1,S1,SHIELD*%
%TO.N,unconnected-(J1-SHIELD-PadS1)*%
X36000000Y-60680000D03*
X32200000Y-60680000D03*
X36000000Y-69320000D03*
X32200000Y-69320000D03*
%TD*%
D27*
%TO.P,TP6,1,1*%
%TO.N,unconnected-(TP6-Pad1)*%
X91000000Y-70000000D03*
%TD*%
D28*
%TO.P,S1,1,1*%
%TO.N,Net-(S1-Pad1)*%
X41240000Y-49300000D03*
X41300000Y-48650000D03*
X41300000Y-49950000D03*
X41400000Y-47850000D03*
X41490000Y-50910000D03*
X41600000Y-47040000D03*
X41810000Y-46470000D03*
X41860000Y-51840000D03*
X42140000Y-45900000D03*
X42240000Y-52590000D03*
X42490000Y-45280000D03*
X42660000Y-53240000D03*
X42870000Y-44790000D03*
X43240000Y-53950000D03*
X43390000Y-44260000D03*
X43990000Y-54580000D03*
X44030000Y-43770000D03*
X44800000Y-43240000D03*
X44880000Y-55100000D03*
X45680000Y-42840000D03*
X45740000Y-55530000D03*
X46560000Y-42580000D03*
X46760000Y-55810000D03*
X47420000Y-42460000D03*
X47770000Y-55920000D03*
X48470000Y-42460000D03*
X48660000Y-55920000D03*
X49420000Y-42600000D03*
X49610000Y-55750000D03*
X50240000Y-42820000D03*
X50350000Y-55480000D03*
X51280000Y-43310000D03*
X51280000Y-55080000D03*
X52130000Y-54480000D03*
X52170000Y-43900000D03*
X52770000Y-53920000D03*
X52960000Y-44580000D03*
X53260000Y-53410000D03*
X53530000Y-45320000D03*
X53720000Y-52760000D03*
X54050000Y-46180000D03*
X54110000Y-52000000D03*
X54380000Y-47100000D03*
X54410000Y-51130000D03*
X54650000Y-50140000D03*
X54660000Y-48040000D03*
X54740000Y-49190000D03*
D18*
%TO.P,S1,2,2*%
%TO.N,Net-(D1-A)*%
X48000000Y-47000000D03*
%TD*%
D14*
%TO.P,TP3,1,1*%
%TO.N,Net-(D1-K)*%
X79935000Y-55905000D03*
%TD*%
D13*
%TO.P,D2,1,K*%
%TO.N,Net-(D2-K)*%
X89935000Y-50555000D03*
%TO.P,D2,2,A*%
%TO.N,Net-(D2-A)*%
X89935000Y-47255000D03*
%TD*%
D29*
%TO.N,Net-(D1-A)*%
X75935000Y-45905000D03*
%TO.N,Net-(D2-A)*%
X85935000Y-45905000D03*
D30*
%TO.N,Net-(S1-Pad1)*%
X29730000Y-46910000D03*
%TD*%
D31*
%TO.N,*%
X133000000Y-38000000D02*
X133000000Y-35000000D01*
X42000000Y-36000000D02*
X42000000Y-35000000D01*
X124000000Y-35000000D02*
X124000000Y-36000000D01*
X85000000Y-35000000D02*
X85000000Y-36000000D01*
X49000000Y-36000000D02*
X49000000Y-35000000D01*
X112000000Y-36000000D02*
X112000000Y-35000000D01*
X122000000Y-35000000D02*
X122000000Y-36000000D01*
X50000000Y-36000000D02*
X50000000Y-35000000D01*
X117000000Y-35000000D02*
X117000000Y-36000000D01*
X118000000Y-35000000D02*
X118000000Y-37000000D01*
X57000000Y-36000000D02*
X57000000Y-35000000D01*
X86000000Y-36000000D02*
X86000000Y-35000000D01*
X97000000Y-36000000D02*
X97000000Y-35000000D01*
X127000000Y-36000000D02*
X127000000Y-35000000D01*
X47000000Y-35000000D02*
X47000000Y-36000000D01*
X70000000Y-35000000D02*
X70000000Y-36000000D01*
X41000000Y-36000000D02*
X41000000Y-35000000D01*
X96000000Y-36000000D02*
X96000000Y-35000000D01*
X58000000Y-37000000D02*
X58000000Y-35000000D01*
X62000000Y-36000000D02*
X62000000Y-35000000D01*
X79000000Y-36000000D02*
X79000000Y-35000000D01*
X121000000Y-35000000D02*
X121000000Y-36000000D01*
X78000000Y-37000000D02*
X78000000Y-35000000D01*
X69000000Y-35000000D02*
X69000000Y-36000000D01*
X55000000Y-36000000D02*
X55000000Y-35000000D01*
X130000000Y-36000000D02*
X130000000Y-35000000D01*
X88000000Y-35000000D02*
X88000000Y-37000000D01*
X113000000Y-38000000D02*
X113000000Y-35000000D01*
X68000000Y-35000000D02*
X68000000Y-37000000D01*
X110000000Y-36000000D02*
X110000000Y-35000000D01*
X64000000Y-35000000D02*
X64000000Y-36000000D01*
X38000000Y-37000000D02*
X38000000Y-35000000D01*
X35000000Y-36000000D02*
X35000000Y-35000000D01*
X128000000Y-37000000D02*
X128000000Y-35000000D01*
X126000000Y-36000000D02*
X126000000Y-35000000D01*
X106000000Y-35000000D02*
X106000000Y-36000000D01*
X34000000Y-36000000D02*
X34000000Y-35000000D01*
X65000000Y-35000000D02*
X65000000Y-36000000D01*
X125000000Y-36000000D02*
X125000000Y-35000000D01*
X37000000Y-36000000D02*
X37000000Y-35000000D01*
X103000000Y-35000000D02*
X103000000Y-38000000D01*
X98000000Y-37000000D02*
X98000000Y-35000000D01*
X77000000Y-35000000D02*
X77000000Y-36000000D01*
X82000000Y-36000000D02*
X82000000Y-35000000D01*
X33000000Y-35000000D02*
X33000000Y-38000000D01*
D32*
X44000000Y-72000000D02*
X56000000Y-72000000D01*
D33*
X44000000Y-75000000D02*
X56000000Y-75000000D01*
D31*
X45000000Y-35000000D02*
X45000000Y-36000000D01*
X119000000Y-36000000D02*
X119000000Y-35000000D01*
X67000000Y-35000000D02*
X67000000Y-36000000D01*
X73000000Y-35000000D02*
X73000000Y-38000000D01*
X92000000Y-35000000D02*
X92000000Y-36000000D01*
X105000000Y-35000000D02*
X105000000Y-36000000D01*
X61000000Y-36000000D02*
X61000000Y-35000000D01*
X84000000Y-36000000D02*
X84000000Y-35000000D01*
X114000000Y-36000000D02*
X114000000Y-35000000D01*
X100000000Y-36000000D02*
X100000000Y-35000000D01*
X115000000Y-35000000D02*
X115000000Y-36000000D01*
X91000000Y-35000000D02*
X91000000Y-36000000D01*
X102000000Y-36000000D02*
X102000000Y-35000000D01*
X36000000Y-36000000D02*
X36000000Y-35000000D01*
X81000000Y-36000000D02*
X81000000Y-35000000D01*
X108000000Y-35000000D02*
X108000000Y-37000000D01*
X123000000Y-35000000D02*
X123000000Y-38000000D01*
X104000000Y-35000000D02*
X104000000Y-36000000D01*
X80000000Y-36000000D02*
X80000000Y-35000000D01*
X52000000Y-35000000D02*
X52000000Y-36000000D01*
X71000000Y-35000000D02*
X71000000Y-36000000D01*
X59000000Y-36000000D02*
X59000000Y-35000000D01*
X129000000Y-35000000D02*
X129000000Y-36000000D01*
X109000000Y-36000000D02*
X109000000Y-35000000D01*
X111000000Y-36000000D02*
X111000000Y-35000000D01*
D34*
X44000000Y-69000000D02*
X56000000Y-69000000D01*
D31*
X60000000Y-36000000D02*
X60000000Y-35000000D01*
X44000000Y-36000000D02*
X44000000Y-35000000D01*
X66000000Y-35000000D02*
X66000000Y-36000000D01*
X44000000Y-66000000D02*
X56000000Y-66000000D01*
X95000000Y-36000000D02*
X95000000Y-35000000D01*
X87000000Y-35000000D02*
X87000000Y-36000000D01*
X116000000Y-36000000D02*
X116000000Y-35000000D01*
X63000000Y-35000000D02*
X63000000Y-38000000D01*
X101000000Y-36000000D02*
X101000000Y-35000000D01*
X39000000Y-36000000D02*
X39000000Y-35000000D01*
X46000000Y-36000000D02*
X46000000Y-35000000D01*
X93000000Y-35000000D02*
X93000000Y-38000000D01*
X99000000Y-36000000D02*
X99000000Y-35000000D01*
X131000000Y-36000000D02*
X131000000Y-35000000D01*
X83000000Y-38000000D02*
X83000000Y-35000000D01*
X75000000Y-35000000D02*
X75000000Y-36000000D01*
X90000000Y-36000000D02*
X90000000Y-35000000D01*
X79000000Y-35000000D02*
X79000000Y-36000000D01*
X53000000Y-35000000D02*
X53000000Y-38000000D01*
X40000000Y-36000000D02*
X40000000Y-35000000D01*
X54000000Y-35000000D02*
X54000000Y-36000000D01*
X132000000Y-36000000D02*
X132000000Y-35000000D01*
X43000000Y-38000000D02*
X43000000Y-35000000D01*
X74000000Y-35000000D02*
X74000000Y-36000000D01*
X94000000Y-35000000D02*
X94000000Y-36000000D01*
X120000000Y-36000000D02*
X120000000Y-35000000D01*
X89000000Y-36000000D02*
X89000000Y-35000000D01*
X56000000Y-36000000D02*
X56000000Y-35000000D01*
X107000000Y-35000000D02*
X107000000Y-36000000D01*
X76000000Y-35000000D02*
X76000000Y-36000000D01*
X72000000Y-35000000D02*
X72000000Y-36000000D01*
X48000000Y-35000000D02*
X48000000Y-37000000D01*
X51000000Y-35000000D02*
X51000000Y-36000000D01*
%TO.N,Net-(D1-K)*%
X79935000Y-50555000D02*
X79935000Y-55905000D01*
%TO.N,Net-(D1-A)*%
X77285000Y-47255000D02*
X79935000Y-47255000D01*
X75935000Y-45905000D02*
X77285000Y-47255000D01*
%TO.N,Net-(D2-A)*%
X85935000Y-45905000D02*
X87285000Y-47255000D01*
X87285000Y-47255000D02*
X89935000Y-47255000D01*
%TO.N,Net-(S1-Pad1)*%
X54380000Y-47100000D02*
X55205000Y-47100000D01*
X30402000Y-46910000D02*
X30601000Y-46711000D01*
X30601000Y-46711000D02*
X30601000Y-44699000D01*
X55205000Y-47100000D02*
X60035000Y-51930000D01*
X30601000Y-44699000D02*
X32300000Y-43000000D01*
X33935000Y-46905000D02*
X41465000Y-46905000D01*
X32300000Y-43000000D02*
X34000000Y-43000000D01*
X30800000Y-48310000D02*
X32530000Y-48310000D01*
X41465000Y-46905000D02*
X41600000Y-47040000D01*
X32530000Y-48310000D02*
X33935000Y-46905000D01*
X29730000Y-46910000D02*
X30402000Y-46910000D01*
%TO.N,Net-(D2-K)*%
X89935000Y-50555000D02*
X89935000Y-55905000D01*
%TD*%
M02*
